<svg width="56" height="56" viewBox="0 0 56 56" fill="none" xmlns="http://www.w3.org/2000/svg">
<path fill-rule="evenodd" clip-rule="evenodd" d="M28 56C43.464 56 56 43.464 56 28C56 12.536 43.464 0 28 0C12.536 0 0 12.536 0 28C0 43.464 12.536 56 28 56Z" fill="#FF4F12"/>
<path fill-rule="evenodd" clip-rule="evenodd" d="M16.708 24.5H39.208V29.5H16.708V24.5ZM37.958 28.25V25.75H17.958V28.25H37.958Z" fill="white"/>
<path fill-rule="evenodd" clip-rule="evenodd" d="M36.7036 17.0203C36.7774 17.0095 36.8429 17 36.9084 17C37.5084 17 38.0334 17.4125 38.1334 18.0125L38.8209 21.6875L16.7084 25.825L16.0209 22.15C15.8959 21.475 16.3459 20.825 17.0209 20.7L36.6709 17.025C36.682 17.0234 36.6929 17.0218 36.7036 17.0203ZM37.3709 20.7L36.9084 18.25L17.2584 21.925L17.7209 24.375L37.3709 20.7Z" fill="white"/>
<path d="M17.9258 24.5156L20.9206 20.1577L21.9509 20.8657L18.956 25.2236L17.9258 24.5156Z" fill="white"/>
<path d="M22.8467 23.6055L25.8412 19.2324L26.8726 19.9387L23.8781 24.3117L22.8467 23.6055Z" fill="white"/>
<path d="M27.7539 22.6797L30.7558 18.3114L31.7861 19.0194L28.7842 23.3877L27.7539 22.6797Z" fill="white"/>
<path d="M32.6729 21.7656L35.6748 17.3974L36.705 18.1054L33.7031 22.4736L32.6729 21.7656Z" fill="white"/>
<path d="M19.0213 29.3633L18.1338 28.4758L21.8838 24.7383L22.7713 25.6258L19.0213 29.3633Z" fill="white"/>
<path d="M24.0213 29.3633L23.1338 28.4758L26.8838 24.7383L27.7713 25.6258L24.0213 29.3633Z" fill="white"/>
<path d="M29.0213 29.3633L28.1338 28.4758L31.8838 24.7383L32.7713 25.6258L29.0213 29.3633Z" fill="white"/>
<path d="M34.0213 29.3633L33.1338 28.4758L36.8838 24.7383L37.7713 25.6258L34.0213 29.3633Z" fill="white"/>
<path d="M28.5457 39.425V38.3125C28.5457 38.3 28.5582 38.275 28.5582 38.2625H17.9582V25.8H37.9582V29.5H38.4832C38.5082 29.5 38.5332 29.5125 38.5582 29.5125V29.5H39.2207V24.5625H16.7207V38.275C16.7207 38.9625 17.2832 39.525 17.9707 39.525H28.5707C28.5582 39.4875 28.5457 39.4625 28.5457 39.425Z" fill="white"/>
<path d="M27.3957 39.425V38.3125C27.3957 38.3 27.3832 38.275 27.3832 38.2625H37.9832V25.8H17.9832V29.5H17.4582C17.4332 29.5 17.4082 29.5125 17.3832 29.5125V29.5H16.7207V24.5625H39.2207V38.275C39.2207 38.9625 38.6582 39.525 37.9707 39.525H27.3707C27.3832 39.4875 27.3957 39.4625 27.3957 39.425Z" fill="white"/>
</svg>
