<?xml version="1.0" encoding="UTF-8"?>
<svg width="56px" height="56px" viewBox="0 0 56 56" version="1.1" xmlns="http://www.w3.org/2000/svg" xmlns:xlink="http://www.w3.org/1999/xlink">
    <!-- Generator: Sketch 64 (93537) - https://sketch.com -->
    <title>277-T56px</title>
    <desc>Created with Sketch.</desc>
    <g id="277-T56px" stroke="none" stroke-width="1" fill="none" fill-rule="evenodd">
        <g>
            <path d="M39.375,40.25 L16.625,40.25 C10.8325,40.25 6.125,35.5425 6.125,29.75 C6.125,23.9575 10.8325,19.25 16.625,19.25 L39.375,19.25 C45.1675,19.25 49.875,23.9575 49.875,29.75 C49.875,35.5425 45.1675,40.25 39.375,40.25 Z M16.625,21 C11.795,21 7.875,24.92 7.875,29.75 C7.875,34.58 11.795,38.5 16.625,38.5 L39.375,38.5 C44.205,38.5 48.125,34.58 48.125,29.75 C48.125,24.92 44.205,21 39.375,21 L16.625,21 Z" id="Shape" fill="#FFFFFF" fill-rule="nonzero"></path>
            <path d="M16.625,35 C13.7375,35 11.375,32.6375 11.375,29.75 C11.375,26.8625 13.7375,24.5 16.625,24.5 C19.5125,24.5 21.875,26.8625 21.875,29.75 C21.875,32.6375 19.5125,35 16.625,35 Z M16.625,26.25 C14.7,26.25 13.125,27.825 13.125,29.75 C13.125,31.675 14.7,33.25 16.625,33.25 C18.55,33.25 20.125,31.675 20.125,29.75 C20.125,27.825 18.55,26.25 16.625,26.25 Z" id="Shape" fill="#FFFFFF" fill-rule="nonzero"></path>
            <path d="M16.625,31.5 C15.6625,31.5 14.875,30.7125 14.875,29.75 C14.875,28.7875 15.6625,28 16.625,28 C17.5875,28 18.375,28.7875 18.375,29.75 C18.375,30.7125 17.5875,31.5 16.625,31.5 Z M16.625,29.75 C16.625,29.75 16.625,29.75 16.625,29.75 L17.5,29.75 L16.625,29.75 Z" id="Shape" fill="#FFFFFF" fill-rule="nonzero"></path>
            <path d="M39.375,31.5 C38.4125,31.5 37.625,30.7125 37.625,29.75 C37.625,28.7875 38.4125,28 39.375,28 C40.3375,28 41.125,28.7875 41.125,29.75 C41.125,30.7125 40.3375,31.5 39.375,31.5 Z M39.375,29.75 C39.375,29.75 39.375,29.75 39.375,29.75 L40.25,29.75 L39.375,29.75 Z" id="Shape" fill="#FFFFFF" fill-rule="nonzero"></path>
            <path d="M39.375,35 C36.4875,35 34.125,32.6375 34.125,29.75 C34.125,26.8625 36.4875,24.5 39.375,24.5 C42.2625,24.5 44.625,26.8625 44.625,29.75 C44.625,32.6375 42.2625,35 39.375,35 Z M39.375,26.25 C37.45,26.25 35.875,27.825 35.875,29.75 C35.875,31.675 37.45,33.25 39.375,33.25 C41.3,33.25 42.875,31.675 42.875,29.75 C42.875,27.825 41.3,26.25 39.375,26.25 Z" id="Shape" fill="#FFFFFF" fill-rule="nonzero"></path>
            <rect id="Rectangle" fill="#FFFFFF" fill-rule="nonzero" x="22.75" y="27.65" width="1.75" height="4.2"></rect>
            <rect id="Rectangle" fill="#FFFFFF" fill-rule="nonzero" x="25.6725" y="24.5" width="1.75" height="10.5"></rect>
            <rect id="Rectangle" fill="#FFFFFF" fill-rule="nonzero" x="28.5775" y="26.6" width="1.75" height="6.3"></rect>
            <rect id="Rectangle" fill="#FFFFFF" fill-rule="nonzero" x="31.5" y="28.7" width="1.75" height="2.1"></rect>
            <rect id="Rectangle" x="0" y="0" width="56" height="56"></rect>
        </g>
    </g>
</svg>