<svg width="80" height="80" viewBox="0 0 80 80" fill="none" xmlns="http://www.w3.org/2000/svg">
<path d="M40 12.5C45.439 12.5 50.7558 14.1128 55.2782 17.1346C59.8005 20.1563 63.3253 24.4512 65.4067 29.4762C67.4881 34.5012 68.0327 40.0305 66.9716 45.365C65.9105 50.6995 63.2914 55.5995 59.4454 59.4454C55.5995 63.2914 50.6995 65.9105 45.365 66.9716C40.0305 68.0327 34.5012 67.4881 29.4762 65.4067C24.4513 63.3253 20.1563 59.8005 17.1346 55.2782C14.1129 50.7558 12.5 45.439 12.5 40C12.5113 32.71 15.4123 25.7219 20.5671 20.5671C25.7219 15.4123 32.71 12.5113 40 12.5ZM40 10C34.0666 10 28.2664 11.7595 23.3329 15.0559C18.3994 18.3524 14.5543 23.0377 12.2836 28.5195C10.013 34.0013 9.4189 40.0333 10.5765 45.8527C11.734 51.6721 14.5912 57.0176 18.7868 61.2132C22.9824 65.4088 28.3279 68.266 34.1473 69.4235C39.9667 70.5811 45.9987 69.987 51.4805 67.7164C56.9623 65.4457 61.6476 61.6006 64.9441 56.6671C68.2405 51.7336 70 45.9334 70 40C70 32.0435 66.8393 24.4129 61.2132 18.7868C55.5871 13.1607 47.9565 10 40 10Z" fill="black"/>
<path d="M39.999 24.0039L44.945 33.8766L55.999 35.4633L47.999 43.1469L49.891 54.0039L39.999 48.8766L30.107 54.0039L31.999 43.1469L23.999 35.4633L35.053 33.8766L39.999 24.0039Z" fill="black"/>
<path d="M59.5556 40H62C62 34.1652 59.6821 28.5695 55.5564 24.4437C51.4305 20.3178 45.8348 18 40 18V20.4444C45.1865 20.4444 50.1605 22.5048 53.8279 26.1721C57.4952 29.8395 59.5556 34.8135 59.5556 40Z" fill="black"/>
<path d="M40 59.5556C34.8135 59.5556 29.8395 57.4952 26.1721 53.8279C22.5048 50.1605 20.4444 45.1865 20.4444 40H18C18 45.8348 20.3178 51.4305 24.4437 55.5564C28.5695 59.6821 34.1652 62 40 62V59.5556Z" fill="black"/>
</svg>
