<svg width="32" height="32" viewBox="0 0 32 32" fill="none" xmlns="http://www.w3.org/2000/svg">
<path d="M20.5095 13C20.0995 13 19.7695 13.34 19.7695 13.75C19.7695 14.16 20.0995 14.5 20.5095 14.5C20.9195 14.5 21.2495 14.16 21.2495 13.75C21.2495 13.34 20.9095 13 20.5095 13Z" fill="#101828"/>
<path d="M20.5095 10.5C20.0995 10.5 19.7695 10.84 19.7695 11.25C19.7695 11.66 20.0995 12 20.5095 12C20.9195 12 21.2495 11.66 21.2495 11.25C21.2495 10.84 20.9095 10.5 20.5095 10.5Z" fill="#101828"/>
<path d="M21.75 11.7383C21.34 11.7383 21 12.0783 21 12.4983C21 12.9183 21.34 13.2583 21.75 13.2583C22.16 13.2583 22.5 12.9183 22.5 12.4983C22.5 12.0783 22.16 11.7383 21.75 11.7383Z" fill="#101828"/>
<path d="M19.2595 11.75C18.8495 11.75 18.5195 12.09 18.5195 12.5C18.5195 12.92 18.8495 13.25 19.2595 13.25C19.6695 13.25 19.9995 12.92 19.9995 12.5C19.9995 12.08 19.6695 11.75 19.2595 11.75Z" fill="#101828"/>
<path d="M25.8098 14.8L24.3198 7.79C24.2198 7.33 23.8298 7 23.3698 7H16.8298H15.4998V4H14.4998V7H13.1698H6.62981C6.16981 7 5.77981 7.33 5.68981 7.79L4.18981 14.8C3.91981 16.15 3.86981 17.08 4.44981 18.37C5.15981 19.96 6.87981 21 8.59981 21C8.62981 21 8.64981 21 8.67981 21C11.1698 20.95 13.1798 18.88 13.1798 16.33H16.8298C16.8298 17.12 17.0398 17.85 17.3798 18.5C17.5998 18.22 17.8398 17.96 18.0998 17.72C17.9298 17.29 17.8298 16.82 17.8298 16.33V15.33H16.8298H13.1798H12.1798V16.33C12.1798 18.32 10.5998 19.96 8.66981 20H8.59981C7.22981 20 5.89981 19.16 5.36981 17.96C4.90981 16.92 4.92981 16.24 5.17981 15.01L6.62981 8H13.1698H16.8398H23.3398L24.8298 15C24.9498 15.6 25.0098 16.06 24.9998 16.5C25.3398 16.64 25.6598 16.81 25.9598 17C26.0498 16.31 25.9698 15.64 25.8098 14.8Z" fill="#101828"/>
<path d="M11.4797 12.0009H9.99973V10.4609H8.99973V12.0009H7.46973V13.0009H8.99973V14.4709H9.99973V13.0009H11.4797V12.0009Z" fill="#101828"/>
<path fill-rule="evenodd" clip-rule="evenodd" d="M21.9557 16.5053L22.1661 16.5L22.3966 16.5065C24.034 16.5985 25.4673 17.6562 26.1016 19.2499L26.15 19.372L26.4679 19.35L26.6047 19.3467C27.6397 19.3467 28.6223 19.7746 29.3599 20.5418C30.097 21.3157 30.5001 22.3396 30.5001 23.4351C30.4923 25.6751 28.744 27.5 26.5761 27.5L18.0283 27.48C16.0645 27.4566 14.4924 25.7811 14.5001 23.7446C14.5081 21.7802 15.9828 20.1498 17.8719 20.0407L18.003 20.033L18.0315 19.9062C18.4829 17.9741 20.0729 16.6009 21.9557 16.5053ZM22.1775 17.5L22.1661 17.5C20.6659 17.5 19.3697 18.5741 19.0066 20.128L18.8975 20.6213C18.8489 20.8408 18.6598 21.0009 18.4353 21.0127L17.9267 21.0392C16.5784 21.117 15.506 22.3027 15.5001 23.7486C15.4944 25.2462 16.6364 26.4634 18.0343 26.48L18.7037 26.48L26.5774 26.5C28.1824 26.5 29.4942 25.1308 29.5001 23.4333C29.5001 22.5944 29.1945 21.818 28.6374 21.2332C28.0879 20.6617 27.3646 20.3467 26.6047 20.3467C26.5415 20.3467 26.4902 20.3495 26.3703 20.3585L25.8596 20.3985C25.6406 20.4156 25.4361 20.2878 25.3555 20.0835L25.1719 19.6182C24.6593 18.3301 23.4893 17.5057 22.1775 17.5Z" fill="#101828"/>
</svg>
