<svg width="80" height="80" viewBox="0 0 80 80" fill="none" xmlns="http://www.w3.org/2000/svg">
<path fill-rule="evenodd" clip-rule="evenodd" d="M25.7149 11.4531H66.25C67.9463 11.4531 70.0006 12.3056 70.0006 14.3103V39.3103V65.0246C70.0006 67.0293 67.9463 68.5433 66.25 68.5433H25.7149C24.0186 68.5433 26.2151 68.5433 25.7149 68.5433L25.7149 14.3103C25.7149 12.3056 25.7149 12.6815 25.7149 11.4531ZM25.7149 65.8763L67.1435 65.7388V14.3103H25.7149V65.8763Z" fill="#101828"/>
<path fill-rule="evenodd" clip-rule="evenodd" d="M14.2862 7.16642L25.0004 7.16642C26.7044 7.16642 28.5719 6.76078 28.5719 9.16642V39.1664V70.0236C28.5719 72.4292 26.7044 72.8807 25.0004 72.8807H14.2862V10.0236C14.2862 7.61793 14.2862 8.64047 14.2862 7.16642ZM14.2861 70.0236H25.7147V10.0236H14.2862L14.2861 70.0236Z" fill="#101828"/>
<path fill-rule="evenodd" clip-rule="evenodd" d="M24.2861 7.16642L13.5718 7.16642C11.8678 7.16642 10.0004 6.76078 10.0004 9.16642V39.1664V70.0236C10.0004 72.4292 11.8678 72.8807 13.5718 72.8807H24.2861V10.0236C24.2861 7.61793 24.2861 8.64047 24.2861 7.16642ZM24.2861 70.0236H12.8576V10.0236H24.2861L24.2861 70.0236Z" fill="#101828"/>
<path fill-rule="evenodd" clip-rule="evenodd" d="M34.2852 34.2367C34.2852 35.7677 35.5378 37.0203 37.0687 37.0203C38.5997 37.0203 39.8523 35.7677 39.8523 34.2367C39.8523 32.7057 38.5997 31.4531 37.0687 31.4531C35.5378 31.4531 34.2852 32.7057 34.2852 34.2367Z" fill="#101828"/>
<path fill-rule="evenodd" clip-rule="evenodd" d="M45.4199 34.2367C45.4199 35.7677 46.6725 37.0203 48.2035 37.0203C49.7345 37.0203 50.9871 35.7677 50.9871 34.2367C50.9871 32.7057 49.7345 31.4531 48.2035 31.4531C46.6725 31.4531 45.4199 32.7057 45.4199 34.2367Z" fill="#101828"/>
<path fill-rule="evenodd" clip-rule="evenodd" d="M56.5537 34.2367C56.5537 35.7677 57.8063 37.0203 59.3373 37.0203C60.8683 37.0203 62.1209 35.7677 62.1209 34.2367C62.1209 32.7057 60.8683 31.4531 59.3373 31.4531C57.8063 31.4531 56.5537 32.7057 56.5537 34.2367Z" fill="#101828"/>
<path fill-rule="evenodd" clip-rule="evenodd" d="M34.2852 45.3695C34.2852 46.9005 35.5378 48.1531 37.0687 48.1531C38.5997 48.1531 39.8523 46.9005 39.8523 45.3695C39.8523 43.8386 38.5997 42.5859 37.0687 42.5859C35.5378 42.5859 34.2852 43.8386 34.2852 45.3695Z" fill="#101828"/>
<path fill-rule="evenodd" clip-rule="evenodd" d="M45.4199 45.3695C45.4199 46.9005 46.6725 48.1531 48.2035 48.1531C49.7345 48.1531 50.9871 46.9005 50.9871 45.3695C50.9871 43.8386 49.7345 42.5859 48.2035 42.5859C46.6725 42.5859 45.4199 43.8386 45.4199 45.3695Z" fill="#101828"/>
<path fill-rule="evenodd" clip-rule="evenodd" d="M56.5537 45.3695C56.5537 46.9005 57.8063 48.1531 59.3373 48.1531C60.8683 48.1531 62.1209 46.9005 62.1209 45.3695C62.1209 43.8386 60.8683 42.5859 59.3373 42.5859C57.8063 42.5859 56.5537 43.8386 56.5537 45.3695Z" fill="#101828"/>
<path fill-rule="evenodd" clip-rule="evenodd" d="M34.2861 56.5023C34.2861 58.0333 35.5387 59.2859 37.0697 59.2859C38.6007 59.2859 39.8533 58.0333 39.8533 56.5023C39.8533 54.9714 38.6007 53.7188 37.0697 53.7188C35.5387 53.7188 34.2861 54.9714 34.2861 56.5023Z" fill="#101828"/>
<path fill-rule="evenodd" clip-rule="evenodd" d="M45.4199 56.5023C45.4199 58.0333 46.6725 59.2859 48.2035 59.2859C49.7345 59.2859 50.9871 58.0333 50.9871 56.5023C50.9871 54.9714 49.7345 53.7188 48.2035 53.7188C46.6725 53.7188 45.4199 54.9714 45.4199 56.5023Z" fill="#101828"/>
<path fill-rule="evenodd" clip-rule="evenodd" d="M56.5557 56.5023C56.5557 58.0333 57.8083 59.2859 59.3392 59.2859C60.8702 59.2859 62.1228 58.0333 62.1228 56.5023C62.1228 54.9714 60.8702 53.7188 59.3392 53.7188C57.8083 53.7188 56.5557 54.9714 56.5557 56.5023Z" fill="#101828"/>
<path d="M34.2861 27.168V20.7394H62.1433V27.168H34.2861Z" fill="#101828"/>
</svg>
