<svg width="56" height="56" viewBox="0 0 56 56" fill="none" xmlns="http://www.w3.org/2000/svg">
<path fill-rule="evenodd" clip-rule="evenodd" d="M18 8.01953H46.3746C47.562 8.01953 49 8.61624 49 10.0195V27.5195V45.5195C49 46.9228 47.562 47.9827 46.3746 47.9827H18C16.8126 47.9827 18.3501 47.9827 18 47.9827L18 10.0195C18 8.61624 18 8.87939 18 8.01953ZM18 46.1157L47.0001 46.0195V10.0195H18V46.1157Z" fill="#101828"/>
<path fill-rule="evenodd" clip-rule="evenodd" d="M10 5.01806L17.5 5.01806C18.6928 5.01806 20 4.73411 20 6.41806V27.4181V49.0181C20 50.702 18.6928 51.0181 17.5 51.0181H10V7.01806C10 5.33411 10 6.04989 10 5.01806ZM10 49.0181H18V7.01806H10L10 49.0181Z" fill="#101828"/>
<path fill-rule="evenodd" clip-rule="evenodd" d="M17 5.01806L9.5 5.01806C8.30719 5.01806 6.99999 4.73411 6.99999 6.41806V27.4181V49.0181C6.99999 50.702 8.30718 51.0181 9.5 51.0181H17V7.01806C17 5.33411 17 6.04989 17 5.01806ZM17 49.0181H9V7.01806H17L17 49.0181Z" fill="#101828"/>
<path fill-rule="evenodd" clip-rule="evenodd" d="M24 23.968C24 25.0397 24.8768 25.9166 25.9485 25.9166C27.0202 25.9166 27.897 25.0397 27.897 23.968C27.897 22.8964 27.0202 22.0195 25.9485 22.0195C24.8768 22.0195 24 22.8964 24 23.968Z" fill="#101828"/>
<path fill-rule="evenodd" clip-rule="evenodd" d="M31.7939 23.968C31.7939 25.0397 32.6708 25.9166 33.7425 25.9166C34.8141 25.9166 35.691 25.0397 35.691 23.968C35.691 22.8964 34.8141 22.0195 33.7425 22.0195C32.6708 22.0195 31.7939 22.8964 31.7939 23.968Z" fill="#101828"/>
<path fill-rule="evenodd" clip-rule="evenodd" d="M39.5879 23.968C39.5879 25.0397 40.4647 25.9166 41.5364 25.9166C42.6081 25.9166 43.4849 25.0397 43.4849 23.968C43.4849 22.8964 42.6081 22.0195 41.5364 22.0195C40.4647 22.0195 39.5879 22.8964 39.5879 23.968Z" fill="#101828"/>
<path fill-rule="evenodd" clip-rule="evenodd" d="M24 31.761C24 32.8327 24.8768 33.7095 25.9485 33.7095C27.0202 33.7095 27.897 32.8327 27.897 31.761C27.897 30.6893 27.0202 29.8125 25.9485 29.8125C24.8768 29.8125 24 30.6893 24 31.761Z" fill="#101828"/>
<path fill-rule="evenodd" clip-rule="evenodd" d="M31.7939 31.761C31.7939 32.8327 32.6708 33.7095 33.7425 33.7095C34.8141 33.7095 35.691 32.8327 35.691 31.761C35.691 30.6893 34.8141 29.8125 33.7425 29.8125C32.6708 29.8125 31.7939 30.6893 31.7939 31.761Z" fill="#101828"/>
<path fill-rule="evenodd" clip-rule="evenodd" d="M39.5879 31.761C39.5879 32.8327 40.4647 33.7095 41.5364 33.7095C42.6081 33.7095 43.4849 32.8327 43.4849 31.761C43.4849 30.6893 42.6081 29.8125 41.5364 29.8125C40.4647 29.8125 39.5879 30.6893 39.5879 31.761Z" fill="#101828"/>
<path fill-rule="evenodd" clip-rule="evenodd" d="M24 39.554C24 40.6257 24.8768 41.5025 25.9485 41.5025C27.0202 41.5025 27.897 40.6257 27.897 39.554C27.897 38.4823 27.0202 37.6055 25.9485 37.6055C24.8768 37.6055 24 38.4823 24 39.554Z" fill="#101828"/>
<path fill-rule="evenodd" clip-rule="evenodd" d="M31.7939 39.554C31.7939 40.6257 32.6708 41.5025 33.7425 41.5025C34.8141 41.5025 35.691 40.6257 35.691 39.554C35.691 38.4823 34.8141 37.6055 33.7425 37.6055C32.6708 37.6055 31.7939 38.4823 31.7939 39.554Z" fill="#101828"/>
<path fill-rule="evenodd" clip-rule="evenodd" d="M39.5879 39.554C39.5879 40.6257 40.4647 41.5025 41.5364 41.5025C42.6081 41.5025 43.4849 40.6257 43.4849 39.554C43.4849 38.4823 42.6081 37.6055 41.5364 37.6055C40.4647 37.6055 39.5879 38.4823 39.5879 39.554Z" fill="#101828"/>
<path d="M24 19.0195V14.5195H43.5V19.0195H24Z" fill="#101828"/>
</svg>
