<svg width="42" height="42" viewBox="0 0 42 42" fill="none" xmlns="http://www.w3.org/2000/svg">
<path fill-rule="evenodd" clip-rule="evenodd" d="M21 41C32.0457 41 41 32.0457 41 21C41 9.9543 32.0457 1 21 1C9.9543 1 1 9.9543 1 21C1 32.0457 9.9543 41 21 41Z" stroke="#E3E8EC" fill="transparent" />
<path fill-rule="evenodd" clip-rule="evenodd" d="M15.2861 9.58594H31.5002C32.1787 9.58594 33.0004 9.92691 33.0004 10.7288V20.7288V31.0145C33.0004 31.8164 32.1787 32.422 31.5002 32.422H15.2862C14.6076 32.422 15.4862 32.422 15.2862 32.422L15.2861 10.7288C15.2861 9.92691 15.2861 10.0773 15.2861 9.58594ZM15.2861 31.3552L31.8576 31.3002V10.7288H15.2861V31.3552Z" fill="#101828"/>
<path fill-rule="evenodd" clip-rule="evenodd" d="M10.7139 7.86969L14.9996 7.86969C15.6812 7.86969 16.4282 7.70744 16.4282 8.66969V20.6697V33.0126C16.4282 33.9748 15.6812 34.1554 14.9996 34.1554H10.7139V9.01255C10.7139 8.0503 10.7139 8.45931 10.7139 7.86969ZM10.7139 33.0126H15.2853V9.01255H10.7139L10.7139 33.0126Z" fill="#101828"/>
<path fill-rule="evenodd" clip-rule="evenodd" d="M14.7139 7.86969L10.4282 7.86969C9.74654 7.86969 8.99957 7.70744 8.99957 8.66969V20.6697V33.0126C8.99957 33.9748 9.74654 34.1554 10.4282 34.1554H14.7139V9.01255C14.7139 8.0503 14.7139 8.45931 14.7139 7.86969ZM14.7139 33.0126H10.1424V9.01255H14.7139L14.7139 33.0126Z" fill="#101828"/>
<path fill-rule="evenodd" clip-rule="evenodd" d="M18.7139 18.6955C18.7139 19.3079 19.2149 19.8089 19.8273 19.8089C20.4397 19.8089 20.9407 19.3079 20.9407 18.6955C20.9407 18.0831 20.4397 17.582 19.8273 17.582C19.2149 17.582 18.7139 18.0831 18.7139 18.6955Z" fill="#101828"/>
<path fill-rule="evenodd" clip-rule="evenodd" d="M23.168 18.6955C23.168 19.3079 23.669 19.8089 24.2814 19.8089C24.8938 19.8089 25.3948 19.3079 25.3948 18.6955C25.3948 18.0831 24.8938 17.582 24.2814 17.582C23.669 17.582 23.168 18.0831 23.168 18.6955Z" fill="#101828"/>
<path fill-rule="evenodd" clip-rule="evenodd" d="M27.6221 18.6955C27.6221 19.3079 28.1231 19.8089 28.7355 19.8089C29.3479 19.8089 29.8489 19.3079 29.8489 18.6955C29.8489 18.0831 29.3479 17.582 28.7355 17.582C28.1231 17.582 27.6221 18.0831 27.6221 18.6955Z" fill="#101828"/>
<path fill-rule="evenodd" clip-rule="evenodd" d="M18.7139 23.1486C18.7139 23.761 19.2149 24.262 19.8273 24.262C20.4397 24.262 20.9407 23.761 20.9407 23.1486C20.9407 22.5362 20.4397 22.0352 19.8273 22.0352C19.2149 22.0352 18.7139 22.5362 18.7139 23.1486Z" fill="#101828"/>
<path fill-rule="evenodd" clip-rule="evenodd" d="M23.168 23.1486C23.168 23.761 23.669 24.262 24.2814 24.262C24.8938 24.262 25.3948 23.761 25.3948 23.1486C25.3948 22.5362 24.8938 22.0352 24.2814 22.0352C23.669 22.0352 23.168 22.5362 23.168 23.1486Z" fill="#101828"/>
<path fill-rule="evenodd" clip-rule="evenodd" d="M27.6221 23.1486C27.6221 23.761 28.1231 24.262 28.7355 24.262C29.3479 24.262 29.8489 23.761 29.8489 23.1486C29.8489 22.5362 29.3479 22.0352 28.7355 22.0352C28.1231 22.0352 27.6221 22.5362 27.6221 23.1486Z" fill="#101828"/>
<path fill-rule="evenodd" clip-rule="evenodd" d="M18.7139 27.6017C18.7139 28.2141 19.2149 28.7151 19.8273 28.7151C20.4397 28.7151 20.9407 28.2141 20.9407 27.6017C20.9407 26.9893 20.4397 26.4883 19.8273 26.4883C19.2149 26.4883 18.7139 26.9893 18.7139 27.6017Z" fill="#101828"/>
<path fill-rule="evenodd" clip-rule="evenodd" d="M23.168 27.6017C23.168 28.2141 23.669 28.7151 24.2814 28.7151C24.8938 28.7151 25.3948 28.2141 25.3948 27.6017C25.3948 26.9893 24.8938 26.4883 24.2814 26.4883C23.669 26.4883 23.168 26.9893 23.168 27.6017Z" fill="#101828"/>
<path fill-rule="evenodd" clip-rule="evenodd" d="M27.6221 27.6017C27.6221 28.2141 28.1231 28.7151 28.7355 28.7151C29.3479 28.7151 29.8489 28.2141 29.8489 27.6017C29.8489 26.9893 29.3479 26.4883 28.7355 26.4883C28.1231 26.4883 27.6221 26.9893 27.6221 27.6017Z" fill="#101828"/>
<path d="M18.7139 15.8711V13.2997H29.8567V15.8711H18.7139Z" fill="#101828"/>
</svg>
