<svg width="56" height="56" viewBox="0 0 56 56" fill="none" xmlns="http://www.w3.org/2000/svg">
<path fill-rule="evenodd" clip-rule="evenodd" d="M12.9912 22.5H44.4912V29.5H12.9912V22.5ZM42.7412 27.75V24.25H14.7412V27.75H42.7412Z" fill="#101828"/>
<path fill-rule="evenodd" clip-rule="evenodd" d="M40.9851 12.0284C41.0884 12.0133 41.18 12 41.2717 12C42.1117 12 42.8467 12.5775 42.9867 13.4175L43.9492 18.5625L12.9917 24.355L12.0292 19.21C11.8542 18.265 12.4842 17.355 13.4292 17.18L40.9392 12.035C40.9548 12.0328 40.97 12.0306 40.9851 12.0284ZM41.9194 17.18L41.2719 13.75L13.7619 18.895L14.4094 22.325L41.9194 17.18Z" fill="#101828"/>
<path d="M14.6973 22.5273L18.89 16.4262L20.3324 17.4174L16.1396 23.5185L14.6973 22.5273Z" fill="#101828"/>
<path d="M21.585 21.25L25.7773 15.1278L27.2212 16.1165L23.0289 22.2388L21.585 21.25Z" fill="#101828"/>
<path d="M28.4561 19.9531L32.6587 13.8376L34.1011 14.8288L29.8984 20.9443L28.4561 19.9531Z" fill="#101828"/>
<path d="M35.3418 18.6758L39.5445 12.5602L40.9868 13.5514L36.7841 19.667L35.3418 18.6758Z" fill="#101828"/>
<path d="M16.2298 29.3109L14.9873 28.0684L20.2373 22.8359L21.4798 24.0784L16.2298 29.3109Z" fill="#101828"/>
<path d="M23.2298 29.3109L21.9873 28.0684L27.2373 22.8359L28.4798 24.0784L23.2298 29.3109Z" fill="#101828"/>
<path d="M30.2298 29.3109L28.9873 28.0684L34.2373 22.8359L35.4798 24.0784L30.2298 29.3109Z" fill="#101828"/>
<path d="M37.2298 29.3109L35.9873 28.0684L41.2373 22.8359L42.4798 24.0784L37.2298 29.3109Z" fill="#101828"/>
<path d="M29.5648 43.3973V41.8398C29.5648 41.8223 29.5823 41.7873 29.5823 41.7698H14.7423V24.3223H42.7423V29.5023H43.4773C43.5123 29.5023 43.5473 29.5198 43.5823 29.5198V29.5023H44.5098V22.5898H13.0098V41.7873C13.0098 42.7498 13.7973 43.5373 14.7598 43.5373H29.5998C29.5823 43.4848 29.5648 43.4498 29.5648 43.3973Z" fill="#101828"/>
<path d="M27.9548 43.3973V41.8398C27.9548 41.8223 27.9373 41.7873 27.9373 41.7698H42.7773V24.3223H14.7773V29.5023H14.0423C14.0073 29.5023 13.9723 29.5198 13.9373 29.5198V29.5023H13.0098V22.5898H44.5098V41.7873C44.5098 42.7498 43.7223 43.5373 42.7598 43.5373H27.9198C27.9373 43.4848 27.9548 43.4498 27.9548 43.3973Z" fill="#101828"/>
</svg>
