<svg width="56" height="56" viewBox="0 0 56 56" fill="none" xmlns="http://www.w3.org/2000/svg">
<path d="M45.5 17.5C45.9641 17.5 46.4092 17.6844 46.7374 18.0126C47.0656 18.3408 47.25 18.7859 47.25 19.25V35C47.25 35.4641 47.0656 35.9093 46.7374 36.2374C46.4092 36.5656 45.9641 36.75 45.5 36.75H33.9675L32.9875 35.77C32.4957 35.2776 31.8285 35.0006 31.1325 35H24.8675C24.1715 35.0006 23.5043 35.2776 23.0125 35.77L22.0325 36.75H10.5C10.0359 36.75 9.59075 36.5656 9.26256 36.2374C8.93437 35.9093 8.75 35.4641 8.75 35V19.25C8.75 18.7859 8.93437 18.3408 9.26256 18.0126C9.59075 17.6844 10.0359 17.5 10.5 17.5H45.5ZM45.5 15.75H10.5C9.57174 15.75 8.6815 16.1187 8.02513 16.7751C7.36875 17.4315 7 18.3217 7 19.25V35C7 35.9283 7.36875 36.8185 8.02513 37.4749C8.6815 38.1313 9.57174 38.5 10.5 38.5H22.0325C22.4916 38.4981 22.9315 38.3158 23.2575 37.9925L24.2375 37.0125C24.3189 36.9279 24.4169 36.861 24.5253 36.8159C24.6336 36.7707 24.7501 36.7483 24.8675 36.75H31.1325C31.2499 36.7483 31.3664 36.7707 31.4747 36.8159C31.5831 36.861 31.6811 36.9279 31.7625 37.0125L32.7425 37.9925C33.0685 38.3158 33.5084 38.4981 33.9675 38.5H45.5C46.4283 38.5 47.3185 38.1313 47.9749 37.4749C48.6312 36.8185 49 35.9283 49 35V19.25C49 18.3217 48.6312 17.4315 47.9749 16.7751C47.3185 16.1187 46.4283 15.75 45.5 15.75Z" fill="#101828"/>
<path d="M7 21V33.25H5.25V21H7ZM8.75 19.25H5.25C4.78587 19.25 4.34075 19.4344 4.01256 19.7626C3.68437 20.0908 3.5 20.5359 3.5 21V33.25C3.5 33.7141 3.68437 34.1592 4.01256 34.4874C4.34075 34.8156 4.78587 35 5.25 35H8.75V19.25Z" fill="#101828"/>
<path d="M50.75 21V33.25H49V21H50.75ZM50.75 19.25H47.25V35H50.75C51.2141 35 51.6592 34.8156 51.9874 34.4874C52.3156 34.1592 52.5 33.7141 52.5 33.25V21C52.5 20.5359 52.3156 20.0908 51.9874 19.7626C51.6592 19.4344 51.2141 19.25 50.75 19.25Z" fill="#101828"/>
<path fill-rule="evenodd" clip-rule="evenodd" d="M30.9519 33.2461V28.9936H32.7212L35.2596 33.2461H37.625L34.9519 28.8186C36.4519 28.2936 37.4712 27.3486 37.4712 25.7211C37.4712 23.9011 35.9904 22.7461 33.5673 22.7461H28.875V33.2461H30.9519ZM35.413 25.862C35.413 26.702 34.836 27.2445 33.5668 27.2445H30.9514V24.4795H33.5668C34.8553 24.4795 35.413 25.022 35.413 25.862Z" fill="#101828"/>
<path d="M10 24.0039H11.77V27.5039H10V24.0039Z" fill="#101828"/>
<path d="M10 22.5V25.1127C10 25.6027 10.3973 26 10.8873 26C11.3774 26 11.7747 25.6027 11.7747 25.1127V22.1105C11.7747 21.3557 12.3866 20.7438 13.1414 20.7438H16.1281C16.6096 20.7438 17 20.3534 17 19.8719C17 19.3904 16.6096 19 16.1281 19H13.5541H13.5C11.567 19 10 20.567 10 22.5Z" fill="#101828"/>
<path d="M15.999 19H22.999V20.74H15.999V19Z" fill="#101828"/>
<path d="M19.25 22.75L22.5312 33.25H24.7188L28 22.75H25.8125L23.625 30.079L21.4375 22.75H19.25Z" fill="#101828"/>
</svg>
