<svg width="80" height="80" viewBox="0 0 80 80" fill="none" xmlns="http://www.w3.org/2000/svg">
<path fill-rule="evenodd" clip-rule="evenodd" d="M40 80C62.0914 80 80 62.0914 80 40C80 17.9086 62.0914 0 40 0C17.9086 0 0 17.9086 0 40C0 62.0914 17.9086 80 40 80Z" fill="#FF4F12"/>
<path fill-rule="evenodd" clip-rule="evenodd" d="M30 20.0195H58.3746C59.562 20.0195 61 20.6162 61 22.0195V39.5195V57.5195C61 58.9228 59.562 59.9827 58.3746 59.9827H30C28.8126 59.9827 30.3501 59.9827 30 59.9827L30 22.0195C30 20.6162 30 20.8794 30 20.0195ZM30 58.1157L59.0001 58.0195V22.0195H30V58.1157Z" fill="white"/>
<path fill-rule="evenodd" clip-rule="evenodd" d="M22 17.0181L29.5 17.0181C30.6928 17.0181 32 16.7341 32 18.4181V39.4181V61.0181C32 62.702 30.6928 63.0181 29.5 63.0181H22V19.0181C22 17.3341 22 18.0499 22 17.0181ZM22 61.0181H30V19.0181H22L22 61.0181Z" fill="white"/>
<path fill-rule="evenodd" clip-rule="evenodd" d="M29 17.0181L21.5 17.0181C20.3072 17.0181 19 16.7341 19 18.4181V39.4181V61.0181C19 62.702 20.3072 63.0181 21.5 63.0181H29V19.0181C29 17.3341 29 18.0499 29 17.0181ZM29 61.0181H21V19.0181H29L29 61.0181Z" fill="white"/>
<path fill-rule="evenodd" clip-rule="evenodd" d="M36 35.968C36 37.0397 36.8768 37.9166 37.9485 37.9166C39.0202 37.9166 39.897 37.0397 39.897 35.968C39.897 34.8964 39.0202 34.0195 37.9485 34.0195C36.8768 34.0195 36 34.8964 36 35.968Z" fill="white"/>
<path fill-rule="evenodd" clip-rule="evenodd" d="M43.7939 35.968C43.7939 37.0397 44.6708 37.9166 45.7425 37.9166C46.8141 37.9166 47.691 37.0397 47.691 35.968C47.691 34.8964 46.8141 34.0195 45.7425 34.0195C44.6708 34.0195 43.7939 34.8964 43.7939 35.968Z" fill="white"/>
<path fill-rule="evenodd" clip-rule="evenodd" d="M51.5879 35.968C51.5879 37.0397 52.4647 37.9166 53.5364 37.9166C54.6081 37.9166 55.4849 37.0397 55.4849 35.968C55.4849 34.8964 54.6081 34.0195 53.5364 34.0195C52.4647 34.0195 51.5879 34.8964 51.5879 35.968Z" fill="white"/>
<path fill-rule="evenodd" clip-rule="evenodd" d="M36 43.761C36 44.8327 36.8768 45.7095 37.9485 45.7095C39.0202 45.7095 39.897 44.8327 39.897 43.761C39.897 42.6893 39.0202 41.8125 37.9485 41.8125C36.8768 41.8125 36 42.6893 36 43.761Z" fill="white"/>
<path fill-rule="evenodd" clip-rule="evenodd" d="M43.7939 43.761C43.7939 44.8327 44.6708 45.7095 45.7425 45.7095C46.8141 45.7095 47.691 44.8327 47.691 43.761C47.691 42.6893 46.8141 41.8125 45.7425 41.8125C44.6708 41.8125 43.7939 42.6893 43.7939 43.761Z" fill="white"/>
<path fill-rule="evenodd" clip-rule="evenodd" d="M51.5879 43.761C51.5879 44.8327 52.4647 45.7095 53.5364 45.7095C54.6081 45.7095 55.4849 44.8327 55.4849 43.761C55.4849 42.6893 54.6081 41.8125 53.5364 41.8125C52.4647 41.8125 51.5879 42.6893 51.5879 43.761Z" fill="white"/>
<path fill-rule="evenodd" clip-rule="evenodd" d="M36 51.554C36 52.6257 36.8768 53.5025 37.9485 53.5025C39.0202 53.5025 39.897 52.6257 39.897 51.554C39.897 50.4823 39.0202 49.6055 37.9485 49.6055C36.8768 49.6055 36 50.4823 36 51.554Z" fill="white"/>
<path fill-rule="evenodd" clip-rule="evenodd" d="M43.7939 51.554C43.7939 52.6257 44.6708 53.5025 45.7425 53.5025C46.8141 53.5025 47.691 52.6257 47.691 51.554C47.691 50.4823 46.8141 49.6055 45.7425 49.6055C44.6708 49.6055 43.7939 50.4823 43.7939 51.554Z" fill="white"/>
<path fill-rule="evenodd" clip-rule="evenodd" d="M51.5879 51.554C51.5879 52.6257 52.4647 53.5025 53.5364 53.5025C54.6081 53.5025 55.4849 52.6257 55.4849 51.554C55.4849 50.4823 54.6081 49.6055 53.5364 49.6055C52.4647 49.6055 51.5879 50.4823 51.5879 51.554Z" fill="white"/>
<path d="M36 31.0195V26.5195H55.5V31.0195H36Z" fill="white"/>
</svg>
