<svg width="42" height="42" viewBox="0 0 42 42" fill="none" xmlns="http://www.w3.org/2000/svg">
<circle cx="21" cy="21" r="20" stroke="#E3E8EC"/>
<path fill-rule="evenodd" clip-rule="evenodd" d="M9.83984 8.83984H31.8398C32.3898 8.83984 32.8398 9.28984 32.8398 9.83984V31.8398C32.8398 32.3898 32.3898 32.8398 31.8398 32.8398H9.83984C9.28984 32.8398 8.83984 32.3898 8.83984 31.8398V9.83984C8.83984 9.28984 9.28984 8.83984 9.83984 8.83984ZM31.8398 31.8398V9.83984H9.83984V31.8398H31.8398Z" fill="#101828"/>
<path fill-rule="evenodd" clip-rule="evenodd" d="M20.8603 14.0383C21.4603 14.6783 22.2703 15.0283 23.1303 15.0283C23.2503 15.0283 23.3703 15.0183 23.4803 15.0083C24.8203 14.8583 25.9203 13.8483 26.1703 12.5383C26.3603 11.5183 26.0503 10.4783 25.3203 9.74834C24.5903 9.01834 23.5503 8.69834 22.5303 8.89834C21.3103 9.13834 20.3303 10.1183 20.1003 11.3383C19.9203 12.3283 20.2003 13.3083 20.8603 14.0383ZM22.7203 9.88834C22.8603 9.85834 23.0003 9.84834 23.1403 9.84834C23.6903 9.84834 24.2203 10.0583 24.6103 10.4683C25.1103 10.9583 25.3103 11.6483 25.1803 12.3583C25.0203 13.2183 24.2603 13.9183 23.3703 14.0183C22.7003 14.0883 22.0603 13.8483 21.6003 13.3583C21.1503 12.8683 20.9603 12.1983 21.0903 11.5283C21.2403 10.7183 21.9103 10.0383 22.7203 9.88834Z" fill="#101828"/>
<path fill-rule="evenodd" clip-rule="evenodd" d="M23.0896 32.4613C23.4196 32.7013 23.8096 32.8312 24.2096 32.8312C24.3096 32.8312 24.4096 32.8213 24.5096 32.8113C25.0096 32.7313 25.4596 32.4513 25.7496 32.0413C26.0396 31.6313 26.1596 31.1213 26.0796 30.6213L25.1796 25.3313C25.0796 24.6213 24.7496 23.9612 24.2296 23.4712L21.7096 21.0712L22.6796 19.0512L22.9796 19.5613C23.4296 20.3413 24.2696 20.8313 25.1696 20.8313H28.8796C29.6596 20.8313 30.3096 20.1912 30.3196 19.4012C30.3196 19.0113 30.1696 18.6513 29.8996 18.3713C29.6296 18.0912 29.2696 17.9413 28.8796 17.9413H25.8396C25.5996 17.9413 25.3796 17.8012 25.2596 17.5812L24.0396 15.0512C23.7396 14.4312 23.1096 14.0312 22.4196 14.0312H16.4796C14.9396 14.0312 13.5196 14.8112 12.7096 16.1312L11.6096 17.9113C11.2996 18.4113 11.2796 19.0212 11.5696 19.5312C11.8596 20.0413 12.3796 20.3513 12.9696 20.3513C13.4996 20.3513 13.9896 20.0813 14.2696 19.6413L15.5096 17.7113C15.8096 17.2413 16.3196 16.9613 16.8696 16.9613H17.7096L15.2896 20.7213C14.3496 22.3713 14.4196 24.6213 14.4496 25.1613H10.7396C10.0796 25.1613 9.47957 25.5013 9.11957 26.0513C8.77957 26.5713 8.75957 27.2212 9.05957 27.7712C9.35957 28.3212 9.90957 28.6512 10.5396 28.6512H15.8596C16.7196 28.6512 17.4696 28.0712 17.6796 27.2312L18.6096 23.5013L21.4996 25.7712L22.3296 31.2013C22.4096 31.7113 22.6796 32.1613 23.0896 32.4613ZM23.3196 31.0613L22.4796 25.5612C22.4496 25.3512 22.3396 25.1713 22.1896 25.0413L19.2896 22.7512C19.1096 22.4913 18.8096 22.3413 18.4796 22.3713C18.0996 22.4113 17.7996 22.6613 17.7096 23.0312L16.7196 26.9913C16.6196 27.3813 16.2696 27.6512 15.8696 27.6512H10.5496C10.2896 27.6512 10.0596 27.5113 9.93957 27.2913C9.80957 27.0613 9.81957 26.8013 9.95957 26.5813C10.1296 26.3112 10.4196 26.1512 10.7396 26.1512H14.5796C15.0696 26.1512 15.4496 25.7812 15.4596 25.2413C15.4596 25.24 15.4592 25.2344 15.4586 25.2248C15.4446 25.0079 15.2973 22.7252 16.1496 21.2312L19.0496 16.7313C19.1496 16.5812 19.1596 16.3813 19.0696 16.2213C18.9796 16.0612 18.8096 15.9613 18.6296 15.9613H16.8696C15.9796 15.9613 15.1496 16.4113 14.6696 17.1713L13.4296 19.1112C13.2096 19.4513 12.6496 19.4012 12.4496 19.0512C12.3396 18.8513 12.3496 18.6312 12.4696 18.4412L13.5696 16.6613C14.1996 15.6413 15.2896 15.0312 16.4896 15.0312H22.4296C22.7396 15.0312 23.0196 15.2112 23.1496 15.4813L24.3696 18.0213C24.6396 18.5813 25.2196 18.9412 25.8396 18.9412H28.8796C28.9896 18.9412 29.1096 18.9913 29.1896 19.0712C29.2796 19.1613 29.3196 19.2713 29.3196 19.3913C29.3196 19.6312 29.1196 19.8313 28.8796 19.8313H25.1696C24.6296 19.8313 24.1196 19.5312 23.8496 19.0512L23.0696 17.7413C22.9696 17.5812 22.7996 17.4813 22.6096 17.4913C22.4196 17.5013 22.2596 17.6012 22.1796 17.7713L20.6496 20.9612C20.5596 21.1612 20.5996 21.3913 20.7596 21.5413L23.5496 24.2013C23.8996 24.5413 24.1296 24.9913 24.1996 25.4913L25.0996 30.7913C25.1396 31.0312 25.0796 31.2612 24.9396 31.4613C24.7996 31.6513 24.5896 31.7812 24.3496 31.8213C24.1096 31.8613 23.8696 31.8012 23.6796 31.6612C23.4796 31.5112 23.3596 31.3013 23.3196 31.0613Z" fill="#101828"/>
</svg>
