<?xml version="1.0" encoding="UTF-8"?>
<svg width="80px" height="80px" viewBox="0 0 80 80" version="1.1" xmlns="http://www.w3.org/2000/svg" xmlns:xlink="http://www.w3.org/1999/xlink">
    <!-- Generator: Sketch 64 (93537) - https://sketch.com -->
    <title>273-B80px</title>
    <desc>Created with Sketch.</desc>
    <g id="273-B80px" stroke="none" stroke-width="1" fill="none" fill-rule="evenodd">
        <g>
            <g id="Group" transform="translate(27.500000, 60.000000)" fill="#101828" fill-rule="nonzero">
                <rect id="Rectangle" x="0" y="0" width="2.5" height="7.5"></rect>
                <rect id="Rectangle" x="7.5" y="0" width="2.5" height="7.5"></rect>
                <rect id="Rectangle" x="15" y="0" width="2.5" height="7.5"></rect>
                <rect id="Rectangle" x="22.5" y="0" width="2.5" height="7.5"></rect>
            </g>
            <g id="Group" transform="translate(27.500000, 12.500000)" fill="#101828" fill-rule="nonzero">
                <rect id="Rectangle" x="0" y="0" width="2.5" height="7.5"></rect>
                <rect id="Rectangle" x="7.5" y="0" width="2.5" height="7.5"></rect>
                <rect id="Rectangle" x="15" y="0" width="2.5" height="7.5"></rect>
                <rect id="Rectangle" x="22.5" y="0" width="2.5" height="7.5"></rect>
            </g>
            <g id="Group" transform="translate(60.000000, 27.500000)" fill="#101828" fill-rule="nonzero">
                <rect id="Rectangle" x="0" y="0" width="7.5" height="2.5"></rect>
                <rect id="Rectangle" x="0" y="7.5" width="7.5" height="2.5"></rect>
                <rect id="Rectangle" x="0" y="15" width="7.5" height="2.5"></rect>
                <rect id="Rectangle" x="0" y="22.5" width="7.5" height="2.5"></rect>
            </g>
            <g id="Group" transform="translate(12.500000, 27.500000)" fill="#101828" fill-rule="nonzero">
                <rect id="Rectangle" x="0" y="0" width="7.5" height="2.5"></rect>
                <rect id="Rectangle" x="0" y="7.5" width="7.5" height="2.5"></rect>
                <rect id="Rectangle" x="0" y="15" width="7.5" height="2.5"></rect>
                <rect id="Rectangle" x="0" y="22.5" width="7.5" height="2.5"></rect>
            </g>
            <path d="M57.5,20 L22.5,20 C21.125,20 20,21.125 20,22.5 L20,57.5 C20,58.875 21.125,60 22.5,60 L57.5,60 C58.875,60 60,58.875 60,57.5 L60,22.5 C60,21.125 58.875,20 57.5,20 Z M57.5,57.5 L22.5,57.5 L22.5,22.5 L57.5,22.5 L57.5,57.5 Z" id="Shape" fill="#101828" fill-rule="nonzero"></path>
            <path d="M57.5,20 L22.5,20 C21.125,20 20,21.125 20,22.5 L20,57.5 C20,58.875 21.125,60 22.5,60 L57.5,60 C58.875,60 60,58.875 60,57.5 L60,22.5 C60,21.125 58.875,20 57.5,20 Z M57.5,57.5 L22.5,57.5 L22.5,22.5 L57.5,22.5 L57.5,57.5 Z" id="Shape" fill="#101828" fill-rule="nonzero"></path>
            <path d="M50,27.5 L30,27.5 C28.625,27.5 27.5,28.625 27.5,30 L27.5,50 C27.5,51.375 28.625,52.5 30,52.5 L50,52.5 C51.375,52.5 52.5,51.375 52.5,50 L52.5,30 C52.5,28.625 51.375,27.5 50,27.5 Z M50,50 L30,50 L30,30 L50,30 L50,50 Z" id="Shape" fill="#101828" fill-rule="nonzero"></path>
            <rect id="Rectangle" x="0" y="0" width="80" height="80"></rect>
        </g>
    </g>
</svg>