<svg width="80" height="80" viewBox="0 0 80 80" fill="none" xmlns="http://www.w3.org/2000/svg">
<circle cx="40" cy="40" r="40" fill="#FF4F12"/>
<path fill-rule="evenodd" clip-rule="evenodd" d="M20.4697 18.7188H58.9697C59.9322 18.7188 60.7197 19.5063 60.7197 20.4688V58.9688C60.7197 59.9313 59.9322 60.7188 58.9697 60.7188H20.4697C19.5072 60.7188 18.7197 59.9313 18.7197 58.9688V20.4688C18.7197 19.5063 19.5072 18.7188 20.4697 18.7188ZM58.9697 58.9688V20.4688H20.4697V58.9688H58.9697Z" fill="white"/>
<path fill-rule="evenodd" clip-rule="evenodd" d="M39.7546 27.82C40.8046 28.94 42.2221 29.5525 43.7271 29.5525C43.9371 29.5525 44.1471 29.535 44.3396 29.5175C46.6846 29.255 48.6096 27.4875 49.0471 25.195C49.3796 23.41 48.8371 21.59 47.5596 20.3125C46.2821 19.035 44.4621 18.475 42.6771 18.825C40.5421 19.245 38.8271 20.96 38.4246 23.095C38.1096 24.8275 38.5996 26.5425 39.7546 27.82ZM43.0096 20.5575C43.2546 20.505 43.4996 20.4875 43.7446 20.4875C44.7071 20.4875 45.6346 20.855 46.3171 21.5725C47.1921 22.43 47.5421 23.6375 47.3146 24.88C47.0346 26.385 45.7046 27.61 44.1471 27.785C42.9746 27.9075 41.8546 27.4875 41.0496 26.63C40.2621 25.7725 39.9296 24.6 40.1571 23.4275C40.4196 22.01 41.5921 20.82 43.0096 20.5575Z" fill="white"/>
<path fill-rule="evenodd" clip-rule="evenodd" d="M43.658 60.0533C44.2355 60.4733 44.918 60.7008 45.618 60.7008C45.793 60.7008 45.968 60.6833 46.143 60.6658C47.018 60.5258 47.8055 60.0358 48.313 59.3183C48.8205 58.6008 49.0305 57.7083 48.8905 56.8333L47.3155 47.5758C47.1405 46.3333 46.563 45.1783 45.653 44.3208L41.243 40.1208L42.9405 36.5858L43.4655 37.4783C44.253 38.8433 45.723 39.7008 47.298 39.7008H53.7905C55.1555 39.7008 56.293 38.5808 56.3105 37.1983C56.3105 36.5158 56.048 35.8858 55.5755 35.3958C55.103 34.9058 54.473 34.6433 53.7905 34.6433H48.4705C48.0505 34.6433 47.6655 34.3983 47.4555 34.0133L45.3205 29.5858C44.7955 28.5008 43.693 27.8008 42.4855 27.8008H32.0905C29.3955 27.8008 26.9105 29.1658 25.493 31.4758L23.568 34.5908C23.0255 35.4658 22.9905 36.5333 23.498 37.4258C24.0055 38.3183 24.9155 38.8608 25.948 38.8608C26.8755 38.8608 27.733 38.3883 28.223 37.6183L30.393 34.2408C30.918 33.4183 31.8105 32.9283 32.773 32.9283H34.243L30.008 39.5083C28.363 42.3958 28.4855 46.3333 28.538 47.2783H22.0455C20.8905 47.2783 19.8405 47.8733 19.2105 48.8358C18.6155 49.7458 18.5805 50.8833 19.1055 51.8458C19.6305 52.8083 20.593 53.3858 21.6955 53.3858H31.0055C32.5105 53.3858 33.823 52.3708 34.1905 50.9008L35.818 44.3733L40.8755 48.3458L42.328 57.8483C42.468 58.7408 42.9405 59.5283 43.658 60.0533ZM44.0605 57.6033L42.5905 47.9783C42.538 47.6108 42.3455 47.2958 42.083 47.0683L37.008 43.0608C36.693 42.6058 36.168 42.3433 35.5905 42.3958C34.9255 42.4658 34.4005 42.9033 34.243 43.5508L32.5105 50.4808C32.3355 51.1633 31.723 51.6358 31.023 51.6358H21.713C21.258 51.6358 20.8555 51.3908 20.6455 51.0058C20.418 50.6033 20.4355 50.1483 20.6805 49.7633C20.978 49.2908 21.4855 49.0108 22.0455 49.0108H28.7655C29.623 49.0108 30.288 48.3633 30.3055 47.4183C30.3055 47.4161 30.3048 47.4063 30.3038 47.3896C30.2793 47.0099 30.0214 43.0152 31.513 40.4008L36.588 32.5258C36.763 32.2633 36.7805 31.9133 36.623 31.6333C36.4655 31.3533 36.168 31.1783 35.853 31.1783H32.773C31.2155 31.1783 29.763 31.9658 28.923 33.2958L26.753 36.6908C26.368 37.2858 25.388 37.1983 25.038 36.5858C24.8455 36.2358 24.863 35.8508 25.073 35.5183L26.998 32.4033C28.1005 30.6183 30.008 29.5508 32.108 29.5508H42.503C43.0455 29.5508 43.5355 29.8658 43.763 30.3383L45.898 34.7833C46.3705 35.7633 47.3855 36.3933 48.4705 36.3933H53.7905C53.983 36.3933 54.193 36.4808 54.333 36.6208C54.4905 36.7783 54.5605 36.9708 54.5605 37.1808C54.5605 37.6008 54.2105 37.9508 53.7905 37.9508H47.298C46.353 37.9508 45.4605 37.4258 44.988 36.5858L43.623 34.2933C43.448 34.0133 43.1505 33.8383 42.818 33.8558C42.4855 33.8733 42.2055 34.0483 42.0655 34.3458L39.388 39.9283C39.2305 40.2783 39.3005 40.6808 39.5805 40.9433L44.463 45.5983C45.0755 46.1933 45.478 46.9808 45.6005 47.8558L47.1755 57.1308C47.2455 57.5508 47.1405 57.9533 46.8955 58.3033C46.6505 58.6358 46.283 58.8633 45.863 58.9333C45.443 59.0033 45.023 58.8983 44.6905 58.6533C44.3405 58.3908 44.1305 58.0233 44.0605 57.6033Z" fill="white"/>
</svg>
