<svg width="56" height="56" viewBox="0 0 56 56" fill="none" xmlns="http://www.w3.org/2000/svg">
<path d="M28 8.75C31.8073 8.75 35.5291 9.87899 38.6947 11.9942C41.8604 14.1094 44.3277 17.1159 45.7847 20.6333C47.2417 24.1508 47.6229 28.0214 46.8801 31.7555C46.1374 35.4896 44.304 38.9196 41.6118 41.6118C38.9197 44.304 35.4896 46.1373 31.7555 46.8801C28.0214 47.6229 24.1508 47.2417 20.6334 45.7847C17.1159 44.3277 14.1094 41.8604 11.9942 38.6947C9.879 35.5291 8.75001 31.8073 8.75001 28C8.75794 22.897 10.7886 18.0053 14.397 14.397C18.0053 10.7886 22.897 8.75793 28 8.75ZM28 7C23.8466 7 19.7865 8.23163 16.333 10.5391C12.8796 12.8466 10.188 16.1264 8.59854 19.9636C7.0091 23.8009 6.59323 28.0233 7.40352 32.0969C8.21381 36.1705 10.2139 39.9123 13.1508 42.8492C16.0877 45.7861 19.8295 47.7862 23.9031 48.5965C27.9767 49.4068 32.1991 48.9909 36.0364 47.4015C39.8736 45.812 43.1534 43.1204 45.4609 39.667C47.7684 36.2135 49 32.1534 49 28C49 22.4305 46.7875 17.089 42.8493 13.1508C38.911 9.21249 33.5696 7 28 7Z" fill="black"/>
<path d="M27.9998 16.9883L31.3198 23.7083L38.7398 24.7883L33.3698 30.0183L34.6398 37.4083L27.9998 33.9183L21.3598 37.4083L22.6298 30.0183L17.2598 24.7883L24.6798 23.7083L27.9998 16.9883Z" fill="black"/>
<path d="M42 28H43.75C43.75 23.8228 42.0906 19.8168 39.1369 16.8631C36.1832 13.9094 32.1772 12.25 28 12.25V14C31.713 14 35.274 15.475 37.8995 18.1005C40.525 20.726 42 24.287 42 28Z" fill="black"/>
<path d="M28 42C24.287 42 20.726 40.525 18.1005 37.8995C15.475 35.274 14 31.713 14 28H12.25C12.25 32.1772 13.9094 36.1832 16.8631 39.1369C19.8168 42.0906 23.8228 43.75 28 43.75V42Z" fill="black"/>
</svg>
