<svg width="80" height="80" viewBox="0 0 80 80" fill="none" xmlns="http://www.w3.org/2000/svg">
<path fill-rule="evenodd" clip-rule="evenodd" d="M40 80C62.0914 80 80 62.0914 80 40C80 17.9086 62.0914 0 40 0C17.9086 0 0 17.9086 0 40C0 62.0914 17.9086 80 40 80Z" fill="#FF4F12"/>
<path d="M40 20.75C43.8073 20.75 47.5291 21.879 50.6947 23.9942C53.8604 26.1094 56.3277 29.1159 57.7847 32.6333C59.2417 36.1508 59.6229 40.0214 58.8801 43.7555C58.1374 47.4896 56.304 50.9196 53.6118 53.6118C50.9197 56.304 47.4896 58.1373 43.7555 58.8801C40.0214 59.6229 36.1508 59.2417 32.6334 57.7847C29.1159 56.3277 26.1094 53.8604 23.9942 50.6947C21.879 47.5291 20.75 43.8073 20.75 40C20.7579 34.897 22.7886 30.0053 26.397 26.397C30.0053 22.7886 34.897 20.7579 40 20.75ZM40 19C35.8466 19 31.7865 20.2316 28.333 22.5391C24.8796 24.8466 22.188 28.1264 20.5985 31.9636C19.0091 35.8009 18.5932 40.0233 19.4035 44.0969C20.2138 48.1705 22.2139 51.9123 25.1508 54.8492C28.0877 57.7861 31.8295 59.7862 35.9031 60.5965C39.9767 61.4068 44.1991 60.9909 48.0364 59.4015C51.8736 57.812 55.1534 55.1204 57.4609 51.667C59.7684 48.2135 61 44.1534 61 40C61 34.4305 58.7875 29.089 54.8493 25.1508C50.911 21.2125 45.5696 19 40 19Z" fill="white"/>
<path d="M39.9998 28.9883L43.3198 35.7083L50.7398 36.7883L45.3698 42.0183L46.6398 49.4083L39.9998 45.9183L33.3598 49.4083L34.6298 42.0183L29.2598 36.7883L36.6798 35.7083L39.9998 28.9883Z" fill="white"/>
<path d="M54 40H55.75C55.75 35.8228 54.0906 31.8168 51.1369 28.8631C48.1832 25.9094 44.1772 24.25 40 24.25V26C43.713 26 47.274 27.475 49.8995 30.1005C52.525 32.726 54 36.287 54 40Z" fill="white"/>
<path d="M40 54C36.287 54 32.726 52.525 30.1005 49.8995C27.475 47.274 26 43.713 26 40H24.25C24.25 44.1772 25.9094 48.1832 28.8631 51.1369C31.8168 54.0906 35.8228 55.75 40 55.75V54Z" fill="white"/>
</svg>
