<svg width="80" height="80" viewBox="0 0 80 80" fill="none" xmlns="http://www.w3.org/2000/svg">
<circle cx="40" cy="40" r="40" fill="#E3E8EC"/>
<path d="M47.8927 34.75C47.1752 34.75 46.5977 35.345 46.5977 36.0625C46.5977 36.78 47.1752 37.375 47.8927 37.375C48.6102 37.375 49.1877 36.78 49.1877 36.0625C49.1877 35.345 48.5927 34.75 47.8927 34.75Z" fill="#101828"/>
<path d="M47.8927 30.375C47.1752 30.375 46.5977 30.97 46.5977 31.6875C46.5977 32.405 47.1752 33 47.8927 33C48.6102 33 49.1877 32.405 49.1877 31.6875C49.1877 30.97 48.5927 30.375 47.8927 30.375Z" fill="#101828"/>
<path d="M50.0625 32.5469C49.345 32.5469 48.75 33.1419 48.75 33.8769C48.75 34.6119 49.345 35.2069 50.0625 35.2069C50.78 35.2069 51.375 34.6119 51.375 33.8769C51.375 33.1419 50.78 32.5469 50.0625 32.5469Z" fill="#101828"/>
<path d="M45.7052 32.5625C44.9877 32.5625 44.4102 33.1575 44.4102 33.875C44.4102 34.61 44.9877 35.1875 45.7052 35.1875C46.4227 35.1875 47.0002 34.61 47.0002 33.875C47.0002 33.14 46.4227 32.5625 45.7052 32.5625Z" fill="#101828"/>
<path d="M57.1672 37.9L54.5597 25.6325C54.3847 24.8275 53.7022 24.25 52.8972 24.25H41.4522H39.1247V19H37.3747V24.25H35.0472H23.6022C22.7972 24.25 22.1147 24.8275 21.9572 25.6325L19.3322 37.9C18.8597 40.2625 18.7722 41.89 19.7872 44.1475C21.0297 46.93 24.0397 48.75 27.0497 48.75C27.1022 48.75 27.1372 48.75 27.1897 48.75C31.5472 48.6625 35.0647 45.04 35.0647 40.5775H41.4522C41.4522 41.96 41.8197 43.2375 42.4147 44.375C42.7997 43.885 43.2197 43.43 43.6747 43.01C43.3772 42.2575 43.2022 41.435 43.2022 40.5775V38.8275H41.4522H35.0647H33.3147V40.5775C33.3147 44.06 30.5497 46.93 27.1722 47H27.0497C24.6522 47 22.3247 45.53 21.3972 43.43C20.5922 41.61 20.6272 40.42 21.0647 38.2675L23.6022 26H35.0472H41.4697H52.8447L55.4522 38.25C55.6622 39.3 55.7672 40.105 55.7497 40.875C56.3447 41.12 56.9047 41.4175 57.4297 41.75C57.5872 40.5425 57.4472 39.37 57.1672 37.9Z" fill="#101828"/>
<path d="M32.0898 32.9997H29.4998V30.3047H27.7498V32.9997H25.0723V34.7497H27.7498V37.3222H29.4998V34.7497H32.0898V32.9997Z" fill="#101828"/>
<path fill-rule="evenodd" clip-rule="evenodd" d="M50.4225 40.8843L50.7906 40.875L51.194 40.8864C54.0596 41.0474 56.5679 42.8983 57.6778 45.6872L57.7625 45.901L58.3188 45.8624L58.5581 45.8567C60.3694 45.8567 62.089 46.6055 63.3798 47.9482C64.6698 49.3025 65.3751 51.0942 65.3751 53.0114C65.3615 56.9314 62.3019 60.125 58.5082 60.125L43.5496 60.0899C40.1128 60.0491 37.3616 57.1169 37.3751 53.5531C37.3891 50.1154 39.97 47.2621 43.2758 47.0712L43.5053 47.0578L43.5551 46.8359C44.3451 43.4547 47.1275 41.0517 50.4225 40.8843ZM50.8106 42.625L50.7906 42.625C48.1653 42.625 45.8969 44.5048 45.2615 47.2239L45.0706 48.0873C44.9856 48.4714 44.6547 48.7517 44.2618 48.7721L43.3718 48.8185C41.0122 48.9548 39.1354 51.0297 39.1251 53.56C39.1152 56.1808 41.1138 58.3109 43.56 58.34L44.7315 58.34L58.5104 58.375C61.3192 58.375 63.6148 55.9789 63.6251 53.0083C63.6251 51.5402 63.0903 50.1816 62.1154 49.1581C61.1539 48.1579 59.8881 47.6067 58.5581 47.6067C58.4477 47.6067 58.3579 47.6116 58.148 47.6274L57.2542 47.6973C56.871 47.7273 56.5131 47.5037 56.372 47.1461L56.0509 46.3319C55.1537 44.0777 53.1062 42.6351 50.8106 42.625Z" fill="#101828"/>
</svg>
