<svg width="80" height="80" viewBox="0 0 80 80" fill="none" xmlns="http://www.w3.org/2000/svg">
<path d="M33.75 30C37.2018 30 40 27.2018 40 23.75C40 20.2982 37.2018 17.5 33.75 17.5C30.2982 17.5 27.5 20.2982 27.5 23.75C27.5 27.2018 30.2982 30 33.75 30ZM33.75 27.5C31.6789 27.5 30 25.8211 30 23.75C30 21.6789 31.6789 20 33.75 20C35.8211 20 37.5 21.6789 37.5 23.75C37.5 25.8211 35.8211 27.5 33.75 27.5Z" fill="#101828"/>
<path d="M47.5 30C50.2614 30 52.5 27.7614 52.5 25C52.5 22.2386 50.2614 20 47.5 20C44.7386 20 42.5 22.2386 42.5 25C42.5 27.7614 44.7386 30 47.5 30ZM47.5 27.5C46.1193 27.5 45 26.3807 45 25C45 23.6193 46.1193 22.5 47.5 22.5C48.8807 22.5 50 23.6193 50 25C50 26.3807 48.8807 27.5 47.5 27.5Z" fill="#101828"/>
<path d="M60 30C62.7614 30 65 27.7614 65 25C65 22.2386 62.7614 20 60 20C57.2386 20 55 22.2386 55 25C55 27.7614 57.2386 30 60 30ZM60 27.5C58.6193 27.5 57.5 26.3807 57.5 25C57.5 23.6193 58.6193 22.5 60 22.5C61.3807 22.5 62.5 23.6193 62.5 25C62.5 26.3807 61.3807 27.5 60 27.5Z" fill="#101828"/>
<path d="M20 30C22.7614 30 25 27.7614 25 25C25 22.2386 22.7614 20 20 20C17.2386 20 15 22.2386 15 25C15 27.7614 17.2386 30 20 30ZM20 27.5C18.6193 27.5 17.5 26.3807 17.5 25C17.5 23.6193 18.6193 22.5 20 22.5C21.3807 22.5 22.5 23.6193 22.5 25C22.5 26.3807 21.3807 27.5 20 27.5Z" fill="#101828"/>
<path d="M54.9996 40H52.4996V37.5C52.4996 36.1193 51.3803 35 49.9996 35H44.5728C44.2436 34.0684 43.7355 33.2214 43.0898 32.5H49.9996C52.761 32.5 54.9996 34.7386 54.9996 37.5V40Z" fill="#101828"/>
<path d="M55.5898 32.5H62.4996C65.261 32.5 67.4996 34.7386 67.4996 37.5V42.5H64.9996V37.5C64.9996 36.1193 63.8803 35 62.4996 35H57.0728C56.7435 34.0684 56.2355 33.2214 55.5898 32.5Z" fill="#101828"/>
<path d="M24.4097 32.5C23.7641 33.2214 23.256 34.0684 22.9267 35H17.5C16.1193 35 15 36.1193 15 37.5V42.5H12.5V37.5C12.5 34.7386 14.7386 32.5 17.5 32.5H24.4097Z" fill="#101828"/>
<path d="M25 40V37.5C25 34.7386 27.2386 32.5 30 32.5H37.5C40.2614 32.5 42.5 34.7386 42.5 37.5V40H40V37.5C40 36.1193 38.8807 35 37.5 35H30C28.6193 35 27.5 36.1193 27.5 37.5V40H25Z" fill="#101828"/>
<path d="M20 65V45H60V65H62.5V45C62.5 43.6193 61.3807 42.5 60 42.5H20C18.6193 42.5 17.5 43.6193 17.5 45V65H20Z" fill="#101828"/>
</svg>
