<svg width="56" height="56" viewBox="0 0 56 56" fill="none" xmlns="http://www.w3.org/2000/svg">
<path fill-rule="evenodd" clip-rule="evenodd" d="M28 56C43.464 56 56 43.464 56 28C56 12.536 43.464 0 28 0C12.536 0 0 12.536 0 28C0 43.464 12.536 56 28 56Z" fill="#E3E8EC"/>
<path fill-rule="evenodd" clip-rule="evenodd" d="M20.8574 13.7305H41.125C41.9732 13.7305 43.0003 14.1567 43.0003 15.159V27.659V40.5162C43.0003 41.5185 41.9732 42.2756 41.125 42.2756H20.8574C20.0093 42.2756 21.1075 42.2756 20.8574 42.2756L20.8574 15.159C20.8574 14.1567 20.8574 14.3447 20.8574 13.7305ZM20.8574 40.942L41.5717 40.8733V15.159H20.8574V40.942Z" fill="#101828"/>
<path fill-rule="evenodd" clip-rule="evenodd" d="M15.1426 11.5871L20.4997 11.5871C21.3517 11.5871 22.2854 11.3843 22.2854 12.5871V27.5871V43.0157C22.2854 44.2185 21.3517 44.4443 20.4997 44.4443H15.1426V13.0157C15.1426 11.8129 15.1426 12.3241 15.1426 11.5871ZM15.1426 43.0157H20.8569V13.0157H15.1426L15.1426 43.0157Z" fill="#101828"/>
<path fill-rule="evenodd" clip-rule="evenodd" d="M20.1426 11.5871L14.7854 11.5871C13.9334 11.5871 12.9997 11.3843 12.9997 12.5871V27.5871V43.0157C12.9997 44.2185 13.9334 44.4443 14.7854 44.4443H20.1426V13.0157C20.1426 11.8129 20.1426 12.3241 20.1426 11.5871ZM20.1426 43.0157H14.4283V13.0157H20.1426L20.1426 43.0157Z" fill="#101828"/>
<path fill-rule="evenodd" clip-rule="evenodd" d="M25.1426 25.1223C25.1426 25.8877 25.7689 26.5141 26.5344 26.5141C27.2999 26.5141 27.9262 25.8877 27.9262 25.1223C27.9262 24.3568 27.2999 23.7305 26.5344 23.7305C25.7689 23.7305 25.1426 24.3568 25.1426 25.1223Z" fill="#101828"/>
<path fill-rule="evenodd" clip-rule="evenodd" d="M30.71 25.1223C30.71 25.8877 31.3363 26.5141 32.1018 26.5141C32.8672 26.5141 33.4935 25.8877 33.4935 25.1223C33.4935 24.3568 32.8672 23.7305 32.1018 23.7305C31.3363 23.7305 30.71 24.3568 30.71 25.1223Z" fill="#101828"/>
<path fill-rule="evenodd" clip-rule="evenodd" d="M36.2773 25.1223C36.2773 25.8877 36.9037 26.5141 37.6691 26.5141C38.4346 26.5141 39.0609 25.8877 39.0609 25.1223C39.0609 24.3568 38.4346 23.7305 37.6691 23.7305C36.9037 23.7305 36.2773 24.3568 36.2773 25.1223Z" fill="#101828"/>
<path fill-rule="evenodd" clip-rule="evenodd" d="M25.1426 30.6887C25.1426 31.4542 25.7689 32.0805 26.5344 32.0805C27.2999 32.0805 27.9262 31.4542 27.9262 30.6887C27.9262 29.9232 27.2999 29.2969 26.5344 29.2969C25.7689 29.2969 25.1426 29.9232 25.1426 30.6887Z" fill="#101828"/>
<path fill-rule="evenodd" clip-rule="evenodd" d="M30.71 30.6887C30.71 31.4542 31.3363 32.0805 32.1018 32.0805C32.8672 32.0805 33.4935 31.4542 33.4935 30.6887C33.4935 29.9232 32.8672 29.2969 32.1018 29.2969C31.3363 29.2969 30.71 29.9232 30.71 30.6887Z" fill="#101828"/>
<path fill-rule="evenodd" clip-rule="evenodd" d="M36.2773 30.6887C36.2773 31.4542 36.9037 32.0805 37.6691 32.0805C38.4346 32.0805 39.0609 31.4542 39.0609 30.6887C39.0609 29.9232 38.4346 29.2969 37.6691 29.2969C36.9037 29.2969 36.2773 29.9232 36.2773 30.6887Z" fill="#101828"/>
<path fill-rule="evenodd" clip-rule="evenodd" d="M25.1426 36.2551C25.1426 37.0206 25.7689 37.6469 26.5344 37.6469C27.2999 37.6469 27.9262 37.0206 27.9262 36.2551C27.9262 35.4896 27.2999 34.8633 26.5344 34.8633C25.7689 34.8633 25.1426 35.4896 25.1426 36.2551Z" fill="#101828"/>
<path fill-rule="evenodd" clip-rule="evenodd" d="M30.71 36.2551C30.71 37.0206 31.3363 37.6469 32.1018 37.6469C32.8672 37.6469 33.4935 37.0206 33.4935 36.2551C33.4935 35.4896 32.8672 34.8633 32.1018 34.8633C31.3363 34.8633 30.71 35.4896 30.71 36.2551Z" fill="#101828"/>
<path fill-rule="evenodd" clip-rule="evenodd" d="M36.2773 36.2551C36.2773 37.0206 36.9037 37.6469 37.6691 37.6469C38.4346 37.6469 39.0609 37.0206 39.0609 36.2551C39.0609 35.4896 38.4346 34.8633 37.6691 34.8633C36.9037 34.8633 36.2773 35.4896 36.2773 36.2551Z" fill="#101828"/>
<path d="M25.1426 21.5898V18.3756H39.0711V21.5898H25.1426Z" fill="#101828"/>
</svg>
