<?xml version="1.0" encoding="UTF-8"?>
<svg width="56px" height="56px" viewBox="0 0 56 56" version="1.1" xmlns="http://www.w3.org/2000/svg" xmlns:xlink="http://www.w3.org/1999/xlink">
    <!-- Generator: Sketch 64 (93537) - https://sketch.com -->
    <title>274-G56px</title>
    <desc>Created with Sketch.</desc>
    <g id="NEW_icons" stroke="none" stroke-width="1" fill="none" fill-rule="evenodd">
        <g id="icons_UD_new-Copy" transform="translate(-616.000000, -34904.000000)">
            <g id="274-G56px" transform="translate(616.000000, 34904.000000)">
                <circle id="Oval-Copy-1724" fill="#E3E8EC" cx="28" cy="28" r="28"></circle>
                <g id="274-B32px-Copy-7" transform="translate(8.000000, 8.000000)">
                    <path d="M20,5 C16.55,5 13.75,7.8 13.75,11.25 L13.75,18.75 C13.75,22.2 16.55,25 20,25 C23.45,25 26.25,22.2 26.25,18.75 L26.25,11.25 C26.25,7.8 23.45,5 20,5 Z M25,18.75 C25,21.5125 22.7625,23.75 20,23.75 C17.2375,23.75 15,21.5125 15,18.75 L15,11.25 C15,8.4875 17.2375,6.25 20,6.25 C22.7625,6.25 25,8.4875 25,11.25 L25,18.75 Z" id="Shape" fill="#101828" fill-rule="nonzero"></path>
                    <g id="Group" transform="translate(10.000000, 18.750000)" fill="#101828" fill-rule="nonzero">
                        <path d="M10,8.75 C5.1625,8.75 1.25,4.8375 1.25,0 L0,0 C0,5.525 4.475,10 10,10 C15.525,10 20,5.525 20,0 L18.75,0 C18.75,4.8375 14.8375,8.75 10,8.75 Z" id="Path"></path>
                        <g transform="translate(6.250000, 10.000000)" id="Rectangle">
                            <rect x="3.125" y="0" width="1.25" height="5"></rect>
                            <rect x="0" y="5" width="7.5" height="1.25"></rect>
                        </g>
                    </g>
                    <rect id="Rectangle" x="0" y="0" width="40" height="40"></rect>
                </g>
            </g>
        </g>
    </g>
</svg>