<?xml version="1.0" encoding="UTF-8"?>
<svg width="56px" height="56px" viewBox="0 0 56 56" version="1.1" xmlns="http://www.w3.org/2000/svg" xmlns:xlink="http://www.w3.org/1999/xlink">
    <!-- Generator: Sketch 64 (93537) - https://sketch.com -->
    <title>278-W56px</title>
    <desc>Created with Sketch.</desc>
    <g id="NEW_icons" stroke="none" stroke-width="1" fill="none" fill-rule="evenodd">
        <g id="icons_UD_new-Copy" transform="translate(-702.000000, -35406.000000)">
            <g id="278-W56px" transform="translate(702.000000, 35406.000000)">
                <circle id="Oval-Copy-1748" fill="#101828" cx="28" cy="28" r="28"></circle>
                <g id="278-B32px-Copy-8" transform="translate(8.000000, 8.000000)">
                    <path d="M32.5,12.5 L32.5,32.5 L18.75,32.5 L18.75,12.5 L32.5,12.5 M32.5,11.25 L18.75,11.25 C18.0625,11.25 17.5,11.8125 17.5,12.5 L17.5,32.5 C17.5,33.1875 18.0625,33.75 18.75,33.75 L32.5,33.75 C33.1875,33.75 33.75,33.1875 33.75,32.5 L33.75,12.5 C33.75,11.8125 33.1875,11.25 32.5,11.25 L32.5,11.25 Z" id="Shape" fill="#FFFFFF" fill-rule="nonzero"></path>
                    <path d="M29.3375,21.5 C29.3125,21.45 29.2625,21.425 29.2125,21.425 L26.2875,21.425 L27.625,16.425 C27.6375,16.3625 27.6125,16.3 27.55,16.2625 C27.4875,16.2375 27.425,16.25 27.375,16.3 L21.5125,23.55 C21.475,23.5875 21.475,23.65 21.5,23.7 C21.525,23.75 21.575,23.775 21.625,23.775 L24.55,23.775 L23.2125,28.775 C23.2,28.8375 23.225,28.9 23.2875,28.9375 C23.3125,28.95 23.325,28.95 23.35,28.95 C23.3875,28.95 23.425,28.9375 23.4625,28.9 L29.325,21.65 C29.35,21.6125 29.3625,21.55 29.3375,21.5 Z" id="Path" fill="#FFFFFF" fill-rule="nonzero"></path>
                    <path d="M24.375,12.5 L20.625,12.5 C20.275,12.5 20,12.225 20,11.875 L20,9.375 C20,9.025 20.275,8.75 20.625,8.75 L24.375,8.75 C24.725,8.75 25,9.025 25,9.375 L25,11.875 C25,12.225 24.725,12.5 24.375,12.5 Z M21.25,11.25 L23.75,11.25 L23.75,10 L21.25,10 L21.25,11.25 Z" id="Shape" fill="#FFFFFF" fill-rule="nonzero"></path>
                    <path d="M11.875,31.25 L8.125,31.25 C7.775,31.25 7.5,30.975 7.5,30.625 L7.5,28.125 C7.5,27.775 7.775,27.5 8.125,27.5 L11.875,27.5 C12.225,27.5 12.5,27.775 12.5,28.125 L12.5,30.625 C12.5,30.975 12.225,31.25 11.875,31.25 Z M8.75,30 L11.25,30 L11.25,28.75 L8.75,28.75 L8.75,30 Z" id="Shape" fill="#FFFFFF" fill-rule="nonzero"></path>
                    <path d="M10.625,33.75 L9.375,33.75 C9.025,33.75 8.75,33.475 8.75,33.125 L8.75,30.625 C8.75,30.275 9.025,30 9.375,30 L10.625,30 C10.975,30 11.25,30.275 11.25,30.625 L11.25,33.125 C11.25,33.475 10.975,33.75 10.625,33.75 Z M10,32.5 L10,31.25 L10,32.5 Z" id="Shape" fill="#FFFFFF" fill-rule="nonzero"></path>
                    <path d="M10.625,28.125 L9.375,28.125 L9.375,7.5 C9.375,6.4625 10.2125,5.625 11.25,5.625 L21.25,5.625 C22.2875,5.625 23.125,6.4625 23.125,7.5 L23.125,9.375 L21.875,9.375 L21.875,7.5 C21.875,7.15 21.6,6.875 21.25,6.875 L11.25,6.875 C10.9,6.875 10.625,7.15 10.625,7.5 L10.625,28.125 Z" id="Path" fill="#FFFFFF" fill-rule="nonzero"></path>
                    <rect id="Rectangle" x="0" y="0" width="40" height="40"></rect>
                </g>
            </g>
        </g>
    </g>
</svg>