<svg width="42" height="42" viewBox="0 0 42 42" fill="none" xmlns="http://www.w3.org/2000/svg">
<path fill-rule="evenodd" clip-rule="evenodd" d="M21 41C32.0457 41 41 32.0457 41 21C41 9.9543 32.0457 1 21 1C9.9543 1 1 9.9543 1 21C1 32.0457 9.9543 41 21 41Z" stroke="#E3E8EC"/>
<path d="M32 16C32.2652 16 32.5196 16.1054 32.7071 16.2929C32.8946 16.4804 33 16.7348 33 17V26C33 26.2652 32.8946 26.5196 32.7071 26.7071C32.5196 26.8946 32.2652 27 32 27H25.41L24.85 26.44C24.569 26.1586 24.1877 26.0003 23.79 26H20.21C19.8123 26.0003 19.431 26.1586 19.15 26.44L18.59 27H12C11.7348 27 11.4804 26.8946 11.2929 26.7071C11.1054 26.5196 11 26.2652 11 26V17C11 16.7348 11.1054 16.4804 11.2929 16.2929C11.4804 16.1054 11.7348 16 12 16H32ZM32 15H12C11.4696 15 10.9609 15.2107 10.5858 15.5858C10.2107 15.9609 10 16.4696 10 17V26C10 26.5304 10.2107 27.0391 10.5858 27.4142C10.9609 27.7893 11.4696 28 12 28H18.59C18.8523 27.9989 19.1037 27.8947 19.29 27.71L19.85 27.15C19.8965 27.1017 19.9525 27.0634 20.0144 27.0376C20.0764 27.0118 20.1429 26.999 20.21 27H23.79C23.8571 26.999 23.9236 27.0118 23.9856 27.0376C24.0475 27.0634 24.1035 27.1017 24.15 27.15L24.71 27.71C24.8963 27.8947 25.1477 27.9989 25.41 28H32C32.5304 28 33.0391 27.7893 33.4142 27.4142C33.7893 27.0391 34 26.5304 34 26V17C34 16.4696 33.7893 15.9609 33.4142 15.5858C33.0391 15.2107 32.5304 15 32 15Z" fill="#101828"/>
<path d="M10 18V25H9V18H10ZM11 17H9C8.73478 17 8.48043 17.1054 8.29289 17.2929C8.10536 17.4804 8 17.7348 8 18V25C8 25.2652 8.10536 25.5196 8.29289 25.7071C8.48043 25.8946 8.73478 26 9 26H11V17Z" fill="#101828"/>
<path d="M35 18V25H34V18H35ZM35 17H33V26H35C35.2652 26 35.5196 25.8946 35.7071 25.7071C35.8946 25.5196 36 25.2652 36 25V18C36 17.7348 35.8946 17.4804 35.7071 17.2929C35.5196 17.1054 35.2652 17 35 17Z" fill="#101828"/>
<path fill-rule="evenodd" clip-rule="evenodd" d="M23.6868 24.9961V22.5661H24.6978L26.1484 24.9961H27.5L25.9725 22.4661C26.8297 22.1661 27.4121 21.6261 27.4121 20.6961C27.4121 19.6561 26.5659 18.9961 25.1813 18.9961H22.5V24.9961H23.6868ZM26.236 20.7766C26.236 21.2566 25.9063 21.5666 25.181 21.5666H23.6865V19.9866H25.181C25.9173 19.9866 26.236 20.2966 26.236 20.7766Z" fill="#101828"/>
<path d="M11.7139 19.7148H12.7253V21.7148H11.7139V19.7148Z" fill="#101828"/>
<path d="M11.7139 18.8555V20.3484C11.7139 20.6285 11.9409 20.8555 12.2209 20.8555C12.5009 20.8555 12.728 20.6285 12.728 20.3484V18.6329C12.728 18.2016 13.0776 17.8519 13.5089 17.8519H15.2156C15.4908 17.8519 15.7139 17.6289 15.7139 17.3537C15.7139 17.0785 15.4908 16.8555 15.2156 16.8555H13.7448H13.7139C12.6093 16.8555 11.7139 17.7509 11.7139 18.8555Z" fill="#101828"/>
<path d="M15.1426 16.8555H19.1426V17.8498H15.1426V16.8555Z" fill="#101828"/>
<path d="M17 19L18.875 25H20.125L22 19H20.75L19.5 23.188L18.25 19H17Z" fill="#101828"/>
</svg>
