<?xml version="1.0" encoding="UTF-8"?>
<svg width="42px" height="42px" viewBox="0 0 42 42" version="1.1" xmlns="http://www.w3.org/2000/svg" xmlns:xlink="http://www.w3.org/1999/xlink">
    <!-- Generator: Sketch 64 (93537) - https://sketch.com -->
    <title>274-G40px</title>
    <desc>Created with Sketch.</desc>
    <g id="NEW_icons" stroke="none" stroke-width="1" fill="none" fill-rule="evenodd">
        <g id="icons_UD_new-Copy" transform="translate(-321.000000, -34919.000000)">
            <g id="274-G40px" transform="translate(322.000000, 34920.000000)">
                <circle id="Oval-Copy-1701" stroke="#E3E8EC" cx="20" cy="20" r="20"></circle>
                <g id="274-B32px-Copy-6" transform="translate(4.000000, 4.000000)">
                    <path d="M16,4 C13.24,4 11,6.24 11,9 L11,15 C11,17.76 13.24,20 16,20 C18.76,20 21,17.76 21,15 L21,9 C21,6.24 18.76,4 16,4 Z M20,15 C20,17.21 18.21,19 16,19 C13.79,19 12,17.21 12,15 L12,9 C12,6.79 13.79,5 16,5 C18.21,5 20,6.79 20,9 L20,15 Z" id="Shape" fill="#101828" fill-rule="nonzero"></path>
                    <g id="Group" transform="translate(8.000000, 15.000000)" fill="#101828" fill-rule="nonzero">
                        <path d="M8,7 C4.13,7 1,3.87 1,0 L0,0 C0,4.42 3.58,8 8,8 C12.42,8 16,4.42 16,0 L15,0 C15,3.87 11.87,7 8,7 Z" id="Path"></path>
                        <g transform="translate(5.000000, 8.000000)" id="Rectangle">
                            <rect x="2.5" y="0" width="1" height="4"></rect>
                            <rect x="0" y="4" width="6" height="1"></rect>
                        </g>
                    </g>
                    <rect id="Rectangle" x="0" y="0" width="32" height="32"></rect>
                </g>
            </g>
        </g>
    </g>
</svg>