<svg width="40" height="40" viewBox="0 0 40 40" fill="none" xmlns="http://www.w3.org/2000/svg">
<path d="M16.875 15C18.6009 15 20 13.6009 20 11.875C20 10.1491 18.6009 8.75 16.875 8.75C15.1491 8.75 13.75 10.1491 13.75 11.875C13.75 13.6009 15.1491 15 16.875 15ZM16.875 13.75C15.8395 13.75 15 12.9105 15 11.875C15 10.8395 15.8395 10 16.875 10C17.9105 10 18.75 10.8395 18.75 11.875C18.75 12.9105 17.9105 13.75 16.875 13.75Z" fill="#101828"/>
<path d="M23.75 15C25.1307 15 26.25 13.8807 26.25 12.5C26.25 11.1193 25.1307 10 23.75 10C22.3693 10 21.25 11.1193 21.25 12.5C21.25 13.8807 22.3693 15 23.75 15ZM23.75 13.75C23.0596 13.75 22.5 13.1904 22.5 12.5C22.5 11.8096 23.0596 11.25 23.75 11.25C24.4404 11.25 25 11.8096 25 12.5C25 13.1904 24.4404 13.75 23.75 13.75Z" fill="#101828"/>
<path d="M30 15C31.3807 15 32.5 13.8807 32.5 12.5C32.5 11.1193 31.3807 10 30 10C28.6193 10 27.5 11.1193 27.5 12.5C27.5 13.8807 28.6193 15 30 15ZM30 13.75C29.3096 13.75 28.75 13.1904 28.75 12.5C28.75 11.8096 29.3096 11.25 30 11.25C30.6904 11.25 31.25 11.8096 31.25 12.5C31.25 13.1904 30.6904 13.75 30 13.75Z" fill="#101828"/>
<path d="M10 15C11.3807 15 12.5 13.8807 12.5 12.5C12.5 11.1193 11.3807 10 10 10C8.61929 10 7.5 11.1193 7.5 12.5C7.5 13.8807 8.61929 15 10 15ZM10 13.75C9.30965 13.75 8.75 13.1904 8.75 12.5C8.75 11.8096 9.30965 11.25 10 11.25C10.6904 11.25 11.25 11.8096 11.25 12.5C11.25 13.1904 10.6904 13.75 10 13.75Z" fill="#101828"/>
<path d="M27.4998 20H26.2498V18.75C26.2498 18.0596 25.6901 17.5 24.9998 17.5H22.2864C22.1218 17.0342 21.8677 16.6107 21.5449 16.25H24.9998C26.3805 16.25 27.4998 17.3693 27.4998 18.75V20Z" fill="#101828"/>
<path d="M27.7949 16.25H31.2498C32.6305 16.25 33.7498 17.3693 33.7498 18.75V21.25H32.4998V18.75C32.4998 18.0596 31.9401 17.5 31.2498 17.5H28.5364C28.3718 17.0342 28.1177 16.6107 27.7949 16.25Z" fill="#101828"/>
<path d="M12.2049 16.25C11.882 16.6107 11.628 17.0342 11.4634 17.5H8.75C8.05965 17.5 7.5 18.0596 7.5 18.75V21.25H6.25V18.75C6.25 17.3693 7.36929 16.25 8.75 16.25H12.2049Z" fill="#101828"/>
<path d="M12.5 20V18.75C12.5 17.3693 13.6193 16.25 15 16.25H18.75C20.1307 16.25 21.25 17.3693 21.25 18.75V20H20V18.75C20 18.0596 19.4404 17.5 18.75 17.5H15C14.3096 17.5 13.75 18.0596 13.75 18.75V20H12.5Z" fill="#101828"/>
<path d="M10 32.5V22.5H30V32.5H31.25V22.5C31.25 21.8097 30.6903 21.25 30 21.25H10C9.30965 21.25 8.75 21.8097 8.75 22.5V32.5H10Z" fill="#101828"/>
</svg>
