<svg width="56" height="56" viewBox="0 0 56 56" fill="none" xmlns="http://www.w3.org/2000/svg">
<path fill-rule="evenodd" clip-rule="evenodd" d="M28 56C43.464 56 56 43.464 56 28C56 12.536 43.464 0 28 0C12.536 0 0 12.536 0 28C0 43.464 12.536 56 28 56Z" fill="#101828"/>
<path d="M28 14.25C30.7195 14.25 33.3779 15.0564 35.6391 16.5673C37.9003 18.0782 39.6626 20.2256 40.7033 22.7381C41.744 25.2506 42.0163 28.0152 41.4858 30.6825C40.9553 33.3497 39.6457 35.7997 37.7227 37.7227C35.7997 39.6457 33.3497 40.9552 30.6825 41.4858C28.0153 42.0163 25.2506 41.744 22.7381 40.7033C20.2256 39.6626 18.0782 37.9003 16.5673 35.6391C15.0564 33.3779 14.25 30.7195 14.25 28C14.2557 24.355 15.7062 20.8609 18.2835 18.2835C20.8609 15.7061 24.355 14.2557 28 14.25ZM28 13C25.0333 13 22.1332 13.8797 19.6665 15.528C17.1997 17.1762 15.2771 19.5189 14.1418 22.2597C13.0065 25.0006 12.7094 28.0166 13.2882 30.9263C13.867 33.8361 15.2956 36.5088 17.3934 38.6066C19.4912 40.7044 22.1639 42.133 25.0737 42.7118C27.9834 43.2906 30.9994 42.9935 33.7403 41.8582C36.4811 40.7229 38.8238 38.8003 40.472 36.3335C42.1203 33.8668 43 30.9667 43 28C43 24.0217 41.4196 20.2064 38.6066 17.3934C35.7936 14.5804 31.9783 13 28 13Z" fill="white"/>
<path d="M28 20L30.473 24.9363L36 25.7297L32 29.5715L32.946 35L28 32.4363L23.054 35L24 29.5715L20 25.7297L25.527 24.9363L28 20Z" fill="white"/>
<path d="M37.7778 28H39C39 25.0826 37.8411 22.2847 35.7782 20.2218C33.7153 18.1589 30.9174 17 28 17V18.2222C30.5932 18.2222 33.0802 19.2524 34.9139 21.0861C36.7476 22.9198 37.7778 25.4068 37.7778 28Z" fill="white"/>
<path d="M28 37.7778C25.4068 37.7778 22.9198 36.7476 21.0861 34.9139C19.2524 33.0802 18.2222 30.5932 18.2222 28H17C17 30.9174 18.1589 33.7153 20.2218 35.7782C22.2847 37.8411 25.0826 39 28 39V37.7778Z" fill="white"/>
</svg>
