<?xml version="1.0" encoding="UTF-8"?>
<svg width="80px" height="80px" viewBox="0 0 80 80" version="1.1" xmlns="http://www.w3.org/2000/svg" xmlns:xlink="http://www.w3.org/1999/xlink">
    <!-- Generator: Sketch 61.1 (89650) - https://sketch.com -->
    <title>269-B80px</title>
    <desc>Created with Sketch.</desc>
    <g id="269-B80px" stroke="none" stroke-width="1" fill="none" fill-rule="evenodd">
        <g>
            <rect id="Rectangle" x="0" y="0" width="80" height="80"></rect>
            <path d="M43.5,11.25 C41.5,9.25 38.25,9.25 36.25,11.25 L23.5,24 L23.25,24.25 L23.25,24.25 L11.25,36.25 C10.25,37.25 9.75,38.5 9.75,40 C9.75,41.5 10.25,42.75 11.25,43.75 L24,56.5 L24.25,56.75 L24.25,56.75 L36.25,68.75 C37.25,69.75 38.5,70.25 40,70.25 C41.5,70.25 42.75,69.75 43.75,68.75 L56.5,56 L56.5,56 L56.5,56 L68.5,44 C69.5,43 70,41.75 70,40.25 C70,38.75 69.5,37.5 68.5,36.5 L43.5,11.25 Z M13.25,42 C12.75,41.5 12.5,40.75 12.5,40 C12.5,39.25 12.75,38.5 13.25,38 L22.25,29 L22.25,29.25 C22.25,30 22.75,30.75 23.5,31.5 L38.25,46.25 L29.75,54.75 C28.75,55.75 27,55.75 26,54.75 L13.25,42 Z M40,44.75 L35.25,40 L39.75,35.25 L44.5,40 L40,44.75 Z M66.75,38.25 C67.25,38.75 67.5,39.5 67.5,40.25 C67.5,41 67.25,41.75 66.75,42.25 L57.75,51.25 C57.75,50.25 57.25,49.5 56.5,48.75 L41.75,34 L50.25,25.5 C51.25,24.5 53,24.5 54,25.5 L66.75,38.25 Z" id="Shape" fill="#101828" fill-rule="nonzero"></path>
        </g>
    </g>
</svg>