<svg width="42" height="42" viewBox="0 0 42 42" fill="none" xmlns="http://www.w3.org/2000/svg">
<path fill-rule="evenodd" clip-rule="evenodd" d="M12.5664 18H30.5664V22H12.5664V18ZM29.566 21.0008V19.0008H13.566V21.0008H29.566Z" fill="#101828"/>
<path fill-rule="evenodd" clip-rule="evenodd" d="M28.5629 12.0162C28.6219 12.0076 28.6743 12 28.7267 12C29.2067 12 29.6267 12.33 29.7067 12.81L30.2567 15.75L12.5667 19.06L12.0167 16.12C11.9167 15.58 12.2767 15.06 12.8167 14.96L28.5367 12.02C28.5456 12.0187 28.5543 12.0175 28.5629 12.0162ZM29.0966 14.9608L28.7266 13.0008L13.0066 15.9408L13.3766 17.9008L29.0966 14.9608Z" fill="#101828"/>
<path d="M13.54 18.0117L15.9359 14.5254L16.7601 15.0918L14.3642 18.5781L13.54 18.0117Z" fill="#101828"/>
<path d="M17.4766 17.2852L19.8722 13.7867L20.6973 14.3517L18.3017 17.8502L17.4766 17.2852Z" fill="#101828"/>
<path d="M21.4023 16.543L23.8039 13.0484L24.6281 13.6148L22.2265 17.1094L21.4023 16.543Z" fill="#101828"/>
<path d="M25.3379 15.8125L27.7394 12.3179L28.5636 12.8843L26.1621 16.3789L25.3379 15.8125Z" fill="#101828"/>
<path d="M14.417 21.8914L13.707 21.1814L16.707 18.1914L17.417 18.9014L14.417 21.8914Z" fill="#101828"/>
<path d="M18.417 21.8914L17.707 21.1814L20.707 18.1914L21.417 18.9014L18.417 21.8914Z" fill="#101828"/>
<path d="M22.417 21.8914L21.707 21.1814L24.707 18.1914L25.417 18.9014L22.417 21.8914Z" fill="#101828"/>
<path d="M26.417 21.8914L25.707 21.1814L28.707 18.1914L29.417 18.9014L26.417 21.8914Z" fill="#101828"/>
<path d="M22.0362 29.9408V29.0508C22.0362 29.0408 22.0462 29.0208 22.0462 29.0108H13.5662V19.0408H29.5662V22.0008H29.9862C30.0062 22.0008 30.0262 22.0108 30.0462 22.0108V22.0008H30.5762V18.0508H12.5762V29.0208C12.5762 29.5708 13.0262 30.0208 13.5762 30.0208H22.0562C22.0462 29.9908 22.0362 29.9708 22.0362 29.9408Z" fill="#101828"/>
<path d="M21.1162 29.9408V29.0508C21.1162 29.0408 21.1062 29.0208 21.1062 29.0108H29.5862V19.0408H13.5862V22.0008H13.1662C13.1462 22.0008 13.1262 22.0108 13.1062 22.0108V22.0008H12.5762V18.0508H30.5762V29.0208C30.5762 29.5708 30.1262 30.0208 29.5762 30.0208H21.0962C21.1062 29.9908 21.1162 29.9708 21.1162 29.9408Z" fill="#101828"/>
<path fill="transparent" fill-rule="evenodd" clip-rule="evenodd" d="M21 41C32.0457 41 41 32.0457 41 21C41 9.9543 32.0457 1 21 1C9.9543 1 1 9.9543 1 21C1 32.0457 9.9543 41 21 41Z" stroke="#E3E8EC"/>
</svg>
