<svg width="56" height="56" viewBox="0 0 56 56" fill="none" xmlns="http://www.w3.org/2000/svg">
<circle cx="28" cy="28" r="28" fill="#101828"/>
<path fill-rule="evenodd" clip-rule="evenodd" d="M14.0498 12.8008H41.5498C42.2373 12.8008 42.7998 13.3633 42.7998 14.0508V41.5508C42.7998 42.2383 42.2373 42.8008 41.5498 42.8008H14.0498C13.3623 42.8008 12.7998 42.2383 12.7998 41.5508V14.0508C12.7998 13.3633 13.3623 12.8008 14.0498 12.8008ZM41.5498 41.5508V14.0508H14.0498V41.5508H41.5498Z" fill="white"/>
<path fill-rule="evenodd" clip-rule="evenodd" d="M27.8254 19.2989C28.5754 20.0989 29.5879 20.5364 30.6629 20.5364C30.8129 20.5364 30.9629 20.5239 31.1004 20.5114C32.7754 20.3239 34.1504 19.0614 34.4629 17.4239C34.7004 16.1489 34.3129 14.8489 33.4004 13.9364C32.4879 13.0239 31.1879 12.6239 29.9129 12.8739C28.3879 13.1739 27.1629 14.3989 26.8754 15.9239C26.6504 17.1614 27.0004 18.3864 27.8254 19.2989ZM30.1504 14.1114C30.3254 14.0739 30.5004 14.0614 30.6754 14.0614C31.3629 14.0614 32.0254 14.3239 32.5129 14.8364C33.1379 15.4489 33.3879 16.3114 33.2254 17.1989C33.0254 18.2739 32.0754 19.1489 30.9629 19.2739C30.1254 19.3614 29.3254 19.0614 28.7504 18.4489C28.1879 17.8364 27.9504 16.9989 28.1129 16.1614C28.3004 15.1489 29.1379 14.2989 30.1504 14.1114Z" fill="white"/>
<path fill-rule="evenodd" clip-rule="evenodd" d="M30.6127 42.3266C31.0252 42.6266 31.5127 42.7891 32.0127 42.7891C32.1377 42.7891 32.2627 42.7766 32.3877 42.7641C33.0127 42.6641 33.5752 42.3141 33.9377 41.8016C34.3002 41.2891 34.4502 40.6516 34.3502 40.0266L33.2252 33.4141C33.1002 32.5266 32.6877 31.7016 32.0377 31.0891L28.8877 28.0891L30.1002 25.5641L30.4752 26.2016C31.0377 27.1766 32.0877 27.7891 33.2127 27.7891H37.8502C38.8252 27.7891 39.6377 26.9891 39.6502 26.0016C39.6502 25.5141 39.4627 25.0641 39.1252 24.7141C38.7877 24.3641 38.3377 24.1766 37.8502 24.1766H34.0502C33.7502 24.1766 33.4752 24.0016 33.3252 23.7266L31.8002 20.5641C31.4252 19.7891 30.6377 19.2891 29.7752 19.2891H22.3502C20.4252 19.2891 18.6502 20.2641 17.6377 21.9141L16.2627 24.1391C15.8752 24.7641 15.8502 25.5266 16.2127 26.1641C16.5752 26.8016 17.2252 27.1891 17.9627 27.1891C18.6252 27.1891 19.2377 26.8516 19.5877 26.3016L21.1377 23.8891C21.5127 23.3016 22.1502 22.9516 22.8377 22.9516H23.8877L20.8627 27.6516C19.6877 29.7141 19.7752 32.5266 19.8127 33.2016H15.1752C14.3502 33.2016 13.6002 33.6266 13.1502 34.3141C12.7252 34.9641 12.7002 35.7766 13.0752 36.4641C13.4502 37.1516 14.1377 37.5641 14.9252 37.5641H21.5752C22.6502 37.5641 23.5877 36.8391 23.8502 35.7891L25.0127 31.1266L28.6252 33.9641L29.6627 40.7516C29.7627 41.3891 30.1002 41.9516 30.6127 42.3266ZM30.9002 40.5766L29.8502 33.7016C29.8127 33.4391 29.6752 33.2141 29.4877 33.0516L25.8627 30.1891C25.6377 29.8641 25.2627 29.6766 24.8502 29.7141C24.3752 29.7641 24.0002 30.0766 23.8877 30.5391L22.6502 35.4891C22.5252 35.9766 22.0877 36.3141 21.5877 36.3141H14.9377C14.6127 36.3141 14.3252 36.1391 14.1752 35.8641C14.0127 35.5766 14.0252 35.2516 14.2002 34.9766C14.4127 34.6391 14.7752 34.4391 15.1752 34.4391H19.9752C20.5877 34.4391 21.0627 33.9766 21.0752 33.3016C21.0752 33.3 21.0747 33.293 21.074 33.281C21.0565 33.0098 20.8723 30.1565 21.9377 28.2891L25.5627 22.6641C25.6877 22.4766 25.7002 22.2266 25.5877 22.0266C25.4752 21.8266 25.2627 21.7016 25.0377 21.7016H22.8377C21.7252 21.7016 20.6877 22.2641 20.0877 23.2141L18.5377 25.6391C18.2627 26.0641 17.5627 26.0016 17.3127 25.5641C17.1752 25.3141 17.1877 25.0391 17.3377 24.8016L18.7127 22.5766C19.5002 21.3016 20.8627 20.5391 22.3627 20.5391H29.7877C30.1752 20.5391 30.5252 20.7641 30.6877 21.1016L32.2127 24.2766C32.5502 24.9766 33.2752 25.4266 34.0502 25.4266H37.8502C37.9877 25.4266 38.1377 25.4891 38.2377 25.5891C38.3502 25.7016 38.4002 25.8391 38.4002 25.9891C38.4002 26.2891 38.1502 26.5391 37.8502 26.5391H33.2127C32.5377 26.5391 31.9002 26.1641 31.5627 25.5641L30.5877 23.9266C30.4627 23.7266 30.2502 23.6016 30.0127 23.6141C29.7752 23.6266 29.5752 23.7516 29.4752 23.9641L27.5627 27.9516C27.4502 28.2016 27.5002 28.4891 27.7002 28.6766L31.1877 32.0016C31.6252 32.4266 31.9127 32.9891 32.0002 33.6141L33.1252 40.2391C33.1752 40.5391 33.1002 40.8266 32.9252 41.0766C32.7502 41.3141 32.4877 41.4766 32.1877 41.5266C31.8877 41.5766 31.5877 41.5016 31.3502 41.3266C31.1002 41.1391 30.9502 40.8766 30.9002 40.5766Z" fill="white"/>
</svg>
