<?xml version="1.0" encoding="UTF-8"?>
<svg width="56px" height="56px" viewBox="0 0 56 56" version="1.1" xmlns="http://www.w3.org/2000/svg" xmlns:xlink="http://www.w3.org/1999/xlink">
    <!-- Generator: Sketch 64 (93537) - https://sketch.com -->
    <title>275-B56px</title>
    <desc>Created with Sketch.</desc>
    <g id="275-B56px" stroke="none" stroke-width="1" fill="none" fill-rule="evenodd">
        <g>
            <path d="M27.5625,44.4325 C27.44,44.4325 27.3175,44.3975 27.195,44.345 C26.88,44.205 26.6875,43.89 26.6875,43.5575 L26.6875,29.4525 L19.81,35.1225 L18.7075,33.775 L26.2325,27.58 L18.6725,20.79 L19.845,19.495 L26.705,25.655 L26.705,11.9175 C26.705,11.5675 26.915,11.2525 27.23,11.1125 C27.545,10.9725 27.9125,11.025 28.175,11.2525 L37.31,19.4075 C37.5025,19.5825 37.6075,19.8275 37.6075,20.0725 C37.6075,20.335 37.485,20.5625 37.2925,20.7375 L28.9275,27.615 L37.3625,35.21 C37.555,35.385 37.66,35.63 37.66,35.875 C37.66,36.12 37.5375,36.365 37.345,36.5225 L28.1575,44.205 C27.965,44.3625 27.7725,44.4325 27.5625,44.4325 Z M28.4375,29.575 L28.4375,41.685 L35.42,35.8575 L28.4375,29.575 Z M28.4375,13.8775 L28.4375,25.7425 L35.35,20.055 L28.4375,13.8775 Z" id="Shape" fill="#101828" fill-rule="nonzero"></path>
            <rect id="Rectangle" x="0" y="0" width="56" height="56"></rect>
        </g>
    </g>
</svg>