<svg width="32" height="32" viewBox="0 0 32 32" fill="none" xmlns="http://www.w3.org/2000/svg">
<path d="M13.5 12C14.8807 12 16 10.8807 16 9.5C16 8.11929 14.8807 7 13.5 7C12.1193 7 11 8.11929 11 9.5C11 10.8807 12.1193 12 13.5 12ZM13.5 11C12.6716 11 12 10.3284 12 9.5C12 8.67157 12.6716 8 13.5 8C14.3284 8 15 8.67157 15 9.5C15 10.3284 14.3284 11 13.5 11Z" fill="#101828"/>
<path d="M19 12C20.1046 12 21 11.1046 21 10C21 8.89543 20.1046 8 19 8C17.8954 8 17 8.89543 17 10C17 11.1046 17.8954 12 19 12ZM19 11C18.4477 11 18 10.5523 18 10C18 9.44771 18.4477 9 19 9C19.5523 9 20 9.44771 20 10C20 10.5523 19.5523 11 19 11Z" fill="#101828"/>
<path d="M24 12C25.1046 12 26 11.1046 26 10C26 8.89543 25.1046 8 24 8C22.8954 8 22 8.89543 22 10C22 11.1046 22.8954 12 24 12ZM24 11C23.4477 11 23 10.5523 23 10C23 9.44771 23.4477 9 24 9C24.5523 9 25 9.44771 25 10C25 10.5523 24.5523 11 24 11Z" fill="#101828"/>
<path d="M8 12C9.10457 12 10 11.1046 10 10C10 8.89543 9.10457 8 8 8C6.89543 8 6 8.89543 6 10C6 11.1046 6.89543 12 8 12ZM8 11C7.44772 11 7 10.5523 7 10C7 9.44771 7.44772 9 8 9C8.55228 9 9 9.44771 9 10C9 10.5523 8.55229 11 8 11Z" fill="#101828"/>
<path d="M22.0002 16H21.0002V15C21.0002 14.4477 20.5525 14 20.0002 14H17.8295C17.6978 13.6274 17.4946 13.2885 17.2363 13H20.0002C21.1048 13 22.0002 13.8954 22.0002 15V16Z" fill="#101828"/>
<path d="M22.2363 13H25.0002C26.1048 13 27.0002 13.8954 27.0002 15V17H26.0002V15C26.0002 14.4477 25.5525 14 25.0002 14H22.8295C22.6978 13.6274 22.4946 13.2885 22.2363 13Z" fill="#101828"/>
<path d="M9.76389 13C9.50563 13.2885 9.30241 13.6274 9.1707 14H7C6.44772 14 6 14.4477 6 15V17H5V15C5 13.8954 5.89543 13 7 13H9.76389Z" fill="#101828"/>
<path d="M10 16V15C10 13.8954 10.8954 13 12 13H15C16.1046 13 17 13.8954 17 15V16H16V15C16 14.4477 15.5523 14 15 14H12C11.4477 14 11 14.4477 11 15V16H10Z" fill="#101828"/>
<path d="M8 26V18H24V26H25V18C25 17.4477 24.5523 17 24 17H8C7.44772 17 7 17.4477 7 18V26H8Z" fill="#101828"/>
</svg>
