<svg width="56" height="56" viewBox="0 0 56 56" fill="none" xmlns="http://www.w3.org/2000/svg">
<circle cx="28" cy="28" r="28" fill="#101828"/>
<path d="M33.6379 24.25C33.1254 24.25 32.7129 24.675 32.7129 25.1875C32.7129 25.7 33.1254 26.125 33.6379 26.125C34.1504 26.125 34.5629 25.7 34.5629 25.1875C34.5629 24.675 34.1379 24.25 33.6379 24.25Z" fill="white"/>
<path d="M33.6379 21.125C33.1254 21.125 32.7129 21.55 32.7129 22.0625C32.7129 22.575 33.1254 23 33.6379 23C34.1504 23 34.5629 22.575 34.5629 22.0625C34.5629 21.55 34.1379 21.125 33.6379 21.125Z" fill="white"/>
<path d="M35.1875 22.6758C34.675 22.6758 34.25 23.1008 34.25 23.6258C34.25 24.1508 34.675 24.5758 35.1875 24.5758C35.7 24.5758 36.125 24.1508 36.125 23.6258C36.125 23.1008 35.7 22.6758 35.1875 22.6758Z" fill="white"/>
<path d="M32.0754 22.6875C31.5629 22.6875 31.1504 23.1125 31.1504 23.625C31.1504 24.15 31.5629 24.5625 32.0754 24.5625C32.5879 24.5625 33.0004 24.15 33.0004 23.625C33.0004 23.1 32.5879 22.6875 32.0754 22.6875Z" fill="white"/>
<path d="M40.2623 26.5L38.3998 17.7375C38.2748 17.1625 37.7873 16.75 37.2123 16.75H29.0373H27.3748V13H26.1248V16.75H24.4623H16.2873C15.7123 16.75 15.2248 17.1625 15.1123 17.7375L13.2373 26.5C12.8998 28.1875 12.8373 29.35 13.5623 30.9625C14.4498 32.95 16.5998 34.25 18.7498 34.25C18.7873 34.25 18.8123 34.25 18.8498 34.25C21.9623 34.1875 24.4748 31.6 24.4748 28.4125H29.0373C29.0373 29.4 29.2998 30.3125 29.7248 31.125C29.9998 30.775 30.2998 30.45 30.6248 30.15C30.4123 29.6125 30.2873 29.025 30.2873 28.4125V27.1625H29.0373H24.4748H23.2248V28.4125C23.2248 30.9 21.2498 32.95 18.8373 33H18.7498C17.0373 33 15.3748 31.95 14.7123 30.45C14.1373 29.15 14.1623 28.3 14.4748 26.7625L16.2873 18H24.4623H29.0498H37.1748L39.0373 26.75C39.1873 27.5 39.2623 28.075 39.2498 28.625C39.6748 28.8 40.0748 29.0125 40.4498 29.25C40.5623 28.3875 40.4623 27.55 40.2623 26.5Z" fill="white"/>
<path d="M22.3504 22.9992H20.5004V21.0742H19.2504V22.9992H17.3379V24.2492H19.2504V26.0867H20.5004V24.2492H22.3504V22.9992Z" fill="white"/>
<path fill-rule="evenodd" clip-rule="evenodd" d="M35.4446 28.6317L35.7076 28.625L35.9957 28.6331C38.0425 28.7482 39.8342 30.0702 40.627 32.0623L40.6875 32.215L41.0848 32.1874L41.2558 32.1833C42.5496 32.1833 43.7779 32.7182 44.6998 33.6773C45.6213 34.6447 46.1251 35.9244 46.1251 37.2938C46.1154 40.0939 43.9299 42.375 41.2201 42.375L30.5354 42.35C28.0806 42.3208 26.1155 40.2263 26.1251 37.6808C26.1351 35.2253 27.9786 33.1872 30.3398 33.0508L30.5038 33.0413L30.5393 32.8828C31.1037 30.4676 33.0911 28.7512 35.4446 28.6317ZM35.7219 29.875L35.7076 29.875C33.8324 29.875 32.2121 31.2177 31.7582 33.1599L31.6218 33.7766C31.5612 34.051 31.3248 34.2512 31.0441 34.2658L30.4084 34.299C28.723 34.3963 27.3824 35.8784 27.3751 37.6857C27.368 39.5577 28.7956 41.0792 30.5428 41.1L31.3796 41.1L41.2217 41.125C43.228 41.125 44.8677 39.4135 44.8751 37.2917C44.8751 36.243 44.4931 35.2726 43.7967 34.5415C43.1099 33.8271 42.2058 33.4333 41.2558 33.4333C41.1769 33.4333 41.1128 33.4369 40.9628 33.4482L40.3245 33.4981C40.0507 33.5195 39.7951 33.3598 39.6943 33.1043L39.4649 32.5228C38.8241 30.9126 37.3616 29.8822 35.7219 29.875Z" fill="white"/>
</svg>
