<svg width="80" height="80" viewBox="0 0 80 80" fill="none" xmlns="http://www.w3.org/2000/svg">
<circle cx="40" cy="40" r="40" fill="#E3E8EC"/>
<path d="M35.625 33C38.0412 33 40 31.0412 40 28.625C40 26.2088 38.0412 24.25 35.625 24.25C33.2088 24.25 31.25 26.2088 31.25 28.625C31.25 31.0412 33.2088 33 35.625 33ZM35.625 31.25C34.1752 31.25 33 30.0748 33 28.625C33 27.1752 34.1752 26 35.625 26C37.0748 26 38.25 27.1752 38.25 28.625C38.25 30.0748 37.0748 31.25 35.625 31.25Z" fill="#101828"/>
<path d="M45.25 33C47.183 33 48.75 31.433 48.75 29.5C48.75 27.567 47.183 26 45.25 26C43.317 26 41.75 27.567 41.75 29.5C41.75 31.433 43.317 33 45.25 33ZM45.25 31.25C44.2835 31.25 43.5 30.4665 43.5 29.5C43.5 28.5335 44.2835 27.75 45.25 27.75C46.2165 27.75 47 28.5335 47 29.5C47 30.4665 46.2165 31.25 45.25 31.25Z" fill="#101828"/>
<path d="M54 33C55.933 33 57.5 31.433 57.5 29.5C57.5 27.567 55.933 26 54 26C52.067 26 50.5 27.567 50.5 29.5C50.5 31.433 52.067 33 54 33ZM54 31.25C53.0335 31.25 52.25 30.4665 52.25 29.5C52.25 28.5335 53.0335 27.75 54 27.75C54.9665 27.75 55.75 28.5335 55.75 29.5C55.75 30.4665 54.9665 31.25 54 31.25Z" fill="#101828"/>
<path d="M26 33C27.933 33 29.5 31.433 29.5 29.5C29.5 27.567 27.933 26 26 26C24.067 26 22.5 27.567 22.5 29.5C22.5 31.433 24.067 33 26 33ZM26 31.25C25.0335 31.25 24.25 30.4665 24.25 29.5C24.25 28.5335 25.0335 27.75 26 27.75C26.9665 27.75 27.75 28.5335 27.75 29.5C27.75 30.4665 26.9665 31.25 26 31.25Z" fill="#101828"/>
<path d="M50.4999 40H48.7499V38.25C48.7499 37.2835 47.9664 36.5 46.9999 36.5H43.2012C42.9707 35.8479 42.615 35.255 42.1631 34.75H46.9999C48.9329 34.75 50.4999 36.317 50.4999 38.25V40Z" fill="#101828"/>
<path d="M50.9131 34.75H55.7499C57.6829 34.75 59.2499 36.317 59.2499 38.25V41.75H57.4999V38.25C57.4999 37.2835 56.7164 36.5 55.7499 36.5H51.9512C51.7207 35.8479 51.365 35.255 50.9131 34.75Z" fill="#101828"/>
<path d="M29.0868 34.75C28.6349 35.255 28.2792 35.8479 28.0487 36.5H24.25C23.2835 36.5 22.5 37.2835 22.5 38.25V41.75H20.75V38.25C20.75 36.317 22.317 34.75 24.25 34.75H29.0868Z" fill="#101828"/>
<path d="M29.5 40V38.25C29.5 36.317 31.067 34.75 33 34.75H38.25C40.183 34.75 41.75 36.317 41.75 38.25V40H40V38.25C40 37.2835 39.2165 36.5 38.25 36.5H33C32.0335 36.5 31.25 37.2835 31.25 38.25V40H29.5Z" fill="#101828"/>
<path d="M26 57.5V43.5H54V57.5H55.75V43.5C55.75 42.5335 54.9665 41.75 54 41.75H26C25.0335 41.75 24.25 42.5335 24.25 43.5V57.5H26Z" fill="#101828"/>
</svg>
