<svg width="32" height="32" viewBox="0 0 32 32" fill="none" xmlns="http://www.w3.org/2000/svg">
<path d="M26 10C26.2652 10 26.5196 10.1054 26.7071 10.2929C26.8946 10.4804 27 10.7348 27 11V20C27 20.2652 26.8946 20.5196 26.7071 20.7071C26.5196 20.8946 26.2652 21 26 21H19.41L18.85 20.44C18.569 20.1586 18.1877 20.0003 17.79 20H14.21C13.8123 20.0003 13.431 20.1586 13.15 20.44L12.59 21H6C5.73478 21 5.48043 20.8946 5.29289 20.7071C5.10536 20.5196 5 20.2652 5 20V11C5 10.7348 5.10536 10.4804 5.29289 10.2929C5.48043 10.1054 5.73478 10 6 10H26ZM26 9H6C5.46957 9 4.96086 9.21071 4.58579 9.58579C4.21071 9.96086 4 10.4696 4 11V20C4 20.5304 4.21071 21.0391 4.58579 21.4142C4.96086 21.7893 5.46957 22 6 22H12.59C12.8523 21.9989 13.1037 21.8947 13.29 21.71L13.85 21.15C13.8965 21.1017 13.9525 21.0634 14.0144 21.0376C14.0764 21.0118 14.1429 20.999 14.21 21H17.79C17.8571 20.999 17.9236 21.0118 17.9856 21.0376C18.0475 21.0634 18.1035 21.1017 18.15 21.15L18.71 21.71C18.8963 21.8947 19.1477 21.9989 19.41 22H26C26.5304 22 27.0391 21.7893 27.4142 21.4142C27.7893 21.0391 28 20.5304 28 20V11C28 10.4696 27.7893 9.96086 27.4142 9.58579C27.0391 9.21071 26.5304 9 26 9Z" fill="#101828"/>
<path d="M4 12V19H3V12H4ZM5 11H3C2.73478 11 2.48043 11.1054 2.29289 11.2929C2.10536 11.4804 2 11.7348 2 12V19C2 19.2652 2.10536 19.5196 2.29289 19.7071C2.48043 19.8946 2.73478 20 3 20H5V11Z" fill="#101828"/>
<path d="M29 12V19H28V12H29ZM29 11H27V20H29C29.2652 20 29.5196 19.8946 29.7071 19.7071C29.8946 19.5196 30 19.2652 30 19V12C30 11.7348 29.8946 11.4804 29.7071 11.2929C29.5196 11.1054 29.2652 11 29 11Z" fill="#101828"/>
<path fill-rule="evenodd" clip-rule="evenodd" d="M17.6868 18.9961V16.5661H18.6978L20.1484 18.9961H21.5L19.9725 16.4661C20.8297 16.1661 21.4121 15.6261 21.4121 14.6961C21.4121 13.6561 20.5659 12.9961 19.1813 12.9961H16.5V18.9961H17.6868ZM20.236 14.7766C20.236 15.2566 19.9063 15.5666 19.181 15.5666H17.6865V13.9866H19.181C19.9173 13.9866 20.236 14.2966 20.236 14.7766Z" fill="#101828"/>
<path d="M5.71387 13.7148H6.7253V15.7148H5.71387V13.7148Z" fill="#101828"/>
<path d="M5.71387 12.8555V14.3484C5.71387 14.6285 5.94088 14.8555 6.22091 14.8555C6.50094 14.8555 6.72796 14.6285 6.72796 14.3484V12.6329C6.72796 12.2016 7.07761 11.8519 7.50894 11.8519H9.21564C9.4908 11.8519 9.71387 11.6289 9.71387 11.3537C9.71387 11.0785 9.4908 10.8555 9.21564 10.8555H7.7448H7.71387C6.6093 10.8555 5.71387 11.7509 5.71387 12.8555Z" fill="#101828"/>
<path d="M9.14258 10.8555H13.1426V11.8498H9.14258V10.8555Z" fill="#101828"/>
<path d="M11 13L12.875 19H14.125L16 13H14.75L13.5 17.188L12.25 13H11Z" fill="#101828"/>
</svg>
