<svg width="32" height="32" viewBox="0 0 32 32" fill="none" xmlns="http://www.w3.org/2000/svg">
<path fill-rule="evenodd" clip-rule="evenodd" d="M10.2861 4.58594H26.5002C27.1787 4.58594 28.0004 4.92691 28.0004 5.72879V15.7288V26.0145C28.0004 26.8164 27.1787 27.422 26.5002 27.422H10.2862C9.60764 27.422 10.4862 27.422 10.2862 27.422L10.2861 5.72879C10.2861 4.92691 10.2861 5.07729 10.2861 4.58594ZM10.2861 26.3552L26.8576 26.3002V5.72879H10.2861V26.3552Z" fill="#101828"/>
<path fill-rule="evenodd" clip-rule="evenodd" d="M5.71388 2.86969L9.99958 2.86969C10.6812 2.86969 11.4282 2.70744 11.4282 3.66969V15.6697V28.0126C11.4282 28.9748 10.6812 29.1554 9.99958 29.1554H5.71388V4.01255C5.71388 3.0503 5.71388 3.45931 5.71388 2.86969ZM5.71387 28.0126H10.2853V4.01255H5.71388L5.71387 28.0126Z" fill="#101828"/>
<path fill-rule="evenodd" clip-rule="evenodd" d="M9.71386 2.86969L5.42815 2.86969C4.74654 2.86969 3.99957 2.70744 3.99957 3.66969V15.6697V28.0126C3.99957 28.9748 4.74654 29.1554 5.42815 29.1554H9.71386V4.01255C9.71386 3.0503 9.71386 3.45931 9.71386 2.86969ZM9.71387 28.0126H5.14244V4.01255H9.71386L9.71387 28.0126Z" fill="#101828"/>
<path fill-rule="evenodd" clip-rule="evenodd" d="M13.7139 13.6955C13.7139 14.3079 14.2149 14.8089 14.8273 14.8089C15.4397 14.8089 15.9407 14.3079 15.9407 13.6955C15.9407 13.0831 15.4397 12.582 14.8273 12.582C14.2149 12.582 13.7139 13.0831 13.7139 13.6955Z" fill="#101828"/>
<path fill-rule="evenodd" clip-rule="evenodd" d="M18.168 13.6955C18.168 14.3079 18.669 14.8089 19.2814 14.8089C19.8938 14.8089 20.3948 14.3079 20.3948 13.6955C20.3948 13.0831 19.8938 12.582 19.2814 12.582C18.669 12.582 18.168 13.0831 18.168 13.6955Z" fill="#101828"/>
<path fill-rule="evenodd" clip-rule="evenodd" d="M22.6221 13.6955C22.6221 14.3079 23.1231 14.8089 23.7355 14.8089C24.3479 14.8089 24.8489 14.3079 24.8489 13.6955C24.8489 13.0831 24.3479 12.582 23.7355 12.582C23.1231 12.582 22.6221 13.0831 22.6221 13.6955Z" fill="#101828"/>
<path fill-rule="evenodd" clip-rule="evenodd" d="M13.7139 18.1486C13.7139 18.761 14.2149 19.262 14.8273 19.262C15.4397 19.262 15.9407 18.761 15.9407 18.1486C15.9407 17.5362 15.4397 17.0352 14.8273 17.0352C14.2149 17.0352 13.7139 17.5362 13.7139 18.1486Z" fill="#101828"/>
<path fill-rule="evenodd" clip-rule="evenodd" d="M18.168 18.1486C18.168 18.761 18.669 19.262 19.2814 19.262C19.8938 19.262 20.3948 18.761 20.3948 18.1486C20.3948 17.5362 19.8938 17.0352 19.2814 17.0352C18.669 17.0352 18.168 17.5362 18.168 18.1486Z" fill="#101828"/>
<path fill-rule="evenodd" clip-rule="evenodd" d="M22.6221 18.1486C22.6221 18.761 23.1231 19.262 23.7355 19.262C24.3479 19.262 24.8489 18.761 24.8489 18.1486C24.8489 17.5362 24.3479 17.0352 23.7355 17.0352C23.1231 17.0352 22.6221 17.5362 22.6221 18.1486Z" fill="#101828"/>
<path fill-rule="evenodd" clip-rule="evenodd" d="M13.7139 22.6017C13.7139 23.2141 14.2149 23.7151 14.8273 23.7151C15.4397 23.7151 15.9407 23.2141 15.9407 22.6017C15.9407 21.9893 15.4397 21.4883 14.8273 21.4883C14.2149 21.4883 13.7139 21.9893 13.7139 22.6017Z" fill="#101828"/>
<path fill-rule="evenodd" clip-rule="evenodd" d="M18.168 22.6017C18.168 23.2141 18.669 23.7151 19.2814 23.7151C19.8938 23.7151 20.3948 23.2141 20.3948 22.6017C20.3948 21.9893 19.8938 21.4883 19.2814 21.4883C18.669 21.4883 18.168 21.9893 18.168 22.6017Z" fill="#101828"/>
<path fill-rule="evenodd" clip-rule="evenodd" d="M22.6221 22.6017C22.6221 23.2141 23.1231 23.7151 23.7355 23.7151C24.3479 23.7151 24.8489 23.2141 24.8489 22.6017C24.8489 21.9893 24.3479 21.4883 23.7355 21.4883C23.1231 21.4883 22.6221 21.9893 22.6221 22.6017Z" fill="#101828"/>
<path d="M13.7139 10.8711V8.29967H24.8567V10.8711H13.7139Z" fill="#101828"/>
</svg>
