<svg width="80" height="80" viewBox="0 0 80 80" fill="none" xmlns="http://www.w3.org/2000/svg">
<path d="M65 25C65.663 25 66.2989 25.2634 66.7678 25.7322C67.2366 26.2011 67.5 26.837 67.5 27.5V50C67.5 50.663 67.2366 51.2989 66.7678 51.7678C66.2989 52.2366 65.663 52.5 65 52.5H48.525L47.125 51.1C46.4224 50.3965 45.4692 50.0009 44.475 50H35.525C34.5308 50.0009 33.5776 50.3965 32.875 51.1L31.475 52.5H15C14.337 52.5 13.7011 52.2366 13.2322 51.7678C12.7634 51.2989 12.5 50.663 12.5 50V27.5C12.5 26.837 12.7634 26.2011 13.2322 25.7322C13.7011 25.2634 14.337 25 15 25H65ZM65 22.5H15C13.6739 22.5 12.4021 23.0268 11.4645 23.9645C10.5268 24.9021 10 26.1739 10 27.5V50C10 51.3261 10.5268 52.5979 11.4645 53.5355C12.4021 54.4732 13.6739 55 15 55H31.475C32.1308 54.9972 32.7593 54.7369 33.225 54.275L34.625 52.875C34.7414 52.7542 34.8813 52.6586 35.0361 52.5941C35.1909 52.5296 35.3573 52.4976 35.525 52.5H44.475C44.6427 52.4976 44.8091 52.5296 44.9639 52.5941C45.1187 52.6586 45.2586 52.7542 45.375 52.875L46.775 54.275C47.2407 54.7369 47.8691 54.9972 48.525 55H65C66.3261 55 67.5979 54.4732 68.5355 53.5355C69.4732 52.5979 70 51.3261 70 50V27.5C70 26.1739 69.4732 24.9021 68.5355 23.9645C67.5979 23.0268 66.3261 22.5 65 22.5Z" fill="#101828"/>
<path d="M10 30V47.5H7.5V30H10ZM12.5 27.5H7.5C6.83696 27.5 6.20107 27.7634 5.73223 28.2322C5.26339 28.7011 5 29.337 5 30V47.5C5 48.163 5.26339 48.7989 5.73223 49.2678C6.20107 49.7366 6.83696 50 7.5 50H12.5V27.5Z" fill="#101828"/>
<path d="M72.5 30V47.5H70V30H72.5ZM72.5 27.5H67.5V50H72.5C73.163 50 73.7989 49.7366 74.2678 49.2678C74.7366 48.7989 75 48.163 75 47.5V30C75 29.337 74.7366 28.7011 74.2678 28.2322C73.7989 27.7634 73.163 27.5 72.5 27.5Z" fill="#101828"/>
<path fill-rule="evenodd" clip-rule="evenodd" d="M44.217 47.4961V41.4211H46.7445L50.3709 47.4961H53.75L49.9313 41.1711C52.0742 40.4211 53.5302 39.0711 53.5302 36.7461C53.5302 34.1461 51.4148 32.4961 47.9533 32.4961H41.25V47.4961H44.217ZM50.5899 36.9474C50.5899 38.1474 49.7658 38.9224 47.9526 38.9224H44.2163V34.9724H47.9526C49.7932 34.9724 50.5899 35.7474 50.5899 36.9474Z" fill="#101828"/>
<path d="M14.2861 34.293H16.8147V39.293H14.2861V34.293Z" fill="#101828"/>
<path d="M14.2861 32.1445V35.8769C14.2861 36.577 14.8537 37.1445 15.5537 37.1445C16.2538 37.1445 16.8214 36.577 16.8214 35.8769V31.5881C16.8214 30.5098 17.6955 29.6357 18.7738 29.6357H23.0406C23.7285 29.6357 24.2861 29.078 24.2861 28.3901C24.2861 27.7022 23.7285 27.1445 23.0406 27.1445H19.3635H19.2861C16.5247 27.1445 14.2861 29.3831 14.2861 32.1445Z" fill="#101828"/>
<path d="M22.8555 27.1445H32.8555V29.6302H22.8555V27.1445Z" fill="#101828"/>
<path d="M27.5 32.5L32.1875 47.5H35.3125L40 32.5H36.875L33.75 42.97L30.625 32.5H27.5Z" fill="#101828"/>
</svg>
