<svg width="40" height="40" viewBox="0 0 40 40" fill="none" xmlns="http://www.w3.org/2000/svg">
<path d="M32.5 12.5C32.8315 12.5 33.1495 12.6317 33.3839 12.8661C33.6183 13.1005 33.75 13.4185 33.75 13.75V25C33.75 25.3315 33.6183 25.6495 33.3839 25.8839C33.1495 26.1183 32.8315 26.25 32.5 26.25H24.2625L23.5625 25.55C23.2112 25.1983 22.7346 25.0004 22.2375 25H17.7625C17.2654 25.0004 16.7888 25.1983 16.4375 25.55L15.7375 26.25H7.5C7.16848 26.25 6.85054 26.1183 6.61612 25.8839C6.3817 25.6495 6.25 25.3315 6.25 25V13.75C6.25 13.4185 6.3817 13.1005 6.61612 12.8661C6.85054 12.6317 7.16848 12.5 7.5 12.5H32.5ZM32.5 11.25H7.5C6.83696 11.25 6.20107 11.5134 5.73223 11.9822C5.26339 12.4511 5 13.087 5 13.75V25C5 25.663 5.26339 26.2989 5.73223 26.7678C6.20107 27.2366 6.83696 27.5 7.5 27.5H15.7375C16.0654 27.4986 16.3797 27.3684 16.6125 27.1375L17.3125 26.4375C17.3707 26.3771 17.4406 26.3293 17.518 26.2971C17.5954 26.2648 17.6787 26.2488 17.7625 26.25H22.2375C22.3213 26.2488 22.4046 26.2648 22.482 26.2971C22.5594 26.3293 22.6293 26.3771 22.6875 26.4375L23.3875 27.1375C23.6203 27.3684 23.9346 27.4986 24.2625 27.5H32.5C33.163 27.5 33.7989 27.2366 34.2678 26.7678C34.7366 26.2989 35 25.663 35 25V13.75C35 13.087 34.7366 12.4511 34.2678 11.9822C33.7989 11.5134 33.163 11.25 32.5 11.25Z" fill="#101828"/>
<path d="M5 15V23.75H3.75V15H5ZM6.25 13.75H3.75C3.41848 13.75 3.10054 13.8817 2.86612 14.1161C2.6317 14.3505 2.5 14.6685 2.5 15V23.75C2.5 24.0815 2.6317 24.3995 2.86612 24.6339C3.10054 24.8683 3.41848 25 3.75 25H6.25V13.75Z" fill="#101828"/>
<path d="M36.25 15V23.75H35V15H36.25ZM36.25 13.75H33.75V25H36.25C36.5815 25 36.8995 24.8683 37.1339 24.6339C37.3683 24.3995 37.5 24.0815 37.5 23.75V15C37.5 14.6685 37.3683 14.3505 37.1339 14.1161C36.8995 13.8817 36.5815 13.75 36.25 13.75Z" fill="#101828"/>
<path fill-rule="evenodd" clip-rule="evenodd" d="M22.1085 23.7461V20.7086H23.3723L25.1854 23.7461H26.875L24.9657 20.5836C26.0371 20.2086 26.7651 19.5336 26.7651 18.3711C26.7651 17.0711 25.7074 16.2461 23.9766 16.2461H20.625V23.7461H22.1085ZM25.295 18.4717C25.295 19.0717 24.8829 19.4592 23.9763 19.4592H22.1082V17.4842H23.9763C24.8966 17.4842 25.295 17.8717 25.295 18.4717Z" fill="#101828"/>
<path d="M7.14258 17.1445H8.40686V19.6445H7.14258V17.1445Z" fill="#101828"/>
<path d="M7.14258 16.0703V17.9365C7.14258 18.2865 7.42634 18.5703 7.77638 18.5703C8.12642 18.5703 8.41019 18.2865 8.41019 17.9365V15.7921C8.41019 15.253 8.84726 14.8159 9.38642 14.8159H11.5198C11.8637 14.8159 12.1426 14.5371 12.1426 14.1931C12.1426 13.8491 11.8637 13.5703 11.5198 13.5703H9.68124H9.64258C8.26187 13.5703 7.14258 14.6896 7.14258 16.0703Z" fill="#101828"/>
<path d="M11.4277 13.5703H16.4277V14.8132H11.4277V13.5703Z" fill="#101828"/>
<path d="M13.75 16.25L16.0938 23.75H17.6562L20 16.25H18.4375L16.875 21.485L15.3125 16.25H13.75Z" fill="#101828"/>
</svg>
