<?xml version="1.0" encoding="UTF-8"?>
<svg width="56px" height="56px" viewBox="0 0 56 56" version="1.1" xmlns="http://www.w3.org/2000/svg" xmlns:xlink="http://www.w3.org/1999/xlink">
    <!-- Generator: Sketch 64 (93537) - https://sketch.com -->
    <title>277-W56px</title>
    <desc>Created with Sketch.</desc>
    <g id="NEW_icons" stroke="none" stroke-width="1" fill="none" fill-rule="evenodd">
        <g id="icons_UD_new-Copy" transform="translate(-1992.000000, -35155.000000)">
            <g id="277-W56px" transform="translate(1992.000000, 35155.000000)">
                <circle id="Oval-Copy-1534" fill="#101828" cx="28" cy="28" r="28"></circle>
                <g id="277-B32px-Copy-8" transform="translate(8.000000, 8.000000)">
                    <path d="M28.125,28.75 L11.875,28.75 C7.7375,28.75 4.375,25.3875 4.375,21.25 C4.375,17.1125 7.7375,13.75 11.875,13.75 L28.125,13.75 C32.2625,13.75 35.625,17.1125 35.625,21.25 C35.625,25.3875 32.2625,28.75 28.125,28.75 Z M11.875,15 C8.425,15 5.625,17.8 5.625,21.25 C5.625,24.7 8.425,27.5 11.875,27.5 L28.125,27.5 C31.575,27.5 34.375,24.7 34.375,21.25 C34.375,17.8 31.575,15 28.125,15 L11.875,15 Z" id="Shape" fill="#FFFFFF" fill-rule="nonzero"></path>
                    <path d="M11.875,25 C9.8125,25 8.125,23.3125 8.125,21.25 C8.125,19.1875 9.8125,17.5 11.875,17.5 C13.9375,17.5 15.625,19.1875 15.625,21.25 C15.625,23.3125 13.9375,25 11.875,25 Z M11.875,18.75 C10.5,18.75 9.375,19.875 9.375,21.25 C9.375,22.625 10.5,23.75 11.875,23.75 C13.25,23.75 14.375,22.625 14.375,21.25 C14.375,19.875 13.25,18.75 11.875,18.75 Z" id="Shape" fill="#FFFFFF" fill-rule="nonzero"></path>
                    <path d="M11.875,22.5 C11.1875,22.5 10.625,21.9375 10.625,21.25 C10.625,20.5625 11.1875,20 11.875,20 C12.5625,20 13.125,20.5625 13.125,21.25 C13.125,21.9375 12.5625,22.5 11.875,22.5 Z M11.875,21.25 C11.875,21.25 11.875,21.25 11.875,21.25 L12.5,21.25 L11.875,21.25 Z" id="Shape" fill="#FFFFFF" fill-rule="nonzero"></path>
                    <path d="M28.125,22.5 C27.4375,22.5 26.875,21.9375 26.875,21.25 C26.875,20.5625 27.4375,20 28.125,20 C28.8125,20 29.375,20.5625 29.375,21.25 C29.375,21.9375 28.8125,22.5 28.125,22.5 Z M28.125,21.25 C28.125,21.25 28.125,21.25 28.125,21.25 L28.75,21.25 L28.125,21.25 Z" id="Shape" fill="#FFFFFF" fill-rule="nonzero"></path>
                    <path d="M28.125,25 C26.0625,25 24.375,23.3125 24.375,21.25 C24.375,19.1875 26.0625,17.5 28.125,17.5 C30.1875,17.5 31.875,19.1875 31.875,21.25 C31.875,23.3125 30.1875,25 28.125,25 Z M28.125,18.75 C26.75,18.75 25.625,19.875 25.625,21.25 C25.625,22.625 26.75,23.75 28.125,23.75 C29.5,23.75 30.625,22.625 30.625,21.25 C30.625,19.875 29.5,18.75 28.125,18.75 Z" id="Shape" fill="#FFFFFF" fill-rule="nonzero"></path>
                    <rect id="Rectangle" fill="#FFFFFF" fill-rule="nonzero" x="16.25" y="19.75" width="1.25" height="3"></rect>
                    <rect id="Rectangle" fill="#FFFFFF" fill-rule="nonzero" x="18.3375" y="17.5" width="1.25" height="7.5"></rect>
                    <rect id="Rectangle" fill="#FFFFFF" fill-rule="nonzero" x="20.4125" y="19" width="1.25" height="4.5"></rect>
                    <rect id="Rectangle" fill="#FFFFFF" fill-rule="nonzero" x="22.5" y="20.5" width="1.25" height="1.5"></rect>
                    <rect id="Rectangle" x="0" y="0" width="40" height="40"></rect>
                </g>
            </g>
        </g>
    </g>
</svg>