<?xml version="1.0" encoding="UTF-8"?>
<svg width="80px" height="80px" viewBox="0 0 80 80" version="1.1" xmlns="http://www.w3.org/2000/svg" xmlns:xlink="http://www.w3.org/1999/xlink">
    <!-- Generator: Sketch 64 (93537) - https://sketch.com -->
    <title>278-B80px</title>
    <desc>Created with Sketch.</desc>
    <g id="278-B80px" stroke="none" stroke-width="1" fill="none" fill-rule="evenodd">
        <g>
            <path d="M65,25 L65,65 L37.5,65 L37.5,25 L65,25 M65,22.5 L37.5,22.5 C36.125,22.5 35,23.625 35,25 L35,65 C35,66.375 36.125,67.5 37.5,67.5 L65,67.5 C66.375,67.5 67.5,66.375 67.5,65 L67.5,25 C67.5,23.625 66.375,22.5 65,22.5 L65,22.5 Z" id="Shape" fill="#101828" fill-rule="nonzero"></path>
            <path d="M58.675,43 C58.625,42.9 58.525,42.85 58.425,42.85 L52.575,42.85 L55.25,32.85 C55.275,32.725 55.225,32.6 55.1,32.525 C54.975,32.475 54.85,32.5 54.75,32.6 L43.025,47.1 C42.95,47.175 42.95,47.3 43,47.4 C43.05,47.5 43.15,47.55 43.25,47.55 L49.1,47.55 L46.425,57.55 C46.4,57.675 46.45,57.8 46.575,57.875 C46.625,57.9 46.65,57.9 46.7,57.9 C46.775,57.9 46.85,57.875 46.925,57.8 L58.65,43.3 C58.7,43.225 58.725,43.1 58.675,43 Z" id="Path" fill="#101828" fill-rule="nonzero"></path>
            <path d="M48.75,25 L41.25,25 C40.55,25 40,24.45 40,23.75 L40,18.75 C40,18.05 40.55,17.5 41.25,17.5 L48.75,17.5 C49.45,17.5 50,18.05 50,18.75 L50,23.75 C50,24.45 49.45,25 48.75,25 Z M42.5,22.5 L47.5,22.5 L47.5,20 L42.5,20 L42.5,22.5 Z" id="Shape" fill="#101828" fill-rule="nonzero"></path>
            <path d="M23.75,62.5 L16.25,62.5 C15.55,62.5 15,61.95 15,61.25 L15,56.25 C15,55.55 15.55,55 16.25,55 L23.75,55 C24.45,55 25,55.55 25,56.25 L25,61.25 C25,61.95 24.45,62.5 23.75,62.5 Z M17.5,60 L22.5,60 L22.5,57.5 L17.5,57.5 L17.5,60 Z" id="Shape" fill="#101828" fill-rule="nonzero"></path>
            <path d="M21.25,67.5 L18.75,67.5 C18.05,67.5 17.5,66.95 17.5,66.25 L17.5,61.25 C17.5,60.55 18.05,60 18.75,60 L21.25,60 C21.95,60 22.5,60.55 22.5,61.25 L22.5,66.25 C22.5,66.95 21.95,67.5 21.25,67.5 Z M20,65 L20,62.5 L20,65 Z" id="Shape" fill="#101828" fill-rule="nonzero"></path>
            <path d="M21.25,56.25 L18.75,56.25 L18.75,15 C18.75,12.925 20.425,11.25 22.5,11.25 L42.5,11.25 C44.575,11.25 46.25,12.925 46.25,15 L46.25,18.75 L43.75,18.75 L43.75,15 C43.75,14.3 43.2,13.75 42.5,13.75 L22.5,13.75 C21.8,13.75 21.25,14.3 21.25,15 L21.25,56.25 Z" id="Path" fill="#101828" fill-rule="nonzero"></path>
            <rect id="Rectangle" x="0" y="0" width="80" height="80"></rect>
        </g>
    </g>
</svg>