<svg width="80" height="80" viewBox="0 0 80 80" fill="none" xmlns="http://www.w3.org/2000/svg">
<circle cx="40" cy="40" r="40" fill="#FF4F12"/>
<path fill-rule="evenodd" clip-rule="evenodd" d="M30.667 37.668L30.667 18.3305C30.667 17.403 31.787 16.668 33.1737 16.668H36.027H46.8003C47.4937 16.668 48.1337 16.8605 48.587 17.158C49.0403 17.4555 49.3337 17.8755 49.3337 18.3305V35.918V57.0055C49.3337 57.933 48.2137 58.668 46.827 58.668H43.9737H33.2003C32.8537 58.668 32.507 58.6155 32.2137 58.528C31.307 58.283 30.667 57.688 30.667 57.0055V37.668ZM47.0003 35.971V19.0013H35.8283H33.0003V37.668V56.3346H44.1723H47.0003V35.971Z" fill="white"/>
<rect x="37.667" y="56.332" width="4.66667" height="7" rx="0.5" fill="white"/>
<path d="M35.333 30.668V28.3346H44.6663V30.668H35.333Z" fill="white"/>
<path d="M35.333 37.668V35.3346H44.6663V37.668H35.333Z" fill="white"/>
<path d="M35.333 44.668L35.333 42.3346H44.6663V44.668H35.333Z" fill="white"/>
<path d="M35.333 51.668L35.333 49.3346H44.6663V51.668H35.333Z" fill="white"/>
<path d="M40 22.9141C40.4296 22.9141 40.7868 23.2236 40.8609 23.6318L40.875 23.7891V60.0848C40.875 60.568 40.4832 60.9598 40 60.9598C39.5704 60.9598 39.2132 60.6502 39.1391 60.242L39.125 60.0848V23.7891C39.125 23.3058 39.5168 22.9141 40 22.9141Z" fill="white"/>
</svg>
