<svg width="80" height="80" viewBox="0 0 80 80" fill="none" xmlns="http://www.w3.org/2000/svg">
<path fill-rule="evenodd" clip-rule="evenodd" d="M40 80C62.0914 80 80 62.0914 80 40C80 17.9086 62.0914 0 40 0C17.9086 0 0 17.9086 0 40C0 62.0914 17.9086 80 40 80Z" fill="#101828"/>
<path d="M57.5 28.5C57.9641 28.5 58.4092 28.6844 58.7374 29.0126C59.0656 29.3408 59.25 29.7859 59.25 30.25V46C59.25 46.4641 59.0656 46.9093 58.7374 47.2374C58.4092 47.5656 57.9641 47.75 57.5 47.75H45.9675L44.9875 46.77C44.4957 46.2776 43.8285 46.0006 43.1325 46H36.8675C36.1715 46.0006 35.5043 46.2776 35.0125 46.77L34.0325 47.75H22.5C22.0359 47.75 21.5908 47.5656 21.2626 47.2374C20.9344 46.9093 20.75 46.4641 20.75 46V30.25C20.75 29.7859 20.9344 29.3408 21.2626 29.0126C21.5908 28.6844 22.0359 28.5 22.5 28.5H57.5ZM57.5 26.75H22.5C21.5717 26.75 20.6815 27.1187 20.0251 27.7751C19.3687 28.4315 19 29.3217 19 30.25V46C19 46.9283 19.3687 47.8185 20.0251 48.4749C20.6815 49.1313 21.5717 49.5 22.5 49.5H34.0325C34.4916 49.4981 34.9315 49.3158 35.2575 48.9925L36.2375 48.0125C36.3189 47.9279 36.4169 47.861 36.5253 47.8159C36.6336 47.7707 36.7501 47.7483 36.8675 47.75H43.1325C43.2499 47.7483 43.3664 47.7707 43.4747 47.8159C43.5831 47.861 43.6811 47.9279 43.7625 48.0125L44.7425 48.9925C45.0685 49.3158 45.5084 49.4981 45.9675 49.5H57.5C58.4283 49.5 59.3185 49.1313 59.9749 48.4749C60.6312 47.8185 61 46.9283 61 46V30.25C61 29.3217 60.6312 28.4315 59.9749 27.7751C59.3185 27.1187 58.4283 26.75 57.5 26.75Z" fill="white"/>
<path d="M19 32V44.25H17.25V32H19ZM20.75 30.25H17.25C16.7859 30.25 16.3408 30.4344 16.0126 30.7626C15.6844 31.0908 15.5 31.5359 15.5 32V44.25C15.5 44.7141 15.6844 45.1592 16.0126 45.4874C16.3408 45.8156 16.7859 46 17.25 46H20.75V30.25Z" fill="white"/>
<path d="M62.75 32V44.25H61V32H62.75ZM62.75 30.25H59.25V46H62.75C63.2141 46 63.6592 45.8156 63.9874 45.4874C64.3156 45.1592 64.5 44.7141 64.5 44.25V32C64.5 31.5359 64.3156 31.0908 63.9874 30.7626C63.6592 30.4344 63.2141 30.25 62.75 30.25Z" fill="white"/>
<path fill-rule="evenodd" clip-rule="evenodd" d="M42.9519 44.2461V39.9936H44.7212L47.2596 44.2461H49.625L46.9519 39.8186C48.4519 39.2936 49.4712 38.3486 49.4712 36.7211C49.4712 34.9011 47.9904 33.7461 45.5673 33.7461H40.875V44.2461H42.9519ZM47.413 36.862C47.413 37.702 46.836 38.2445 45.5668 38.2445H42.9514V35.4795H45.5668C46.8553 35.4795 47.413 36.022 47.413 36.862Z" fill="white"/>
<path d="M22 35.0039H23.77V38.5039H22V35.0039Z" fill="white"/>
<path d="M22 33.5V36.1127C22 36.6027 22.3973 37 22.8873 37C23.3774 37 23.7747 36.6027 23.7747 36.1127V33.1105C23.7747 32.3557 24.3866 31.7438 25.1414 31.7438H28.1281C28.6096 31.7438 29 31.3534 29 30.8719C29 30.3904 28.6096 30 28.1281 30H25.5541H25.5C23.567 30 22 31.567 22 33.5Z" fill="white"/>
<path d="M27.999 30H34.999V31.74H27.999V30Z" fill="white"/>
<path d="M31.25 33.75L34.5312 44.25H36.7188L40 33.75H37.8125L35.625 41.079L33.4375 33.75H31.25Z" fill="white"/>
</svg>
