<svg width="56" height="56" viewBox="0 0 56 56" fill="none" xmlns="http://www.w3.org/2000/svg">
<circle cx="28" cy="28" r="28" fill="#E3E8EC"/>
<path fill-rule="evenodd" clip-rule="evenodd" d="M21.333 26.332V12.5195C21.333 11.857 22.133 11.332 23.1235 11.332H25.1616H32.8568C33.3521 11.332 33.8092 11.4695 34.133 11.682C34.4568 11.8945 34.6663 12.1945 34.6663 12.5195V25.082V40.1445C34.6663 40.807 33.8663 41.332 32.8759 41.332H30.8378H23.1425C22.8949 41.332 22.6473 41.2945 22.4378 41.232C21.7902 41.057 21.333 40.632 21.333 40.1445V26.332ZM32.9997 25.1199V12.9987H25.0197H22.9997V26.332V39.6654H30.9797H32.9997V25.1199Z" fill="#101828"/>
<rect x="26.333" y="39.668" width="3.33333" height="5" rx="0.5" fill="#101828"/>
<path d="M24.667 21.332V19.6654H31.3337V21.332H24.667Z" fill="#101828"/>
<path d="M24.667 26.332V24.6654H31.3337V26.332H24.667Z" fill="#101828"/>
<path d="M24.667 31.332V29.6654H31.3337V31.332H24.667Z" fill="#101828"/>
<path d="M24.667 36.332V34.6654H31.3337V36.332H24.667Z" fill="#101828"/>
<path d="M28 15.7969C28.3068 15.7969 28.562 16.018 28.6149 16.3095L28.625 16.4219V42.3474C28.625 42.6926 28.3452 42.9724 28 42.9724C27.6932 42.9724 27.438 42.7513 27.3851 42.4597L27.375 42.3474V16.4219C27.375 16.0767 27.6548 15.7969 28 15.7969Z" fill="#101828"/>
</svg>
