<svg width="40" height="40" viewBox="0 0 40 40" fill="none" xmlns="http://www.w3.org/2000/svg">
<path fill-rule="evenodd" clip-rule="evenodd" d="M13.333 18.332V4.51953C13.333 3.85703 14.133 3.33203 15.1235 3.33203H17.1616H24.8568C25.3521 3.33203 25.8092 3.46953 26.133 3.68203C26.4568 3.89453 26.6663 4.19453 26.6663 4.51953V17.082V32.1445C26.6663 32.807 25.8663 33.332 24.8759 33.332H22.8378H15.1425C14.8949 33.332 14.6473 33.2945 14.4378 33.232C13.7902 33.057 13.333 32.632 13.333 32.1445L13.333 18.332ZM24.9997 17.1199V4.9987H17.0197H14.9997L14.9997 18.332V31.6654H22.9797H24.9997V17.1199Z" fill="#101828"/>
<rect x="18.333" y="31.668" width="3.33333" height="5" rx="0.5" fill="#101828"/>
<path d="M16.667 13.332V11.6654H23.3337V13.332H16.667Z" fill="#101828"/>
<path d="M16.667 18.332V16.6654H23.3337V18.332H16.667Z" fill="#101828"/>
<path d="M16.667 23.332V21.6654H23.3337V23.332H16.667Z" fill="#101828"/>
<path d="M16.667 28.332V26.6654H23.3337V28.332H16.667Z" fill="#101828"/>
<path d="M20 7.79688C20.3068 7.79688 20.562 8.01797 20.6149 8.30953L20.625 8.42188V34.3474C20.625 34.6926 20.3452 34.9724 20 34.9724C19.6932 34.9724 19.438 34.7513 19.3851 34.4597L19.375 34.3474V8.42188C19.375 8.0767 19.6548 7.79688 20 7.79688Z" fill="#101828"/>
</svg>
