<?xml version="1.0" encoding="UTF-8"?>
<svg width="80px" height="80px" viewBox="0 0 80 80" version="1.1" xmlns="http://www.w3.org/2000/svg" xmlns:xlink="http://www.w3.org/1999/xlink">
    <!-- Generator: Sketch 64 (93537) - https://sketch.com -->
    <title>275-B80px</title>
    <desc>Created with Sketch.</desc>
    <g id="275-B80px" stroke="none" stroke-width="1" fill="none" fill-rule="evenodd">
        <g>
            <path d="M39.375,63.475 C39.2,63.475 39.025,63.425 38.85,63.35 C38.4,63.15 38.125,62.7 38.125,62.225 L38.125,42.075 L28.3,50.175 L26.725,48.25 L37.475,39.4 L26.675,29.7 L28.35,27.85 L38.15,36.65 L38.15,17.025 C38.15,16.525 38.45,16.075 38.9,15.875 C39.35,15.675 39.875,15.75 40.25,16.075 L53.3,27.725 C53.575,27.975 53.725,28.325 53.725,28.675 C53.725,29.05 53.55,29.375 53.275,29.625 L41.325,39.45 L53.375,50.3 C53.65,50.55 53.8,50.9 53.8,51.25 C53.8,51.6 53.625,51.95 53.35,52.175 L40.225,63.15 C39.95,63.375 39.675,63.475 39.375,63.475 Z M40.625,42.25 L40.625,59.55 L50.6,51.225 L40.625,42.25 Z M40.625,19.825 L40.625,36.775 L50.5,28.65 L40.625,19.825 Z" id="Shape" fill="#101828" fill-rule="nonzero"></path>
            <rect id="Rectangle" x="0" y="0" width="80" height="80"></rect>
        </g>
    </g>
</svg>