<?xml version="1.0" encoding="UTF-8"?>
<svg width="42px" height="42px" viewBox="0 0 42 42" version="1.1" xmlns="http://www.w3.org/2000/svg" xmlns:xlink="http://www.w3.org/1999/xlink">
    <!-- Generator: Sketch 64 (93537) - https://sketch.com -->
    <title>275-G40px</title>
    <desc>Created with Sketch.</desc>
    <g id="NEW_icons" stroke="none" stroke-width="1" fill="none" fill-rule="evenodd">
        <g id="icons_UD_new-Copy" transform="translate(-1601.000000, -34919.000000)">
            <g id="275-G40px" transform="translate(1602.000000, 34920.000000)">
                <circle id="Oval-Copy-1519" stroke="#E3E8EC" cx="20" cy="20" r="20"></circle>
                <g id="275-B32px-Copy-6" transform="translate(4.000000, 4.000000)">
                    <path d="M15.75,25.39 C15.68,25.39 15.61,25.37 15.54,25.34 C15.36,25.26 15.25,25.08 15.25,24.89 L15.25,16.83 L11.32,20.07 L10.69,19.3 L14.99,15.76 L10.67,11.88 L11.34,11.14 L15.26,14.66 L15.26,6.81 C15.26,6.61 15.38,6.43 15.56,6.35 C15.74,6.27 15.95,6.3 16.1,6.43 L21.32,11.09 C21.43,11.19 21.49,11.33 21.49,11.47 C21.49,11.62 21.42,11.75 21.31,11.85 L16.53,15.78 L21.35,20.12 C21.46,20.22 21.52,20.36 21.52,20.5 C21.52,20.64 21.45,20.78 21.34,20.87 L16.09,25.26 C15.98,25.35 15.87,25.39 15.75,25.39 Z M16.25,16.9 L16.25,23.82 L20.24,20.49 L16.25,16.9 Z M16.25,7.93 L16.25,14.71 L20.2,11.46 L16.25,7.93 Z" id="Shape" fill="#101828" fill-rule="nonzero"></path>
                    <rect id="Rectangle" x="0" y="0" width="32" height="32"></rect>
                </g>
            </g>
        </g>
    </g>
</svg>