<?xml version="1.0" encoding="UTF-8"?>
<svg width="56px" height="56px" viewBox="0 0 56 56" version="1.1" xmlns="http://www.w3.org/2000/svg" xmlns:xlink="http://www.w3.org/1999/xlink">
    <!-- Generator: Sketch 64 (93537) - https://sketch.com -->
    <title>273-W56px</title>
    <desc>Created with Sketch.</desc>
    <g id="NEW_icons" stroke="none" stroke-width="1" fill="none" fill-rule="evenodd">
        <g id="icons_UD_new-Copy" transform="translate(-1992.000000, -34652.000000)">
            <g id="273-W56px" transform="translate(1992.000000, 34652.000000)">
                <circle id="Oval-Copy-1522" fill="#101828" cx="28" cy="28" r="28"></circle>
                <g id="273-B32px-Copy-7" transform="translate(8.000000, 8.000000)">
                    <g id="Group" transform="translate(13.750000, 30.000000)" fill="#FFFFFF" fill-rule="nonzero">
                        <rect id="Rectangle" x="0" y="0" width="1.25" height="3.75"></rect>
                        <rect id="Rectangle" x="3.75" y="0" width="1.25" height="3.75"></rect>
                        <rect id="Rectangle" x="7.5" y="0" width="1.25" height="3.75"></rect>
                        <rect id="Rectangle" x="11.25" y="0" width="1.25" height="3.75"></rect>
                    </g>
                    <g id="Group" transform="translate(13.750000, 6.250000)" fill="#FFFFFF" fill-rule="nonzero">
                        <rect id="Rectangle" x="0" y="0" width="1.25" height="3.75"></rect>
                        <rect id="Rectangle" x="3.75" y="0" width="1.25" height="3.75"></rect>
                        <rect id="Rectangle" x="7.5" y="0" width="1.25" height="3.75"></rect>
                        <rect id="Rectangle" x="11.25" y="0" width="1.25" height="3.75"></rect>
                    </g>
                    <g id="Group" transform="translate(30.000000, 13.750000)" fill="#FFFFFF" fill-rule="nonzero">
                        <rect id="Rectangle" x="0" y="0" width="3.75" height="1.25"></rect>
                        <rect id="Rectangle" x="0" y="3.75" width="3.75" height="1.25"></rect>
                        <rect id="Rectangle" x="0" y="7.5" width="3.75" height="1.25"></rect>
                        <rect id="Rectangle" x="0" y="11.25" width="3.75" height="1.25"></rect>
                    </g>
                    <g id="Group" transform="translate(6.250000, 13.750000)" fill="#FFFFFF" fill-rule="nonzero">
                        <rect id="Rectangle" x="0" y="0" width="3.75" height="1.25"></rect>
                        <rect id="Rectangle" x="0" y="3.75" width="3.75" height="1.25"></rect>
                        <rect id="Rectangle" x="0" y="7.5" width="3.75" height="1.25"></rect>
                        <rect id="Rectangle" x="0" y="11.25" width="3.75" height="1.25"></rect>
                    </g>
                    <path d="M28.75,10 L11.25,10 C10.5625,10 10,10.5625 10,11.25 L10,28.75 C10,29.4375 10.5625,30 11.25,30 L28.75,30 C29.4375,30 30,29.4375 30,28.75 L30,11.25 C30,10.5625 29.4375,10 28.75,10 Z M28.75,28.75 L11.25,28.75 L11.25,11.25 L28.75,11.25 L28.75,28.75 Z" id="Shape" fill="#FFFFFF" fill-rule="nonzero"></path>
                    <path d="M28.75,10 L11.25,10 C10.5625,10 10,10.5625 10,11.25 L10,28.75 C10,29.4375 10.5625,30 11.25,30 L28.75,30 C29.4375,30 30,29.4375 30,28.75 L30,11.25 C30,10.5625 29.4375,10 28.75,10 Z M28.75,28.75 L11.25,28.75 L11.25,11.25 L28.75,11.25 L28.75,28.75 Z" id="Shape" fill="#FFFFFF" fill-rule="nonzero"></path>
                    <path d="M25,13.75 L15,13.75 C14.3125,13.75 13.75,14.3125 13.75,15 L13.75,25 C13.75,25.6875 14.3125,26.25 15,26.25 L25,26.25 C25.6875,26.25 26.25,25.6875 26.25,25 L26.25,15 C26.25,14.3125 25.6875,13.75 25,13.75 Z M25,25 L15,25 L15,15 L25,15 L25,25 Z" id="Shape" fill="#FFFFFF" fill-rule="nonzero"></path>
                    <rect id="Rectangle" x="0" y="0" width="40" height="40"></rect>
                </g>
            </g>
        </g>
    </g>
</svg>