<svg width="56" height="56" viewBox="0 0 56 56" fill="none" xmlns="http://www.w3.org/2000/svg">
<path fill-rule="evenodd" clip-rule="evenodd" d="M18.667 25.668L18.667 6.33047C18.667 5.40297 19.787 4.66797 21.1737 4.66797H24.027H34.8003C35.4937 4.66797 36.1337 4.86047 36.587 5.15797C37.0403 5.45547 37.3337 5.87547 37.3337 6.33047V23.918V45.0055C37.3337 45.933 36.2137 46.668 34.827 46.668H31.9737H21.2003C20.8537 46.668 20.507 46.6155 20.2137 46.528C19.307 46.283 18.667 45.688 18.667 45.0055V25.668ZM35.0003 23.971V7.0013H23.8283H21.0003L21.0003 25.668V44.3346H32.1723H35.0003V23.971Z" fill="#101828"/>
<rect x="25.667" y="44.332" width="4.66667" height="7" rx="0.5" fill="#101828"/>
<path d="M23.333 18.668V16.3346H32.6663V18.668H23.333Z" fill="#101828"/>
<path d="M23.333 25.668V23.3346H32.6663V25.668H23.333Z" fill="#101828"/>
<path d="M23.333 32.668V30.3346H32.6663V32.668H23.333Z" fill="#101828"/>
<path d="M23.333 39.668V37.3346H32.6663V39.668H23.333Z" fill="#101828"/>
<path d="M28 10.9141C28.4296 10.9141 28.7868 11.2236 28.8609 11.6318L28.875 11.7891V48.0848C28.875 48.568 28.4832 48.9598 28 48.9598C27.5704 48.9598 27.2132 48.6502 27.1391 48.242L27.125 48.0848V11.7891C27.125 11.3058 27.5168 10.9141 28 10.9141Z" fill="#101828"/>
</svg>
