<svg width="80" height="80" viewBox="0 0 80 80" fill="none" xmlns="http://www.w3.org/2000/svg">
<path fill-rule="evenodd" clip-rule="evenodd" d="M18.416 32H63.416V42H18.416V32ZM60.9159 39.5006V34.5006H20.9159V39.5006H60.9159Z" fill="#101828"/>
<path fill-rule="evenodd" clip-rule="evenodd" d="M58.4072 17.0405C58.5548 17.0191 58.6858 17 58.8167 17C60.0167 17 61.0667 17.825 61.2667 19.025L62.6417 26.375L18.4167 34.65L17.0417 27.3C16.7917 25.95 17.6917 24.65 19.0417 24.4L58.3417 17.05C58.3639 17.0468 58.3858 17.0436 58.4072 17.0405ZM59.7416 24.4006L58.8166 19.5006L19.5166 26.8506L20.4416 31.7506L59.7416 24.4006Z" fill="#101828"/>
<path d="M20.8535 32.0391L26.8432 23.3231L28.9037 24.7391L22.914 33.4551L20.8535 32.0391Z" fill="#101828"/>
<path d="M30.6924 30.2148L36.6814 21.4688L38.7441 22.8813L32.7551 31.6273L30.6924 30.2148Z" fill="#101828"/>
<path d="M40.5088 28.3633L46.5126 19.6268L48.5731 21.0428L42.5693 29.7793L40.5088 28.3633Z" fill="#101828"/>
<path d="M50.3457 26.5391L56.3495 17.8025L58.41 19.2185L52.4062 27.9551L50.3457 26.5391Z" fill="#101828"/>
<path d="M23.0426 41.7305L21.2676 39.9555L28.7676 32.4805L30.5426 34.2555L23.0426 41.7305Z" fill="#101828"/>
<path d="M33.0426 41.7305L31.2676 39.9555L38.7676 32.4805L40.5426 34.2555L33.0426 41.7305Z" fill="#101828"/>
<path d="M43.0426 41.7305L41.2676 39.9555L48.7676 32.4805L50.5426 34.2555L43.0426 41.7305Z" fill="#101828"/>
<path d="M53.0426 41.7305L51.2676 39.9555L58.7676 32.4805L60.5426 34.2555L53.0426 41.7305Z" fill="#101828"/>
<path d="M42.0924 61.8539V59.6289C42.0924 59.6039 42.1174 59.5539 42.1174 59.5289H20.9174V34.6039H60.9174V42.0039H61.9674C62.0174 42.0039 62.0674 42.0289 62.1174 42.0289V42.0039H63.4424V32.1289H18.4424V59.5539C18.4424 60.9289 19.5674 62.0539 20.9424 62.0539H42.1424C42.1174 61.9789 42.0924 61.9289 42.0924 61.8539Z" fill="#101828"/>
<path d="M39.7924 61.8539V59.6289C39.7924 59.6039 39.7674 59.5539 39.7674 59.5289H60.9674V34.6039H20.9674V42.0039H19.9174C19.8674 42.0039 19.8174 42.0289 19.7674 42.0289V42.0039H18.4424V32.1289H63.4424V59.5539C63.4424 60.9289 62.3174 62.0539 60.9424 62.0539H39.7424C39.7674 61.9789 39.7924 61.9289 39.7924 61.8539Z" fill="#101828"/>
</svg>
