<?xml version="1.0" encoding="UTF-8"?>
<svg width="56px" height="56px" viewBox="0 0 56 56" version="1.1" xmlns="http://www.w3.org/2000/svg" xmlns:xlink="http://www.w3.org/1999/xlink">
    <!-- Generator: Sketch 64 (93537) - https://sketch.com -->
    <title>275-W56px</title>
    <desc>Created with Sketch.</desc>
    <g id="NEW_icons" stroke="none" stroke-width="1" fill="none" fill-rule="evenodd">
        <g id="icons_UD_new-Copy" transform="translate(-1992.000000, -34903.000000)">
            <g id="275-W56px" transform="translate(1992.000000, 34903.000000)">
                <circle id="Oval-Copy-1523" fill="#101828" cx="28" cy="28" r="28"></circle>
                <g id="275-B32px-Copy-7" transform="translate(8.000000, 8.000000)">
                    <path d="M19.6875,31.7375 C19.6,31.7375 19.5125,31.7125 19.425,31.675 C19.2,31.575 19.0625,31.35 19.0625,31.1125 L19.0625,21.0375 L14.15,25.0875 L13.3625,24.125 L18.7375,19.7 L13.3375,14.85 L14.175,13.925 L19.075,18.325 L19.075,8.5125 C19.075,8.2625 19.225,8.0375 19.45,7.9375 C19.675,7.8375 19.9375,7.875 20.125,8.0375 L26.65,13.8625 C26.7875,13.9875 26.8625,14.1625 26.8625,14.3375 C26.8625,14.525 26.775,14.6875 26.6375,14.8125 L20.6625,19.725 L26.6875,25.15 C26.825,25.275 26.9,25.45 26.9,25.625 C26.9,25.8 26.8125,25.975 26.675,26.0875 L20.1125,31.575 C19.975,31.6875 19.8375,31.7375 19.6875,31.7375 Z M20.3125,21.125 L20.3125,29.775 L25.3,25.6125 L20.3125,21.125 Z M20.3125,9.9125 L20.3125,18.3875 L25.25,14.325 L20.3125,9.9125 Z" id="Shape" fill="#FFFFFF" fill-rule="nonzero"></path>
                    <rect id="Rectangle" x="0" y="0" width="40" height="40"></rect>
                </g>
            </g>
        </g>
    </g>
</svg>