<svg width="42" height="42" viewBox="0 0 42 42" fill="none" xmlns="http://www.w3.org/2000/svg">
<circle cx="21" cy="21" r="20" stroke="#E3E8EC"/>
<path d="M25.5095 18C25.0995 18 24.7695 18.34 24.7695 18.75C24.7695 19.16 25.0995 19.5 25.5095 19.5C25.9195 19.5 26.2495 19.16 26.2495 18.75C26.2495 18.34 25.9095 18 25.5095 18Z" fill="#101828"/>
<path d="M25.5095 15.5C25.0995 15.5 24.7695 15.84 24.7695 16.25C24.7695 16.66 25.0995 17 25.5095 17C25.9195 17 26.2495 16.66 26.2495 16.25C26.2495 15.84 25.9095 15.5 25.5095 15.5Z" fill="#101828"/>
<path d="M26.75 16.7383C26.34 16.7383 26 17.0783 26 17.4983C26 17.9183 26.34 18.2583 26.75 18.2583C27.16 18.2583 27.5 17.9183 27.5 17.4983C27.5 17.0783 27.16 16.7383 26.75 16.7383Z" fill="#101828"/>
<path d="M24.2595 16.75C23.8495 16.75 23.5195 17.09 23.5195 17.5C23.5195 17.92 23.8495 18.25 24.2595 18.25C24.6695 18.25 24.9995 17.92 24.9995 17.5C24.9995 17.08 24.6695 16.75 24.2595 16.75Z" fill="#101828"/>
<path d="M30.8098 19.8L29.3198 12.79C29.2198 12.33 28.8298 12 28.3698 12H21.8298H20.4998V9H19.4998V12H18.1698H11.6298C11.1698 12 10.7798 12.33 10.6898 12.79L9.18981 19.8C8.91981 21.15 8.86981 22.08 9.44981 23.37C10.1598 24.96 11.8798 26 13.5998 26C13.6298 26 13.6498 26 13.6798 26C16.1698 25.95 18.1798 23.88 18.1798 21.33H21.8298C21.8298 22.12 22.0398 22.85 22.3798 23.5C22.5998 23.22 22.8398 22.96 23.0998 22.72C22.9298 22.29 22.8298 21.82 22.8298 21.33V20.33H21.8298H18.1798H17.1798V21.33C17.1798 23.32 15.5998 24.96 13.6698 25H13.5998C12.2298 25 10.8998 24.16 10.3698 22.96C9.90981 21.92 9.92981 21.24 10.1798 20.01L11.6298 13H18.1698H21.8398H28.3398L29.8298 20C29.9498 20.6 30.0098 21.06 29.9998 21.5C30.3398 21.64 30.6598 21.81 30.9598 22C31.0498 21.31 30.9698 20.64 30.8098 19.8Z" fill="#101828"/>
<path d="M16.4797 17.0009H14.9997V15.4609H13.9997V17.0009H12.4697V18.0009H13.9997V19.4709H14.9997V18.0009H16.4797V17.0009Z" fill="#101828"/>
<path fill-rule="evenodd" clip-rule="evenodd" d="M26.9557 21.5053L27.1661 21.5L27.3966 21.5065C29.034 21.5985 30.4673 22.6562 31.1016 24.2499L31.15 24.372L31.4679 24.35L31.6047 24.3467C32.6397 24.3467 33.6223 24.7746 34.3599 25.5418C35.097 26.3157 35.5001 27.3396 35.5001 28.4351C35.4923 30.6751 33.744 32.5 31.5761 32.5L23.0283 32.48C21.0645 32.4566 19.4924 30.7811 19.5001 28.7446C19.5081 26.7802 20.9828 25.1498 22.8719 25.0407L23.003 25.033L23.0315 24.9062C23.4829 22.9741 25.0729 21.6009 26.9557 21.5053ZM27.1775 22.5L27.1661 22.5C25.6659 22.5 24.3697 23.5741 24.0066 25.128L23.8975 25.6213C23.8489 25.8408 23.6598 26.0009 23.4353 26.0127L22.9267 26.0392C21.5784 26.117 20.506 27.3027 20.5001 28.7486C20.4944 30.2462 21.6364 31.4634 23.0343 31.48L23.7037 31.48L31.5774 31.5C33.1824 31.5 34.4942 30.1308 34.5001 28.4333C34.5001 27.5944 34.1945 26.818 33.6374 26.2332C33.0879 25.6617 32.3646 25.3467 31.6047 25.3467C31.5415 25.3467 31.4902 25.3495 31.3703 25.3585L30.8596 25.3985C30.6406 25.4156 30.4361 25.2878 30.3555 25.0835L30.1719 24.6182C29.6593 23.3301 28.4893 22.5057 27.1775 22.5Z" fill="#101828"/>
</svg>
