<svg width="32" height="32" viewBox="0 0 32 32" fill="none" xmlns="http://www.w3.org/2000/svg">
<path fill-rule="evenodd" clip-rule="evenodd" d="M4.83984 3.83984H26.8398C27.3898 3.83984 27.8398 4.28984 27.8398 4.83984V26.8398C27.8398 27.3898 27.3898 27.8398 26.8398 27.8398H4.83984C4.28984 27.8398 3.83984 27.3898 3.83984 26.8398V4.83984C3.83984 4.28984 4.28984 3.83984 4.83984 3.83984ZM26.8398 26.8398V4.83984H4.83984V26.8398H26.8398Z" fill="#101828"/>
<path fill-rule="evenodd" clip-rule="evenodd" d="M15.8603 9.03834C16.4603 9.67834 17.2703 10.0283 18.1303 10.0283C18.2503 10.0283 18.3703 10.0183 18.4803 10.0083C19.8203 9.85834 20.9203 8.84834 21.1703 7.53834C21.3603 6.51834 21.0503 5.47834 20.3203 4.74834C19.5903 4.01834 18.5503 3.69834 17.5303 3.89834C16.3103 4.13834 15.3303 5.11834 15.1003 6.33834C14.9203 7.32834 15.2003 8.30834 15.8603 9.03834ZM17.7203 4.88834C17.8603 4.85834 18.0003 4.84834 18.1403 4.84834C18.6903 4.84834 19.2203 5.05834 19.6103 5.46834C20.1103 5.95834 20.3103 6.64834 20.1803 7.35834C20.0203 8.21834 19.2603 8.91834 18.3703 9.01834C17.7003 9.08834 17.0603 8.84834 16.6003 8.35834C16.1503 7.86834 15.9603 7.19834 16.0903 6.52834C16.2403 5.71834 16.9103 5.03834 17.7203 4.88834Z" fill="#101828"/>
<path fill-rule="evenodd" clip-rule="evenodd" d="M18.0896 27.4613C18.4196 27.7013 18.8096 27.8312 19.2096 27.8312C19.3096 27.8312 19.4096 27.8213 19.5096 27.8113C20.0096 27.7313 20.4596 27.4513 20.7496 27.0413C21.0396 26.6313 21.1596 26.1213 21.0796 25.6213L20.1796 20.3313C20.0796 19.6213 19.7496 18.9612 19.2296 18.4712L16.7096 16.0712L17.6796 14.0512L17.9796 14.5613C18.4296 15.3413 19.2696 15.8313 20.1696 15.8313H23.8796C24.6596 15.8313 25.3096 15.1912 25.3196 14.4012C25.3196 14.0113 25.1696 13.6513 24.8996 13.3713C24.6296 13.0912 24.2696 12.9413 23.8796 12.9413H20.8396C20.5996 12.9413 20.3796 12.8012 20.2596 12.5812L19.0396 10.0512C18.7396 9.43125 18.1096 9.03125 17.4196 9.03125H11.4796C9.93957 9.03125 8.51957 9.81125 7.70957 11.1312L6.60957 12.9113C6.29957 13.4113 6.27957 14.0212 6.56957 14.5312C6.85957 15.0413 7.37957 15.3513 7.96957 15.3513C8.49957 15.3513 8.98957 15.0813 9.26957 14.6413L10.5096 12.7113C10.8096 12.2413 11.3196 11.9613 11.8696 11.9613H12.7096L10.2896 15.7213C9.34957 17.3713 9.41957 19.6213 9.44957 20.1613H5.73957C5.07957 20.1613 4.47957 20.5013 4.11957 21.0513C3.77957 21.5713 3.75957 22.2212 4.05957 22.7712C4.35957 23.3212 4.90957 23.6512 5.53957 23.6512H10.8596C11.7196 23.6512 12.4696 23.0712 12.6796 22.2312L13.6096 18.5013L16.4996 20.7712L17.3296 26.2013C17.4096 26.7113 17.6796 27.1613 18.0896 27.4613ZM18.3196 26.0613L17.4796 20.5612C17.4496 20.3512 17.3396 20.1713 17.1896 20.0413L14.2896 17.7512C14.1096 17.4913 13.8096 17.3413 13.4796 17.3713C13.0996 17.4113 12.7996 17.6613 12.7096 18.0312L11.7196 21.9913C11.6196 22.3813 11.2696 22.6512 10.8696 22.6512H5.54957C5.28957 22.6512 5.05957 22.5113 4.93957 22.2913C4.80957 22.0613 4.81957 21.8013 4.95957 21.5813C5.12957 21.3112 5.41957 21.1512 5.73957 21.1512H9.57957C10.0696 21.1512 10.4496 20.7812 10.4596 20.2413C10.4596 20.24 10.4592 20.2344 10.4586 20.2248C10.4446 20.0079 10.2973 17.7252 11.1496 16.2312L14.0496 11.7313C14.1496 11.5812 14.1596 11.3813 14.0696 11.2213C13.9796 11.0612 13.8096 10.9613 13.6296 10.9613H11.8696C10.9796 10.9613 10.1496 11.4113 9.66957 12.1713L8.42957 14.1112C8.20957 14.4513 7.64957 14.4012 7.44957 14.0512C7.33957 13.8513 7.34957 13.6312 7.46957 13.4412L8.56957 11.6613C9.19957 10.6413 10.2896 10.0312 11.4896 10.0312H17.4296C17.7396 10.0312 18.0196 10.2112 18.1496 10.4813L19.3696 13.0213C19.6396 13.5813 20.2196 13.9412 20.8396 13.9412H23.8796C23.9896 13.9412 24.1096 13.9913 24.1896 14.0712C24.2796 14.1613 24.3196 14.2713 24.3196 14.3913C24.3196 14.6312 24.1196 14.8313 23.8796 14.8313H20.1696C19.6296 14.8313 19.1196 14.5312 18.8496 14.0512L18.0696 12.7413C17.9696 12.5812 17.7996 12.4813 17.6096 12.4913C17.4196 12.5013 17.2596 12.6012 17.1796 12.7713L15.6496 15.9612C15.5596 16.1612 15.5996 16.3913 15.7596 16.5413L18.5496 19.2013C18.8996 19.5413 19.1296 19.9913 19.1996 20.4913L20.0996 25.7913C20.1396 26.0312 20.0796 26.2612 19.9396 26.4613C19.7996 26.6513 19.5896 26.7812 19.3496 26.8213C19.1096 26.8613 18.8696 26.8012 18.6796 26.6612C18.4796 26.5112 18.3596 26.3013 18.3196 26.0613Z" fill="#101828"/>
</svg>
