<svg width="42" height="42" viewBox="0 0 42 42" fill="none" xmlns="http://www.w3.org/2000/svg">
<path d="M17.875 16C19.6009 16 21 14.6009 21 12.875C21 11.1491 19.6009 9.75 17.875 9.75C16.1491 9.75 14.75 11.1491 14.75 12.875C14.75 14.6009 16.1491 16 17.875 16ZM17.875 14.75C16.8395 14.75 16 13.9105 16 12.875C16 11.8395 16.8395 11 17.875 11C18.9105 11 19.75 11.8395 19.75 12.875C19.75 13.9105 18.9105 14.75 17.875 14.75Z" fill="#101828"/>
<path d="M24.75 16C26.1307 16 27.25 14.8807 27.25 13.5C27.25 12.1193 26.1307 11 24.75 11C23.3693 11 22.25 12.1193 22.25 13.5C22.25 14.8807 23.3693 16 24.75 16ZM24.75 14.75C24.0596 14.75 23.5 14.1904 23.5 13.5C23.5 12.8096 24.0596 12.25 24.75 12.25C25.4404 12.25 26 12.8096 26 13.5C26 14.1904 25.4404 14.75 24.75 14.75Z" fill="#101828"/>
<path d="M31 16C32.3807 16 33.5 14.8807 33.5 13.5C33.5 12.1193 32.3807 11 31 11C29.6193 11 28.5 12.1193 28.5 13.5C28.5 14.8807 29.6193 16 31 16ZM31 14.75C30.3096 14.75 29.75 14.1904 29.75 13.5C29.75 12.8096 30.3096 12.25 31 12.25C31.6904 12.25 32.25 12.8096 32.25 13.5C32.25 14.1904 31.6904 14.75 31 14.75Z" fill="#101828"/>
<path d="M11 16C12.3807 16 13.5 14.8807 13.5 13.5C13.5 12.1193 12.3807 11 11 11C9.61929 11 8.5 12.1193 8.5 13.5C8.5 14.8807 9.61929 16 11 16ZM11 14.75C10.3096 14.75 9.75 14.1904 9.75 13.5C9.75 12.8096 10.3096 12.25 11 12.25C11.6904 12.25 12.25 12.8096 12.25 13.5C12.25 14.1904 11.6904 14.75 11 14.75Z" fill="#101828"/>
<path d="M28.4998 21H27.2498V19.75C27.2498 19.0596 26.6901 18.5 25.9998 18.5H23.2864C23.1218 18.0342 22.8677 17.6107 22.5449 17.25H25.9998C27.3805 17.25 28.4998 18.3693 28.4998 19.75V21Z" fill="#101828"/>
<path d="M28.7949 17.25H32.2498C33.6305 17.25 34.7498 18.3693 34.7498 19.75V22.25H33.4998V19.75C33.4998 19.0596 32.9401 18.5 32.2498 18.5H29.5364C29.3718 18.0342 29.1177 17.6107 28.7949 17.25Z" fill="#101828"/>
<path d="M13.2049 17.25C12.882 17.6107 12.628 18.0342 12.4634 18.5H9.75C9.05965 18.5 8.5 19.0596 8.5 19.75V22.25H7.25V19.75C7.25 18.3693 8.36929 17.25 9.75 17.25H13.2049Z" fill="#101828"/>
<path d="M13.5 21V19.75C13.5 18.3693 14.6193 17.25 16 17.25H19.75C21.1307 17.25 22.25 18.3693 22.25 19.75V21H21V19.75C21 19.0596 20.4404 18.5 19.75 18.5H16C15.3096 18.5 14.75 19.0596 14.75 19.75V21H13.5Z" fill="#101828"/>
<path d="M11 33.5V23.5H31V33.5H32.25V23.5C32.25 22.8097 31.6903 22.25 31 22.25H11C10.3097 22.25 9.75 22.8097 9.75 23.5V33.5H11Z" fill="#101828"/>
<circle cx="21" cy="21" r="20" stroke="#E3E8EC" fill="transparent"/>
</svg>
