<?xml version="1.0" encoding="UTF-8"?>
<svg width="42px" height="42px" viewBox="0 0 42 42" version="1.1" xmlns="http://www.w3.org/2000/svg" xmlns:xlink="http://www.w3.org/1999/xlink">
    <!-- Generator: Sketch 64 (93537) - https://sketch.com -->
    <title>277-G40px</title>
    <desc>Created with Sketch.</desc>
    <g id="NEW_icons" stroke="none" stroke-width="1" fill="none" fill-rule="evenodd">
        <g id="icons_UD_new-Copy" transform="translate(-1602.000000, -35170.000000)">
            <g id="277-G40px" transform="translate(1603.000000, 35171.000000)">
                <circle id="Oval-Copy-1530" stroke="#E3E8EC" cx="20" cy="20" r="20"></circle>
                <g id="277-B32px-Copy" transform="translate(4.000000, 4.000000)">
                    <path d="M22.5,23 L9.5,23 C6.19,23 3.5,20.31 3.5,17 C3.5,13.69 6.19,11 9.5,11 L22.5,11 C25.81,11 28.5,13.69 28.5,17 C28.5,20.31 25.81,23 22.5,23 Z M9.5,12 C6.74,12 4.5,14.24 4.5,17 C4.5,19.76 6.74,22 9.5,22 L22.5,22 C25.26,22 27.5,19.76 27.5,17 C27.5,14.24 25.26,12 22.5,12 L9.5,12 Z" id="Shape" fill="#101828" fill-rule="nonzero"></path>
                    <path d="M9.5,20 C7.85,20 6.5,18.65 6.5,17 C6.5,15.35 7.85,14 9.5,14 C11.15,14 12.5,15.35 12.5,17 C12.5,18.65 11.15,20 9.5,20 Z M9.5,15 C8.4,15 7.5,15.9 7.5,17 C7.5,18.1 8.4,19 9.5,19 C10.6,19 11.5,18.1 11.5,17 C11.5,15.9 10.6,15 9.5,15 Z" id="Shape" fill="#101828" fill-rule="nonzero"></path>
                    <path d="M9.5,18 C8.95,18 8.5,17.55 8.5,17 C8.5,16.45 8.95,16 9.5,16 C10.05,16 10.5,16.45 10.5,17 C10.5,17.55 10.05,18 9.5,18 Z M9.5,17 C9.5,17 9.5,17 9.5,17 L10,17 L9.5,17 Z" id="Shape" fill="#101828" fill-rule="nonzero"></path>
                    <path d="M22.5,18 C21.95,18 21.5,17.55 21.5,17 C21.5,16.45 21.95,16 22.5,16 C23.05,16 23.5,16.45 23.5,17 C23.5,17.55 23.05,18 22.5,18 Z M22.5,17 C22.5,17 22.5,17 22.5,17 L23,17 L22.5,17 Z" id="Shape" fill="#101828" fill-rule="nonzero"></path>
                    <path d="M22.5,20 C20.85,20 19.5,18.65 19.5,17 C19.5,15.35 20.85,14 22.5,14 C24.15,14 25.5,15.35 25.5,17 C25.5,18.65 24.15,20 22.5,20 Z M22.5,15 C21.4,15 20.5,15.9 20.5,17 C20.5,18.1 21.4,19 22.5,19 C23.6,19 24.5,18.1 24.5,17 C24.5,15.9 23.6,15 22.5,15 Z" id="Shape" fill="#101828" fill-rule="nonzero"></path>
                    <rect id="Rectangle" fill="#101828" fill-rule="nonzero" x="13" y="15.8" width="1" height="2.4"></rect>
                    <rect id="Rectangle" fill="#101828" fill-rule="nonzero" x="14.67" y="14" width="1" height="6"></rect>
                    <rect id="Rectangle" fill="#101828" fill-rule="nonzero" x="16.33" y="15.2" width="1" height="3.6"></rect>
                    <rect id="Rectangle" fill="#101828" fill-rule="nonzero" x="18" y="16.4" width="1" height="1.2"></rect>
                    <rect id="Rectangle" x="0" y="0" width="32" height="32"></rect>
                </g>
            </g>
        </g>
    </g>
</svg>