<?xml version="1.0" encoding="UTF-8"?>
<svg width="42px" height="42px" viewBox="0 0 42 42" version="1.1" xmlns="http://www.w3.org/2000/svg" xmlns:xlink="http://www.w3.org/1999/xlink">
    <!-- Generator: Sketch 64 (93537) - https://sketch.com -->
    <title>276-G40px</title>
    <desc>Created with Sketch.</desc>
    <g id="NEW_icons" stroke="none" stroke-width="1" fill="none" fill-rule="evenodd">
        <g id="icons_UD_new-Copy" transform="translate(-321.000000, -35170.000000)">
            <g id="276-G40px" transform="translate(322.000000, 35171.000000)">
                <g id="Group-10">
                    <circle id="Oval-Copy-1692" stroke="#E3E8EC" cx="20" cy="20" r="20"></circle>
                    <g id="276-B32px-Copy-2" transform="translate(4.000000, 4.000000)">
                        <path d="M9,15.99 L9,21.99 L8,21.99 C7.46,21.99 7,21.63 7,21.21 L7,16.77 C7,16.35 7.46,15.99 8.01,15.99 L9,15.99 M10,14.99 L8.01,14.99 C6.9,14.99 6,15.79 6,16.77 L6,21.21 C6,22.19 6.89,22.99 8,22.99 L10,22.99 L10,14.99 L10,14.99 Z" id="Shape" fill="#101828" fill-rule="nonzero"></path>
                        <path d="M24,15.49 L23,15.49 L23,14.99 C23,13.92 22.63,12.78 21.9,11.61 C20.49,9.32 18.33,8.01 16,8.01 C13.67,8.01 11.52,9.32 10.1,11.6 C9.37,12.78 9,13.92 9,14.98 L9,15.48 L8,15.48 L8,14.98 C8,13.72 8.42,12.41 9.25,11.07 C10.85,8.49 13.31,7.01 16,7.01 L16,7.01 C18.69,7.01 21.15,8.49 22.76,11.08 C23.59,12.42 24.01,13.73 24.01,14.99 L24.01,15.49 L24,15.49 Z" id="Path" fill="#101828" fill-rule="nonzero"></path>
                        <path d="M24,15.99 C24.54,15.99 25,16.35 25,16.77 L25,21.21 C25,21.63 24.54,21.99 23.99,21.99 L23,21.99 L23,15.99 L24,15.99 M24,14.99 L22,14.99 L22,22.99 L23.99,22.99 C25.1,22.99 26,22.19 26,21.21 L26,16.77 C26,15.79 25.11,14.99 24,14.99 L24,14.99 Z" id="Shape" fill="#101828" fill-rule="nonzero"></path>
                        <rect id="Rectangle" x="0" y="0" width="32" height="32"></rect>
                    </g>
                </g>
            </g>
        </g>
    </g>
</svg>