<?xml version="1.0" encoding="UTF-8"?>
<svg width="56px" height="56px" viewBox="0 0 56 56" version="1.1" xmlns="http://www.w3.org/2000/svg" xmlns:xlink="http://www.w3.org/1999/xlink">
    <!-- Generator: Sketch 61.1 (89650) - https://sketch.com -->
    <title>269-W56px</title>
    <desc>Created with Sketch.</desc>
    <g id="NEW_icons" stroke="none" stroke-width="1" fill="none" fill-rule="evenodd">
        <g id="icons_UD_new-Copy" transform="translate(-1814.000000, -34151.000000)">
            <g id="269-W56px" transform="translate(1814.000000, 34151.000000)">
                <circle id="Oval-Copy-1510" fill="#101828" cx="28" cy="28" r="28"></circle>
                <g id="269-B32px-Copy-4" transform="translate(28.000000, 28.000000) rotate(-270.000000) translate(-28.000000, -28.000000) translate(8.000000, 8.000000)">
                    <rect id="Rectangle" x="0" y="0" width="40" height="40"></rect>
                    <path d="M21.75,5.625 C20.75,4.625 19.125,4.625 18.125,5.625 L11.75,12 L11.625,12.125 L11.625,12.125 L5.625,18.125 C5.125,18.625 4.875,19.25 4.875,20 C4.875,20.75 5.125,21.375 5.625,21.875 L12,28.25 L12.125,28.375 L12.125,28.375 L18.125,34.375 C18.625,34.875 19.25,35.125 20,35.125 C20.75,35.125 21.375,34.875 21.875,34.375 L28.25,28 L28.25,28 L28.25,28 L34.25,22 C34.75,21.5 35,20.875 35,20.125 C35,19.375 34.75,18.75 34.25,18.25 L21.75,5.625 Z M6.625,21 C6.375,20.75 6.25,20.375 6.25,20 C6.25,19.625 6.375,19.25 6.625,19 L11.125,14.5 L11.125,14.625 C11.125,15 11.375,15.375 11.75,15.75 L19.125,23.125 L14.875,27.375 C14.375,27.875 13.5,27.875 13,27.375 L6.625,21 Z M20,22.375 L17.625,20 L19.875,17.625 L22.25,20 L20,22.375 Z M33.375,19.125 C33.625,19.375 33.75,19.75 33.75,20.125 C33.75,20.5 33.625,20.875 33.375,21.125 L28.875,25.625 C28.875,25.125 28.625,24.75 28.25,24.375 L20.875,17 L25.125,12.75 C25.625,12.25 26.5,12.25 27,12.75 L33.375,19.125 Z" id="Shape" fill="#FFFFFF" fill-rule="nonzero"></path>
                </g>
            </g>
        </g>
    </g>
</svg>