<svg width="56" height="56" viewBox="0 0 56 56" fill="none" xmlns="http://www.w3.org/2000/svg">
<path fill-rule="evenodd" clip-rule="evenodd" d="M8.46973 6.71875H46.9697C47.9322 6.71875 48.7197 7.50625 48.7197 8.46875V46.9688C48.7197 47.9313 47.9322 48.7188 46.9697 48.7188H8.46973C7.50723 48.7188 6.71973 47.9313 6.71973 46.9688V8.46875C6.71973 7.50625 7.50723 6.71875 8.46973 6.71875ZM46.9697 46.9688V8.46875H8.46973V46.9688H46.9697Z" fill="#101828"/>
<path fill-rule="evenodd" clip-rule="evenodd" d="M27.7546 15.82C28.8046 16.94 30.2221 17.5525 31.7271 17.5525C31.9371 17.5525 32.1471 17.535 32.3396 17.5175C34.6846 17.255 36.6096 15.4875 37.0471 13.195C37.3796 11.41 36.8371 9.59003 35.5596 8.31253C34.2821 7.03503 32.4621 6.47503 30.6771 6.82503C28.5421 7.24503 26.8271 8.96003 26.4246 11.095C26.1096 12.8275 26.5996 14.5425 27.7546 15.82ZM31.0096 8.55753C31.2546 8.50503 31.4996 8.48753 31.7446 8.48753C32.7071 8.48753 33.6346 8.85503 34.3171 9.57253C35.1921 10.43 35.5421 11.6375 35.3146 12.88C35.0346 14.385 33.7046 15.61 32.1471 15.785C30.9746 15.9075 29.8546 15.4875 29.0496 14.63C28.2621 13.7725 27.9296 12.6 28.1571 11.4275C28.4196 10.01 29.5921 8.82003 31.0096 8.55753Z" fill="#101828"/>
<path fill-rule="evenodd" clip-rule="evenodd" d="M31.657 48.0533C32.2345 48.4733 32.917 48.7008 33.617 48.7008C33.792 48.7008 33.967 48.6833 34.142 48.6658C35.017 48.5258 35.8045 48.0358 36.312 47.3183C36.8195 46.6008 37.0295 45.7083 36.8895 44.8333L35.3145 35.5758C35.1395 34.3333 34.562 33.1783 33.652 32.3208L29.242 28.1208L30.9395 24.5858L31.4645 25.4783C32.252 26.8433 33.722 27.7008 35.297 27.7008H41.7895C43.1545 27.7008 44.292 26.5808 44.3095 25.1983C44.3095 24.5158 44.047 23.8858 43.5745 23.3958C43.102 22.9058 42.472 22.6433 41.7895 22.6433H36.4695C36.0495 22.6433 35.6645 22.3983 35.4545 22.0133L33.3195 17.5858C32.7945 16.5008 31.692 15.8008 30.4845 15.8008H20.0895C17.3945 15.8008 14.9095 17.1658 13.492 19.4758L11.567 22.5908C11.0245 23.4658 10.9895 24.5333 11.497 25.4258C12.0045 26.3183 12.9145 26.8608 13.947 26.8608C14.8745 26.8608 15.732 26.3883 16.222 25.6183L18.392 22.2408C18.917 21.4183 19.8095 20.9283 20.772 20.9283H22.242L18.007 27.5083C16.362 30.3958 16.4845 34.3333 16.537 35.2783H10.0445C8.88949 35.2783 7.83949 35.8733 7.20949 36.8358C6.61449 37.7458 6.57949 38.8833 7.10449 39.8458C7.62949 40.8083 8.59199 41.3858 9.69449 41.3858H19.0045C20.5095 41.3858 21.822 40.3708 22.1895 38.9008L23.817 32.3733L28.8745 36.3458L30.327 45.8483C30.467 46.7408 30.9395 47.5283 31.657 48.0533ZM32.0595 45.6033L30.5895 35.9783C30.537 35.6108 30.3445 35.2958 30.082 35.0683L25.007 31.0608C24.692 30.6058 24.167 30.3433 23.5895 30.3958C22.9245 30.4658 22.3995 30.9033 22.242 31.5508L20.5095 38.4808C20.3345 39.1633 19.722 39.6358 19.022 39.6358H9.71199C9.25699 39.6358 8.85449 39.3908 8.64449 39.0058C8.41699 38.6033 8.43449 38.1483 8.67949 37.7633C8.97699 37.2908 9.48449 37.0108 10.0445 37.0108H16.7645C17.622 37.0108 18.287 36.3633 18.3045 35.4183C18.3045 35.4161 18.3039 35.4063 18.3028 35.3896C18.2783 35.0099 18.0204 31.0152 19.512 28.4008L24.587 20.5258C24.762 20.2633 24.7795 19.9133 24.622 19.6333C24.4645 19.3533 24.167 19.1783 23.852 19.1783H20.772C19.2145 19.1783 17.762 19.9658 16.922 21.2958L14.752 24.6908C14.367 25.2858 13.387 25.1983 13.037 24.5858C12.8445 24.2358 12.862 23.8508 13.072 23.5183L14.997 20.4033C16.0995 18.6183 18.007 17.5508 20.107 17.5508H30.502C31.0445 17.5508 31.5345 17.8658 31.762 18.3383L33.897 22.7833C34.3695 23.7633 35.3845 24.3933 36.4695 24.3933H41.7895C41.982 24.3933 42.192 24.4808 42.332 24.6208C42.4895 24.7783 42.5595 24.9708 42.5595 25.1808C42.5595 25.6008 42.2095 25.9508 41.7895 25.9508H35.297C34.352 25.9508 33.4595 25.4258 32.987 24.5858L31.622 22.2933C31.447 22.0133 31.1495 21.8383 30.817 21.8558C30.4845 21.8733 30.2045 22.0483 30.0645 22.3458L27.387 27.9283C27.2295 28.2783 27.2995 28.6808 27.5795 28.9433L32.462 33.5983C33.0745 34.1933 33.477 34.9808 33.5995 35.8558L35.1745 45.1308C35.2445 45.5508 35.1395 45.9533 34.8945 46.3033C34.6495 46.6358 34.282 46.8633 33.862 46.9333C33.442 47.0033 33.022 46.8983 32.6895 46.6533C32.3395 46.3908 32.1295 46.0233 32.0595 45.6033Z" fill="#101828"/>
</svg>
