<svg width="40" height="40" viewBox="0 0 40 40" fill="none" xmlns="http://www.w3.org/2000/svg">
<path fill-rule="evenodd" clip-rule="evenodd" d="M12.8574 5.73047H33.125C33.9732 5.73047 35.0003 6.15669 35.0003 7.15904V19.659V32.5162C35.0003 33.5185 33.9732 34.2756 33.125 34.2756H12.8574C12.0093 34.2756 13.1075 34.2756 12.8574 34.2756L12.8574 7.15904C12.8574 6.15669 12.8574 6.34466 12.8574 5.73047ZM12.8574 32.942L33.5717 32.8733V7.15904H12.8574V32.942Z" fill="#101828"/>
<path fill-rule="evenodd" clip-rule="evenodd" d="M7.14259 3.58712L12.4997 3.58712C13.3517 3.58712 14.2854 3.3843 14.2854 4.58712V19.5871V35.0157C14.2854 36.2185 13.3517 36.4443 12.4997 36.4443H7.14259V5.01569C7.14259 3.81287 7.14259 4.32414 7.14259 3.58712ZM7.14258 35.0157H12.8569V5.01569H7.14259L7.14258 35.0157Z" fill="#101828"/>
<path fill-rule="evenodd" clip-rule="evenodd" d="M12.1426 3.58712L6.78544 3.58712C5.93342 3.58712 4.99971 3.3843 4.99971 4.58712V19.5871V35.0157C4.99971 36.2185 5.93342 36.4443 6.78544 36.4443H12.1426V5.01569C12.1426 3.81287 12.1426 4.32414 12.1426 3.58712ZM12.1426 35.0157H6.42829V5.01569H12.1426L12.1426 35.0157Z" fill="#101828"/>
<path fill-rule="evenodd" clip-rule="evenodd" d="M17.1426 17.1223C17.1426 17.8877 17.7689 18.5141 18.5344 18.5141C19.2999 18.5141 19.9262 17.8877 19.9262 17.1223C19.9262 16.3568 19.2999 15.7305 18.5344 15.7305C17.7689 15.7305 17.1426 16.3568 17.1426 17.1223Z" fill="#101828"/>
<path fill-rule="evenodd" clip-rule="evenodd" d="M22.71 17.1223C22.71 17.8877 23.3363 18.5141 24.1018 18.5141C24.8672 18.5141 25.4935 17.8877 25.4935 17.1223C25.4935 16.3568 24.8672 15.7305 24.1018 15.7305C23.3363 15.7305 22.71 16.3568 22.71 17.1223Z" fill="#101828"/>
<path fill-rule="evenodd" clip-rule="evenodd" d="M28.2773 17.1223C28.2773 17.8877 28.9037 18.5141 29.6691 18.5141C30.4346 18.5141 31.0609 17.8877 31.0609 17.1223C31.0609 16.3568 30.4346 15.7305 29.6691 15.7305C28.9037 15.7305 28.2773 16.3568 28.2773 17.1223Z" fill="#101828"/>
<path fill-rule="evenodd" clip-rule="evenodd" d="M17.1426 22.6887C17.1426 23.4542 17.7689 24.0805 18.5344 24.0805C19.2999 24.0805 19.9262 23.4542 19.9262 22.6887C19.9262 21.9232 19.2999 21.2969 18.5344 21.2969C17.7689 21.2969 17.1426 21.9232 17.1426 22.6887Z" fill="#101828"/>
<path fill-rule="evenodd" clip-rule="evenodd" d="M22.71 22.6887C22.71 23.4542 23.3363 24.0805 24.1018 24.0805C24.8672 24.0805 25.4935 23.4542 25.4935 22.6887C25.4935 21.9232 24.8672 21.2969 24.1018 21.2969C23.3363 21.2969 22.71 21.9232 22.71 22.6887Z" fill="#101828"/>
<path fill-rule="evenodd" clip-rule="evenodd" d="M28.2773 22.6887C28.2773 23.4542 28.9037 24.0805 29.6691 24.0805C30.4346 24.0805 31.0609 23.4542 31.0609 22.6887C31.0609 21.9232 30.4346 21.2969 29.6691 21.2969C28.9037 21.2969 28.2773 21.9232 28.2773 22.6887Z" fill="#101828"/>
<path fill-rule="evenodd" clip-rule="evenodd" d="M17.1426 28.2551C17.1426 29.0206 17.7689 29.6469 18.5344 29.6469C19.2999 29.6469 19.9262 29.0206 19.9262 28.2551C19.9262 27.4896 19.2999 26.8633 18.5344 26.8633C17.7689 26.8633 17.1426 27.4896 17.1426 28.2551Z" fill="#101828"/>
<path fill-rule="evenodd" clip-rule="evenodd" d="M22.71 28.2551C22.71 29.0206 23.3363 29.6469 24.1018 29.6469C24.8672 29.6469 25.4935 29.0206 25.4935 28.2551C25.4935 27.4896 24.8672 26.8633 24.1018 26.8633C23.3363 26.8633 22.71 27.4896 22.71 28.2551Z" fill="#101828"/>
<path fill-rule="evenodd" clip-rule="evenodd" d="M28.2773 28.2551C28.2773 29.0206 28.9037 29.6469 29.6691 29.6469C30.4346 29.6469 31.0609 29.0206 31.0609 28.2551C31.0609 27.4896 30.4346 26.8633 29.6691 26.8633C28.9037 26.8633 28.2773 27.4896 28.2773 28.2551Z" fill="#101828"/>
<path d="M17.1426 13.5898V10.3756H31.0711V13.5898H17.1426Z" fill="#101828"/>
</svg>
