<svg width="40" height="40" viewBox="0 0 40 40" fill="none" xmlns="http://www.w3.org/2000/svg">
<path d="M20 6.25C22.7195 6.25 25.3779 7.05642 27.6391 8.56729C29.9003 10.0782 31.6626 12.2256 32.7033 14.7381C33.744 17.2506 34.0163 20.0152 33.4858 22.6825C32.9553 25.3497 31.6457 27.7997 29.7227 29.7227C27.7997 31.6457 25.3497 32.9552 22.6825 33.4858C20.0153 34.0163 17.2506 33.744 14.7381 32.7033C12.2256 31.6626 10.0782 29.9003 8.5673 27.6391C7.05643 25.3779 6.25001 22.7195 6.25001 20C6.25567 16.355 7.70615 12.8609 10.2835 10.2835C12.8609 7.70614 16.355 6.25567 20 6.25ZM20 5C17.0333 5 14.1332 5.87973 11.6665 7.52795C9.19972 9.17618 7.27713 11.5189 6.14181 14.2597C5.0065 17.0006 4.70945 20.0166 5.28823 22.9263C5.86701 25.8361 7.29562 28.5088 9.3934 30.6066C11.4912 32.7044 14.1639 34.133 17.0737 34.7118C19.9834 35.2906 22.9994 34.9935 25.7403 33.8582C28.4811 32.7229 30.8238 30.8003 32.472 28.3335C34.1203 25.8668 35 22.9667 35 20C35 16.0217 33.4196 12.2064 30.6066 9.3934C27.7936 6.58035 23.9783 5 20 5Z" fill="black"/>
<path d="M20 12L22.473 16.9363L28 17.7297L24 21.5715L24.946 27L20 24.4363L15.054 27L16 21.5715L12 17.7297L17.527 16.9363L20 12Z" fill="black"/>
<path d="M29.7778 20H31C31 17.0826 29.8411 14.2847 27.7782 12.2218C25.7153 10.1589 22.9174 9 20 9V10.2222C22.5932 10.2222 25.0802 11.2524 26.9139 13.0861C28.7476 14.9198 29.7778 17.4068 29.7778 20Z" fill="black"/>
<path d="M20 29.7778C17.4068 29.7778 14.9198 28.7476 13.0861 26.9139C11.2524 25.0802 10.2222 22.5932 10.2222 20H9C9 22.9174 10.1589 25.7153 12.2218 27.7782C14.2847 29.8411 17.0826 31 20 31V29.7778Z" fill="black"/>
</svg>
