<svg width="32" height="32" viewBox="0 0 32 32" fill="none" xmlns="http://www.w3.org/2000/svg">
<path fill-rule="evenodd" clip-rule="evenodd" d="M10.667 14.668L10.667 3.61797C10.667 3.08797 11.307 2.66797 12.0994 2.66797H13.7298H19.886C20.2822 2.66797 20.6479 2.77797 20.907 2.94797C21.166 3.11797 21.3337 3.35797 21.3337 3.61797V13.668V25.718C21.3337 26.248 20.6937 26.668 19.9013 26.668H18.2708H12.1146C11.9165 26.668 11.7184 26.638 11.5508 26.588C11.0327 26.448 10.667 26.108 10.667 25.718V14.668ZM20.0003 13.6983V4.0013H13.6163H12.0003L12.0003 14.668V25.3346H18.3843H20.0003V13.6983Z" fill="#101828"/>
<rect x="14.667" y="25.332" width="2.66667" height="4" rx="0.5" fill="#101828"/>
<rect x="13.333" y="10.668" width="1.33333" height="5.33333" transform="rotate(-90 13.333 10.668)" fill="#101828"/>
<path d="M13.333 14.668V13.3346H18.6663V14.668H13.333Z" fill="#101828"/>
<rect x="13.333" y="18.668" width="1.33333" height="5.33333" transform="rotate(-90 13.333 18.668)" fill="#101828"/>
<path d="M13.333 22.668V21.3346H18.6663V22.668H13.333Z" fill="#101828"/>
<path d="M16 6.23438C16.2455 6.23438 16.4496 6.41125 16.4919 6.6445L16.5 6.73438V27.4748C16.5 27.7509 16.2761 27.9748 16 27.9748C15.7545 27.9748 15.5504 27.7979 15.5081 27.5646L15.5 27.4748V6.73438C15.5 6.45823 15.7239 6.23438 16 6.23438Z" fill="#101828"/>
</svg>
