<?xml version="1.0" encoding="UTF-8"?>
<svg width="32px" height="32px" viewBox="0 0 32 32" version="1.1" xmlns="http://www.w3.org/2000/svg" xmlns:xlink="http://www.w3.org/1999/xlink">
    <!-- Generator: Sketch 64 (93537) - https://sketch.com -->
    <title>278-B32px</title>
    <desc>Created with Sketch.</desc>
    <g id="278-B32px" stroke="none" stroke-width="1" fill="none" fill-rule="evenodd">
        <g>
            <path d="M26,10 L26,26 L15,26 L15,10 L26,10 M26,9 L15,9 C14.45,9 14,9.45 14,10 L14,26 C14,26.55 14.45,27 15,27 L26,27 C26.55,27 27,26.55 27,26 L27,10 C27,9.45 26.55,9 26,9 L26,9 Z" id="Shape" fill="#101828" fill-rule="nonzero"></path>
            <path d="M23.47,17.2 C23.45,17.16 23.41,17.14 23.37,17.14 L21.03,17.14 L22.1,13.14 C22.11,13.09 22.09,13.04 22.04,13.01 C21.99,12.99 21.94,13 21.9,13.04 L17.21,18.84 C17.18,18.87 17.18,18.92 17.2,18.96 C17.22,19 17.26,19.02 17.3,19.02 L19.64,19.02 L18.57,23.02 C18.56,23.07 18.58,23.12 18.63,23.15 C18.65,23.16 18.66,23.16 18.68,23.16 C18.71,23.16 18.74,23.15 18.77,23.12 L23.46,17.32 C23.48,17.29 23.49,17.24 23.47,17.2 Z" id="Path" fill="#101828" fill-rule="nonzero"></path>
            <path d="M19.5,10 L16.5,10 C16.22,10 16,9.78 16,9.5 L16,7.5 C16,7.22 16.22,7 16.5,7 L19.5,7 C19.78,7 20,7.22 20,7.5 L20,9.5 C20,9.78 19.78,10 19.5,10 Z M17,9 L19,9 L19,8 L17,8 L17,9 Z" id="Shape" fill="#101828" fill-rule="nonzero"></path>
            <path d="M9.5,25 L6.5,25 C6.22,25 6,24.78 6,24.5 L6,22.5 C6,22.22 6.22,22 6.5,22 L9.5,22 C9.78,22 10,22.22 10,22.5 L10,24.5 C10,24.78 9.78,25 9.5,25 Z M7,24 L9,24 L9,23 L7,23 L7,24 Z" id="Shape" fill="#101828" fill-rule="nonzero"></path>
            <path d="M8.5,27 L7.5,27 C7.22,27 7,26.78 7,26.5 L7,24.5 C7,24.22 7.22,24 7.5,24 L8.5,24 C8.78,24 9,24.22 9,24.5 L9,26.5 C9,26.78 8.78,27 8.5,27 Z M8,26 L8,25 L8,26 Z" id="Shape" fill="#101828" fill-rule="nonzero"></path>
            <path d="M8.5,22.5 L7.5,22.5 L7.5,6 C7.5,5.17 8.17,4.5 9,4.5 L17,4.5 C17.83,4.5 18.5,5.17 18.5,6 L18.5,7.5 L17.5,7.5 L17.5,6 C17.5,5.72 17.28,5.5 17,5.5 L9,5.5 C8.72,5.5 8.5,5.72 8.5,6 L8.5,22.5 Z" id="Path" fill="#101828" fill-rule="nonzero"></path>
            <rect id="Rectangle" x="0" y="0" width="32" height="32"></rect>
        </g>
    </g>
</svg>