<?xml version="1.0" encoding="UTF-8"?>
<svg width="80px" height="80px" viewBox="0 0 80 80" version="1.1" xmlns="http://www.w3.org/2000/svg" xmlns:xlink="http://www.w3.org/1999/xlink">
    <!-- Generator: Sketch 64 (93537) - https://sketch.com -->
    <title>277-B80px</title>
    <desc>Created with Sketch.</desc>
    <g id="277-B80px" stroke="none" stroke-width="1" fill="none" fill-rule="evenodd">
        <g>
            <path d="M56.25,57.5 L23.75,57.5 C15.475,57.5 8.75,50.775 8.75,42.5 C8.75,34.225 15.475,27.5 23.75,27.5 L56.25,27.5 C64.525,27.5 71.25,34.225 71.25,42.5 C71.25,50.775 64.525,57.5 56.25,57.5 Z M23.75,30 C16.85,30 11.25,35.6 11.25,42.5 C11.25,49.4 16.85,55 23.75,55 L56.25,55 C63.15,55 68.75,49.4 68.75,42.5 C68.75,35.6 63.15,30 56.25,30 L23.75,30 Z" id="Shape" fill="#101828" fill-rule="nonzero"></path>
            <path d="M23.75,50 C19.625,50 16.25,46.625 16.25,42.5 C16.25,38.375 19.625,35 23.75,35 C27.875,35 31.25,38.375 31.25,42.5 C31.25,46.625 27.875,50 23.75,50 Z M23.75,37.5 C21,37.5 18.75,39.75 18.75,42.5 C18.75,45.25 21,47.5 23.75,47.5 C26.5,47.5 28.75,45.25 28.75,42.5 C28.75,39.75 26.5,37.5 23.75,37.5 Z" id="Shape" fill="#101828" fill-rule="nonzero"></path>
            <path d="M23.75,45 C22.375,45 21.25,43.875 21.25,42.5 C21.25,41.125 22.375,40 23.75,40 C25.125,40 26.25,41.125 26.25,42.5 C26.25,43.875 25.125,45 23.75,45 Z M23.75,42.5 C23.75,42.5 23.75,42.5 23.75,42.5 L25,42.5 L23.75,42.5 Z" id="Shape" fill="#101828" fill-rule="nonzero"></path>
            <path d="M56.25,45 C54.875,45 53.75,43.875 53.75,42.5 C53.75,41.125 54.875,40 56.25,40 C57.625,40 58.75,41.125 58.75,42.5 C58.75,43.875 57.625,45 56.25,45 Z M56.25,42.5 C56.25,42.5 56.25,42.5 56.25,42.5 L57.5,42.5 L56.25,42.5 Z" id="Shape" fill="#101828" fill-rule="nonzero"></path>
            <path d="M56.25,50 C52.125,50 48.75,46.625 48.75,42.5 C48.75,38.375 52.125,35 56.25,35 C60.375,35 63.75,38.375 63.75,42.5 C63.75,46.625 60.375,50 56.25,50 Z M56.25,37.5 C53.5,37.5 51.25,39.75 51.25,42.5 C51.25,45.25 53.5,47.5 56.25,47.5 C59,47.5 61.25,45.25 61.25,42.5 C61.25,39.75 59,37.5 56.25,37.5 Z" id="Shape" fill="#101828" fill-rule="nonzero"></path>
            <rect id="Rectangle" fill="#101828" fill-rule="nonzero" x="32.5" y="39.5" width="2.5" height="6"></rect>
            <rect id="Rectangle" fill="#101828" fill-rule="nonzero" x="36.675" y="35" width="2.5" height="15"></rect>
            <rect id="Rectangle" fill="#101828" fill-rule="nonzero" x="40.825" y="38" width="2.5" height="9"></rect>
            <rect id="Rectangle" fill="#101828" fill-rule="nonzero" x="45" y="41" width="2.5" height="3"></rect>
            <rect id="Rectangle" x="0" y="0" width="80" height="80"></rect>
        </g>
    </g>
</svg>