<?xml version="1.0" encoding="UTF-8"?>
<svg width="80px" height="80px" viewBox="0 0 80 80" version="1.1" xmlns="http://www.w3.org/2000/svg" xmlns:xlink="http://www.w3.org/1999/xlink">
    <!-- Generator: Sketch 64 (93537) - https://sketch.com -->
    <title>278-W80px</title>
    <desc>Created with Sketch.</desc>
    <g id="NEW_icons" stroke="none" stroke-width="1" fill="none" fill-rule="evenodd">
        <g id="icons_UD_new-Copy" transform="translate(-1039.000000, -35382.000000)">
            <g id="278-W80px" transform="translate(1039.000000, 35382.000000)">
                <circle id="Oval-Copy-1656" fill="#101828" cx="40" cy="40" r="40"></circle>
                <g id="278-B32px-Copy-10" transform="translate(12.000000, 12.000000)">
                    <path d="M45.5,17.5 L45.5,45.5 L26.25,45.5 L26.25,17.5 L45.5,17.5 M45.5,15.75 L26.25,15.75 C25.2875,15.75 24.5,16.5375 24.5,17.5 L24.5,45.5 C24.5,46.4625 25.2875,47.25 26.25,47.25 L45.5,47.25 C46.4625,47.25 47.25,46.4625 47.25,45.5 L47.25,17.5 C47.25,16.5375 46.4625,15.75 45.5,15.75 L45.5,15.75 Z" id="Shape" fill="#FFFFFF" fill-rule="nonzero"></path>
                    <path d="M41.0725,30.1 C41.0375,30.03 40.9675,29.995 40.8975,29.995 L36.8025,29.995 L38.675,22.995 C38.6925,22.9075 38.6575,22.82 38.57,22.7675 C38.4825,22.7325 38.395,22.75 38.325,22.82 L30.1175,32.97 C30.065,33.0225 30.065,33.11 30.1,33.18 C30.135,33.25 30.205,33.285 30.275,33.285 L34.37,33.285 L32.4975,40.285 C32.48,40.3725 32.515,40.46 32.6025,40.5125 C32.6375,40.53 32.655,40.53 32.69,40.53 C32.7425,40.53 32.795,40.5125 32.8475,40.46 L41.055,30.31 C41.09,30.2575 41.1075,30.17 41.0725,30.1 Z" id="Path" fill="#FFFFFF" fill-rule="nonzero"></path>
                    <path d="M34.125,17.5 L28.875,17.5 C28.385,17.5 28,17.115 28,16.625 L28,13.125 C28,12.635 28.385,12.25 28.875,12.25 L34.125,12.25 C34.615,12.25 35,12.635 35,13.125 L35,16.625 C35,17.115 34.615,17.5 34.125,17.5 Z M29.75,15.75 L33.25,15.75 L33.25,14 L29.75,14 L29.75,15.75 Z" id="Shape" fill="#FFFFFF" fill-rule="nonzero"></path>
                    <path d="M16.625,43.75 L11.375,43.75 C10.885,43.75 10.5,43.365 10.5,42.875 L10.5,39.375 C10.5,38.885 10.885,38.5 11.375,38.5 L16.625,38.5 C17.115,38.5 17.5,38.885 17.5,39.375 L17.5,42.875 C17.5,43.365 17.115,43.75 16.625,43.75 Z M12.25,42 L15.75,42 L15.75,40.25 L12.25,40.25 L12.25,42 Z" id="Shape" fill="#FFFFFF" fill-rule="nonzero"></path>
                    <path d="M14.875,47.25 L13.125,47.25 C12.635,47.25 12.25,46.865 12.25,46.375 L12.25,42.875 C12.25,42.385 12.635,42 13.125,42 L14.875,42 C15.365,42 15.75,42.385 15.75,42.875 L15.75,46.375 C15.75,46.865 15.365,47.25 14.875,47.25 Z M14,45.5 L14,43.75 L14,45.5 Z" id="Shape" fill="#FFFFFF" fill-rule="nonzero"></path>
                    <path d="M14.875,39.375 L13.125,39.375 L13.125,10.5 C13.125,9.0475 14.2975,7.875 15.75,7.875 L29.75,7.875 C31.2025,7.875 32.375,9.0475 32.375,10.5 L32.375,13.125 L30.625,13.125 L30.625,10.5 C30.625,10.01 30.24,9.625 29.75,9.625 L15.75,9.625 C15.26,9.625 14.875,10.01 14.875,10.5 L14.875,39.375 Z" id="Path" fill="#FFFFFF" fill-rule="nonzero"></path>
                    <rect id="Rectangle" x="0" y="0" width="56" height="56"></rect>
                </g>
            </g>
        </g>
    </g>
</svg>