<svg width="56" height="56" viewBox="0 0 56 56" fill="none" xmlns="http://www.w3.org/2000/svg">
<circle cx="28" cy="28" r="28" fill="#E3E8EC"/>
<path d="M24.875 23C26.6009 23 28 21.6009 28 19.875C28 18.1491 26.6009 16.75 24.875 16.75C23.1491 16.75 21.75 18.1491 21.75 19.875C21.75 21.6009 23.1491 23 24.875 23ZM24.875 21.75C23.8395 21.75 23 20.9105 23 19.875C23 18.8395 23.8395 18 24.875 18C25.9105 18 26.75 18.8395 26.75 19.875C26.75 20.9105 25.9105 21.75 24.875 21.75Z" fill="#101828"/>
<path d="M31.75 23C33.1307 23 34.25 21.8807 34.25 20.5C34.25 19.1193 33.1307 18 31.75 18C30.3693 18 29.25 19.1193 29.25 20.5C29.25 21.8807 30.3693 23 31.75 23ZM31.75 21.75C31.0596 21.75 30.5 21.1904 30.5 20.5C30.5 19.8096 31.0596 19.25 31.75 19.25C32.4404 19.25 33 19.8096 33 20.5C33 21.1904 32.4404 21.75 31.75 21.75Z" fill="#101828"/>
<path d="M38 23C39.3807 23 40.5 21.8807 40.5 20.5C40.5 19.1193 39.3807 18 38 18C36.6193 18 35.5 19.1193 35.5 20.5C35.5 21.8807 36.6193 23 38 23ZM38 21.75C37.3096 21.75 36.75 21.1904 36.75 20.5C36.75 19.8096 37.3096 19.25 38 19.25C38.6904 19.25 39.25 19.8096 39.25 20.5C39.25 21.1904 38.6904 21.75 38 21.75Z" fill="#101828"/>
<path d="M18 23C19.3807 23 20.5 21.8807 20.5 20.5C20.5 19.1193 19.3807 18 18 18C16.6193 18 15.5 19.1193 15.5 20.5C15.5 21.8807 16.6193 23 18 23ZM18 21.75C17.3096 21.75 16.75 21.1904 16.75 20.5C16.75 19.8096 17.3096 19.25 18 19.25C18.6904 19.25 19.25 19.8096 19.25 20.5C19.25 21.1904 18.6904 21.75 18 21.75Z" fill="#101828"/>
<path d="M35.4998 28H34.2498V26.75C34.2498 26.0596 33.6901 25.5 32.9998 25.5H30.2864C30.1218 25.0342 29.8677 24.6107 29.5449 24.25H32.9998C34.3805 24.25 35.4998 25.3693 35.4998 26.75V28Z" fill="#101828"/>
<path d="M35.7949 24.25H39.2498C40.6305 24.25 41.7498 25.3693 41.7498 26.75V29.25H40.4998V26.75C40.4998 26.0596 39.9401 25.5 39.2498 25.5H36.5364C36.3718 25.0342 36.1177 24.6107 35.7949 24.25Z" fill="#101828"/>
<path d="M20.2049 24.25C19.882 24.6107 19.628 25.0342 19.4634 25.5H16.75C16.0596 25.5 15.5 26.0596 15.5 26.75V29.25H14.25V26.75C14.25 25.3693 15.3693 24.25 16.75 24.25H20.2049Z" fill="#101828"/>
<path d="M20.5 28V26.75C20.5 25.3693 21.6193 24.25 23 24.25H26.75C28.1307 24.25 29.25 25.3693 29.25 26.75V28H28V26.75C28 26.0596 27.4404 25.5 26.75 25.5H23C22.3096 25.5 21.75 26.0596 21.75 26.75V28H20.5Z" fill="#101828"/>
<path d="M18 40.5V30.5H38V40.5H39.25V30.5C39.25 29.8097 38.6903 29.25 38 29.25H18C17.3097 29.25 16.75 29.8097 16.75 30.5V40.5H18Z" fill="#101828"/>
</svg>
