<svg width="40" height="40" viewBox="0 0 40 40" fill="none" xmlns="http://www.w3.org/2000/svg">
<path d="M25.6379 16.25C25.1254 16.25 24.7129 16.675 24.7129 17.1875C24.7129 17.7 25.1254 18.125 25.6379 18.125C26.1504 18.125 26.5629 17.7 26.5629 17.1875C26.5629 16.675 26.1379 16.25 25.6379 16.25Z" fill="#101828"/>
<path d="M25.6379 13.125C25.1254 13.125 24.7129 13.55 24.7129 14.0625C24.7129 14.575 25.1254 15 25.6379 15C26.1504 15 26.5629 14.575 26.5629 14.0625C26.5629 13.55 26.1379 13.125 25.6379 13.125Z" fill="#101828"/>
<path d="M27.1875 14.6758C26.675 14.6758 26.25 15.1008 26.25 15.6258C26.25 16.1508 26.675 16.5758 27.1875 16.5758C27.7 16.5758 28.125 16.1508 28.125 15.6258C28.125 15.1008 27.7 14.6758 27.1875 14.6758Z" fill="#101828"/>
<path d="M24.0754 14.6875C23.5629 14.6875 23.1504 15.1125 23.1504 15.625C23.1504 16.15 23.5629 16.5625 24.0754 16.5625C24.5879 16.5625 25.0004 16.15 25.0004 15.625C25.0004 15.1 24.5879 14.6875 24.0754 14.6875Z" fill="#101828"/>
<path d="M32.2623 18.5L30.3998 9.7375C30.2748 9.1625 29.7873 8.75 29.2123 8.75H21.0373H19.3748V5H18.1248V8.75H16.4623H8.28726C7.71226 8.75 7.22476 9.1625 7.11226 9.7375L5.23726 18.5C4.89976 20.1875 4.83726 21.35 5.56226 22.9625C6.44976 24.95 8.59976 26.25 10.7498 26.25C10.7873 26.25 10.8123 26.25 10.8498 26.25C13.9623 26.1875 16.4748 23.6 16.4748 20.4125H21.0373C21.0373 21.4 21.2998 22.3125 21.7248 23.125C21.9998 22.775 22.2998 22.45 22.6248 22.15C22.4123 21.6125 22.2873 21.025 22.2873 20.4125V19.1625H21.0373H16.4748H15.2248V20.4125C15.2248 22.9 13.2498 24.95 10.8373 25H10.7498C9.03726 25 7.37476 23.95 6.71226 22.45C6.13726 21.15 6.16226 20.3 6.47476 18.7625L8.28726 10H16.4623H21.0498H29.1748L31.0373 18.75C31.1873 19.5 31.2623 20.075 31.2498 20.625C31.6748 20.8 32.0748 21.0125 32.4498 21.25C32.5623 20.3875 32.4623 19.55 32.2623 18.5Z" fill="#101828"/>
<path d="M14.3504 14.9992H12.5004V13.0742H11.2504V14.9992H9.33789V16.2492H11.2504V18.0867H12.5004V16.2492H14.3504V14.9992Z" fill="#101828"/>
<path fill-rule="evenodd" clip-rule="evenodd" d="M27.4446 20.6317L27.7076 20.625L27.9957 20.6331C30.0425 20.7482 31.8342 22.0702 32.627 24.0623L32.6875 24.215L33.0848 24.1874L33.2558 24.1833C34.5496 24.1833 35.7779 24.7182 36.6998 25.6773C37.6213 26.6447 38.1251 27.9244 38.1251 29.2938C38.1154 32.0939 35.9299 34.375 33.2201 34.375L22.5354 34.35C20.0806 34.3208 18.1155 32.2263 18.1251 29.6808C18.1351 27.2253 19.9786 25.1872 22.3398 25.0508L22.5038 25.0413L22.5393 24.8828C23.1037 22.4676 25.0911 20.7512 27.4446 20.6317ZM27.7219 21.875L27.7076 21.875C25.8324 21.875 24.2121 23.2177 23.7582 25.1599L23.6218 25.7766C23.5612 26.051 23.3248 26.2512 23.0441 26.2658L22.4084 26.299C20.723 26.3963 19.3824 27.8784 19.3751 29.6857C19.368 31.5577 20.7956 33.0792 22.5428 33.1L23.3796 33.1L33.2217 33.125C35.228 33.125 36.8677 31.4135 36.8751 29.2917C36.8751 28.243 36.4931 27.2726 35.7967 26.5415C35.1099 25.8271 34.2058 25.4333 33.2558 25.4333C33.1769 25.4333 33.1128 25.4369 32.9628 25.4482L32.3245 25.4981C32.0507 25.5195 31.7951 25.3598 31.6943 25.1043L31.4649 24.5228C30.8241 22.9126 29.3616 21.8822 27.7219 21.875Z" fill="#101828"/>
</svg>
