<svg width="32" height="32" viewBox="0 0 32 32" fill="none" xmlns="http://www.w3.org/2000/svg">
<path fill-rule="evenodd" clip-rule="evenodd" d="M7.56641 13H25.5664V17H7.56641V13ZM24.566 16.0008V14.0008H8.56602V16.0008H24.566Z" fill="#101828"/>
<path fill-rule="evenodd" clip-rule="evenodd" d="M23.5629 7.01621C23.6219 7.00762 23.6743 7 23.7267 7C24.2067 7 24.6267 7.33 24.7067 7.81L25.2567 10.75L7.56668 14.06L7.01668 11.12C6.91668 10.58 7.27668 10.06 7.81668 9.96L23.5367 7.02C23.5456 7.01873 23.5543 7.01746 23.5629 7.01621ZM24.0966 9.96078L23.7266 8.00078L8.00664 10.9408L8.37664 12.9008L24.0966 9.96078Z" fill="#101828"/>
<path d="M8.54004 13.0117L10.9359 9.52535L11.7601 10.0918L9.36424 13.5781L8.54004 13.0117Z" fill="#101828"/>
<path d="M12.4766 12.2852L14.8722 8.78673L15.6973 9.35173L13.3017 12.8502L12.4766 12.2852Z" fill="#101828"/>
<path d="M16.4023 11.543L18.8039 8.04836L19.6281 8.61476L17.2265 12.1094L16.4023 11.543Z" fill="#101828"/>
<path d="M20.3379 10.8125L22.7394 7.31789L23.5636 7.88429L21.1621 11.3789L20.3379 10.8125Z" fill="#101828"/>
<path d="M9.41703 16.8914L8.70703 16.1814L11.707 13.1914L12.417 13.9014L9.41703 16.8914Z" fill="#101828"/>
<path d="M13.417 16.8914L12.707 16.1814L15.707 13.1914L16.417 13.9014L13.417 16.8914Z" fill="#101828"/>
<path d="M17.417 16.8914L16.707 16.1814L19.707 13.1914L20.417 13.9014L17.417 16.8914Z" fill="#101828"/>
<path d="M21.417 16.8914L20.707 16.1814L23.707 13.1914L24.417 13.9014L21.417 16.8914Z" fill="#101828"/>
<path d="M17.0362 24.9408V24.0508C17.0362 24.0408 17.0462 24.0208 17.0462 24.0108H8.56617V14.0408H24.5662V17.0008H24.9862C25.0062 17.0008 25.0262 17.0108 25.0462 17.0108V17.0008H25.5762V13.0508H7.57617V24.0208C7.57617 24.5708 8.02617 25.0208 8.57617 25.0208H17.0562C17.0462 24.9908 17.0362 24.9708 17.0362 24.9408Z" fill="#101828"/>
<path d="M16.1162 24.9408V24.0508C16.1162 24.0408 16.1062 24.0208 16.1062 24.0108H24.5862V14.0408H8.58617V17.0008H8.16617C8.14617 17.0008 8.12617 17.0108 8.10617 17.0108V17.0008H7.57617V13.0508H25.5762V24.0208C25.5762 24.5708 25.1262 25.0208 24.5762 25.0208H16.0962C16.1062 24.9908 16.1162 24.9708 16.1162 24.9408Z" fill="#101828"/>
</svg>
