<svg width="80" height="80" viewBox="0 0 80 80" fill="none" xmlns="http://www.w3.org/2000/svg">
<path fill-rule="evenodd" clip-rule="evenodd" d="M40 80C62.0914 80 80 62.0914 80 40C80 17.9086 62.0914 0 40 0C17.9086 0 0 17.9086 0 40C0 62.0914 17.9086 80 40 80Z" fill="#E3E8EC"/>
<path d="M57.5 29.5C57.9641 29.5 58.4092 29.6844 58.7374 30.0126C59.0656 30.3408 59.25 30.7859 59.25 31.25V47C59.25 47.4641 59.0656 47.9093 58.7374 48.2374C58.4092 48.5656 57.9641 48.75 57.5 48.75H45.9675L44.9875 47.77C44.4957 47.2776 43.8285 47.0006 43.1325 47H36.8675C36.1715 47.0006 35.5043 47.2776 35.0125 47.77L34.0325 48.75H22.5C22.0359 48.75 21.5908 48.5656 21.2626 48.2374C20.9344 47.9093 20.75 47.4641 20.75 47V31.25C20.75 30.7859 20.9344 30.3408 21.2626 30.0126C21.5908 29.6844 22.0359 29.5 22.5 29.5H57.5ZM57.5 27.75H22.5C21.5717 27.75 20.6815 28.1187 20.0251 28.7751C19.3687 29.4315 19 30.3217 19 31.25V47C19 47.9283 19.3687 48.8185 20.0251 49.4749C20.6815 50.1313 21.5717 50.5 22.5 50.5H34.0325C34.4916 50.4981 34.9315 50.3158 35.2575 49.9925L36.2375 49.0125C36.3189 48.9279 36.4169 48.861 36.5253 48.8159C36.6336 48.7707 36.7501 48.7483 36.8675 48.75H43.1325C43.2499 48.7483 43.3664 48.7707 43.4747 48.8159C43.5831 48.861 43.6811 48.9279 43.7625 49.0125L44.7425 49.9925C45.0685 50.3158 45.5084 50.4981 45.9675 50.5H57.5C58.4283 50.5 59.3185 50.1313 59.9749 49.4749C60.6312 48.8185 61 47.9283 61 47V31.25C61 30.3217 60.6312 29.4315 59.9749 28.7751C59.3185 28.1187 58.4283 27.75 57.5 27.75Z" fill="#101828"/>
<path d="M19 33V45.25H17.25V33H19ZM20.75 31.25H17.25C16.7859 31.25 16.3408 31.4344 16.0126 31.7626C15.6844 32.0908 15.5 32.5359 15.5 33V45.25C15.5 45.7141 15.6844 46.1592 16.0126 46.4874C16.3408 46.8156 16.7859 47 17.25 47H20.75V31.25Z" fill="#101828"/>
<path d="M62.75 33V45.25H61V33H62.75ZM62.75 31.25H59.25V47H62.75C63.2141 47 63.6592 46.8156 63.9874 46.4874C64.3156 46.1592 64.5 45.7141 64.5 45.25V33C64.5 32.5359 64.3156 32.0908 63.9874 31.7626C63.6592 31.4344 63.2141 31.25 62.75 31.25Z" fill="#101828"/>
<path fill-rule="evenodd" clip-rule="evenodd" d="M42.9519 45.2461V40.9936H44.7212L47.2596 45.2461H49.625L46.9519 40.8186C48.4519 40.2936 49.4712 39.3486 49.4712 37.7211C49.4712 35.9011 47.9904 34.7461 45.5673 34.7461H40.875V45.2461H42.9519ZM47.413 37.862C47.413 38.702 46.836 39.2445 45.5668 39.2445H42.9514V36.4795H45.5668C46.8553 36.4795 47.413 37.022 47.413 37.862Z" fill="#101828"/>
<path d="M22 36.0039H23.77V39.5039H22V36.0039Z" fill="#101828"/>
<path d="M22 34.5V37.1127C22 37.6027 22.3973 38 22.8873 38C23.3774 38 23.7747 37.6027 23.7747 37.1127V34.1105C23.7747 33.3557 24.3866 32.7438 25.1414 32.7438H28.1281C28.6096 32.7438 29 32.3534 29 31.8719C29 31.3904 28.6096 31 28.1281 31H25.5541H25.5C23.567 31 22 32.567 22 34.5Z" fill="#101828"/>
<path d="M27.999 31H34.999V32.74H27.999V31Z" fill="#101828"/>
<path d="M31.25 34.75L34.5312 45.25H36.7188L40 34.75H37.8125L35.625 42.079L33.4375 34.75H31.25Z" fill="#101828"/>
</svg>
