<svg width="40" height="40" viewBox="0 0 40 40" fill="none" xmlns="http://www.w3.org/2000/svg">
<path fill-rule="evenodd" clip-rule="evenodd" d="M8.70801 16.5H31.208V21.5H8.70801V16.5ZM29.958 20.25V17.75H9.95801V20.25H29.958Z" fill="#FFFFFF"/>
<path fill-rule="evenodd" clip-rule="evenodd" d="M28.7036 9.02026C28.7774 9.00953 28.8429 9 28.9084 9C29.5084 9 30.0334 9.4125 30.1334 10.0125L30.8209 13.6875L8.70835 17.825L8.02085 14.15C7.89585 13.475 8.34585 12.825 9.02085 12.7L28.6709 9.025C28.682 9.02341 28.6929 9.02182 28.7036 9.02026ZM29.3709 12.7L28.9084 10.25L9.25835 13.925L9.72085 16.375L29.3709 12.7Z" fill="#FFFFFF"/>
<path d="M9.92578 16.5156L12.9206 12.1577L13.9509 12.8657L10.956 17.2236L9.92578 16.5156Z" fill="#FFFFFF"/>
<path d="M14.8467 15.6055L17.8412 11.2324L18.8726 11.9387L15.8781 16.3117L14.8467 15.6055Z" fill="#FFFFFF"/>
<path d="M19.7539 14.6797L22.7558 10.3114L23.7861 11.0194L20.7842 15.3877L19.7539 14.6797Z" fill="#FFFFFF"/>
<path d="M24.6729 13.7656L27.6748 9.39737L28.705 10.1054L25.7031 14.4736L24.6729 13.7656Z" fill="#FFFFFF"/>
<path d="M11.0213 21.3633L10.1338 20.4758L13.8838 16.7383L14.7713 17.6258L11.0213 21.3633Z" fill="#FFFFFF"/>
<path d="M16.0213 21.3633L15.1338 20.4758L18.8838 16.7383L19.7713 17.6258L16.0213 21.3633Z" fill="#FFFFFF"/>
<path d="M21.0213 21.3633L20.1338 20.4758L23.8838 16.7383L24.7713 17.6258L21.0213 21.3633Z" fill="#FFFFFF"/>
<path d="M26.0213 21.3633L25.1338 20.4758L28.8838 16.7383L29.7713 17.6258L26.0213 21.3633Z" fill="#FFFFFF"/>
<path d="M20.5457 31.425V30.3125C20.5457 30.3 20.5582 30.275 20.5582 30.2625H9.9582V17.8H29.9582V21.5H30.4832C30.5082 21.5 30.5332 21.5125 30.5582 21.5125V21.5H31.2207V16.5625H8.7207V30.275C8.7207 30.9625 9.2832 31.525 9.9707 31.525H20.5707C20.5582 31.4875 20.5457 31.4625 20.5457 31.425Z" fill="#FFFFFF"/>
<path d="M19.3957 31.425V30.3125C19.3957 30.3 19.3832 30.275 19.3832 30.2625H29.9832V17.8H9.9832V21.5H9.4582C9.4332 21.5 9.4082 21.5125 9.3832 21.5125V21.5H8.7207V16.5625H31.2207V30.275C31.2207 30.9625 30.6582 31.525 29.9707 31.525H19.3707C19.3832 31.4875 19.3957 31.4625 19.3957 31.425Z" fill="#FFFFFF"/>
</svg>
