<?xml version="1.0" encoding="UTF-8"?>
<svg width="56px" height="56px" viewBox="0 0 56 56" version="1.1" xmlns="http://www.w3.org/2000/svg" xmlns:xlink="http://www.w3.org/1999/xlink">
    <!-- Generator: Sketch 64 (93537) - https://sketch.com -->
    <title>276-B56px</title>
    <desc>Created with Sketch.</desc>
    <g id="276-B56px" stroke="none" stroke-width="1" fill="none" fill-rule="evenodd">
        <g>
            <path d="M15.75,27.9825 L15.75,38.4825 L14,38.4825 C13.055,38.4825 12.25,37.8525 12.25,37.1175 L12.25,29.3475 C12.25,28.6125 13.055,27.9825 14.0175,27.9825 L15.75,27.9825 M17.5,26.2325 L14.0175,26.2325 C12.075,26.2325 10.5,27.6325 10.5,29.3475 L10.5,37.1175 C10.5,38.8325 12.0575,40.2325 14,40.2325 L17.5,40.2325 L17.5,26.2325 L17.5,26.2325 Z" id="Shape" fill="#101828" fill-rule="nonzero"></path>
            <path d="M42,27.1075 L40.25,27.1075 L40.25,26.2325 C40.25,24.36 39.6025,22.365 38.325,20.3175 C35.8575,16.31 32.0775,14.0175 28,14.0175 C23.9225,14.0175 20.16,16.31 17.675,20.3 C16.3975,22.365 15.75,24.36 15.75,26.215 L15.75,27.09 L14,27.09 L14,26.215 C14,24.01 14.735,21.7175 16.1875,19.3725 C18.9875,14.8575 23.2925,12.2675 28,12.2675 L28,12.2675 C32.7075,12.2675 37.0125,14.8575 39.83,19.39 C41.2825,21.735 42.0175,24.0275 42.0175,26.2325 L42.0175,27.1075 L42,27.1075 Z" id="Path" fill="#101828" fill-rule="nonzero"></path>
            <path d="M42,27.9825 C42.945,27.9825 43.75,28.6125 43.75,29.3475 L43.75,37.1175 C43.75,37.8525 42.945,38.4825 41.9825,38.4825 L40.25,38.4825 L40.25,27.9825 L42,27.9825 M42,26.2325 L38.5,26.2325 L38.5,40.2325 L41.9825,40.2325 C43.925,40.2325 45.5,38.8325 45.5,37.1175 L45.5,29.3475 C45.5,27.6325 43.9425,26.2325 42,26.2325 L42,26.2325 Z" id="Shape" fill="#101828" fill-rule="nonzero"></path>
            <rect id="Rectangle" x="0" y="0" width="56" height="56"></rect>
        </g>
    </g>
</svg>