<svg width="80" height="80" viewBox="0 0 80 80" fill="none" xmlns="http://www.w3.org/2000/svg">
<path fill-rule="evenodd" clip-rule="evenodd" d="M12.0996 9.60156H67.0996C68.4746 9.60156 69.5996 10.7266 69.5996 12.1016V67.1016C69.5996 68.4766 68.4746 69.6016 67.0996 69.6016H12.0996C10.7246 69.6016 9.59961 68.4766 9.59961 67.1016V12.1016C9.59961 10.7266 10.7246 9.60156 12.0996 9.60156ZM67.0996 67.1016V12.1016H12.0996V67.1016H67.0996Z" fill="#101828"/>
<path fill-rule="evenodd" clip-rule="evenodd" d="M39.6498 22.6017C41.1498 24.2017 43.1748 25.0767 45.3248 25.0767C45.6248 25.0767 45.9248 25.0517 46.1998 25.0267C49.5498 24.6517 52.2998 22.1267 52.9248 18.8517C53.3998 16.3017 52.6248 13.7017 50.7998 11.8767C48.9748 10.0517 46.3748 9.25172 43.8248 9.75172C40.7748 10.3517 38.3248 12.8017 37.7498 15.8517C37.2998 18.3267 37.9998 20.7767 39.6498 22.6017ZM44.2998 12.2267C44.6498 12.1517 44.9998 12.1267 45.3498 12.1267C46.7248 12.1267 48.0498 12.6517 49.0248 13.6767C50.2748 14.9017 50.7748 16.6267 50.4498 18.4017C50.0498 20.5517 48.1498 22.3017 45.9248 22.5517C44.2498 22.7267 42.6498 22.1267 41.4998 20.9017C40.3748 19.6767 39.8998 18.0017 40.2248 16.3267C40.5998 14.3017 42.2748 12.6017 44.2998 12.2267Z" fill="#101828"/>
<path fill-rule="evenodd" clip-rule="evenodd" d="M45.2244 68.6531C46.0494 69.2531 47.0244 69.5781 48.0244 69.5781C48.2744 69.5781 48.5244 69.5531 48.7744 69.5281C50.0244 69.3281 51.1494 68.6281 51.8744 67.6031C52.5994 66.5781 52.8994 65.3031 52.6994 64.0531L50.4494 50.8281C50.1994 49.0531 49.3744 47.4031 48.0744 46.1781L41.7744 40.1781L44.1994 35.1281L44.9494 36.4031C46.0744 38.3531 48.1744 39.5781 50.4244 39.5781H59.6994C61.6494 39.5781 63.2744 37.9781 63.2994 36.0031C63.2994 35.0281 62.9244 34.1281 62.2494 33.4281C61.5744 32.7281 60.6744 32.3531 59.6994 32.3531H52.0994C51.4994 32.3531 50.9494 32.0031 50.6494 31.4531L47.5994 25.1281C46.8494 23.5781 45.2744 22.5781 43.5494 22.5781H28.6994C24.8494 22.5781 21.2994 24.5281 19.2744 27.8281L16.5244 32.2781C15.7494 33.5281 15.6994 35.0531 16.4244 36.3281C17.1494 37.6031 18.4494 38.3781 19.9244 38.3781C21.2494 38.3781 22.4744 37.7031 23.1744 36.6031L26.2744 31.7781C27.0244 30.6031 28.2994 29.9031 29.6744 29.9031H31.7744L25.7244 39.3031C23.3744 43.4281 23.5494 49.0531 23.6244 50.4031H14.3494C12.6994 50.4031 11.1994 51.2531 10.2994 52.6281C9.44941 53.9281 9.39941 55.5531 10.1494 56.9281C10.8994 58.3031 12.2744 59.1281 13.8494 59.1281H27.1494C29.2994 59.1281 31.1744 57.6781 31.6994 55.5781L34.0244 46.2531L41.2494 51.9281L43.3244 65.5031C43.5244 66.7781 44.1994 67.9031 45.2244 68.6531ZM45.7994 65.1531L43.6994 51.4031C43.6244 50.8781 43.3494 50.4281 42.9744 50.1031L35.7244 44.3781C35.2744 43.7281 34.5244 43.3531 33.6994 43.4281C32.7494 43.5281 31.9994 44.1531 31.7744 45.0781L29.2994 54.9781C29.0494 55.9531 28.1744 56.6281 27.1744 56.6281H13.8744C13.2244 56.6281 12.6494 56.2781 12.3494 55.7281C12.0244 55.1531 12.0494 54.5031 12.3994 53.9531C12.8244 53.2781 13.5494 52.8781 14.3494 52.8781H23.9494C25.1744 52.8781 26.1244 51.9531 26.1494 50.6031C26.1494 50.5999 26.1485 50.5861 26.147 50.5621C26.112 50.0197 25.7436 44.313 27.8744 40.5781L35.1244 29.3281C35.3744 28.9531 35.3994 28.4531 35.1744 28.0531C34.9494 27.6531 34.5244 27.4031 34.0744 27.4031H29.6744C27.4494 27.4031 25.3744 28.5281 24.1744 30.4281L21.0744 35.2781C20.5244 36.1281 19.1244 36.0031 18.6244 35.1281C18.3494 34.6281 18.3744 34.0781 18.6744 33.6031L21.4244 29.1531C22.9994 26.6031 25.7244 25.0781 28.7244 25.0781H43.5744C44.3494 25.0781 45.0494 25.5281 45.3744 26.2031L48.4244 32.5531C49.0994 33.9531 50.5494 34.8531 52.0994 34.8531H59.6994C59.9744 34.8531 60.2744 34.9781 60.4744 35.1781C60.6994 35.4031 60.7994 35.6781 60.7994 35.9781C60.7994 36.5781 60.2994 37.0781 59.6994 37.0781H50.4244C49.0744 37.0781 47.7994 36.3281 47.1244 35.1281L45.1744 31.8531C44.9244 31.4531 44.4994 31.2031 44.0244 31.2281C43.5494 31.2531 43.1494 31.5031 42.9494 31.9281L39.1244 39.9031C38.8994 40.4031 38.9994 40.9781 39.3994 41.3531L46.3744 48.0031C47.2494 48.8531 47.8244 49.9781 47.9994 51.2281L50.2494 64.4781C50.3494 65.0781 50.1994 65.6531 49.8494 66.1531C49.4994 66.6281 48.9744 66.9531 48.3744 67.0531C47.7744 67.1531 47.1744 67.0031 46.6994 66.6531C46.1994 66.2781 45.8994 65.7531 45.7994 65.1531Z" fill="#101828"/>
</svg>
