<?xml version="1.0" encoding="UTF-8" standalone="no"?><!DOCTYPE svg PUBLIC "-//W3C//DTD SVG 1.1//EN" "http://www.w3.org/Graphics/SVG/1.1/DTD/svg11.dtd"><svg width="100%" height="100%" viewBox="0 0 26 26" version="1.1" xmlns="http://www.w3.org/2000/svg" xmlns:xlink="http://www.w3.org/1999/xlink" xml:space="preserve" xmlns:serif="http://www.serif.com/" style="fill-rule:evenodd;clip-rule:evenodd;stroke-linejoin:round;stroke-miterlimit:2;"><rect id="Capsula_ico" x="0" y="0" width="26" height="26" style="fill:none;"/><path d="M21.895,7.623c-0.553,-3.487 -3.482,-6.208 -7.112,-6.523c-0.533,-0.063 -1.149,-0.1 -1.807,-0.1c-0.718,0 -1.388,0.043 -1.952,0.118c-3.591,0.396 -6.457,3.15 -6.946,6.643c-0.19,1.219 -0.311,3.083 -0.311,5.17c0,2.128 0.126,4.024 0.323,5.241c0.025,0.17 0.056,0.336 0.092,0.501c0.025,0.116 0.05,0.221 0.077,0.317c0.766,2.881 3.183,5.112 6.2,5.664c0.652,0.13 1.54,0.211 2.517,0.211c0.815,0 1.568,-0.056 2.173,-0.15c3.403,-0.454 6.122,-3.028 6.718,-6.319c0.221,-1.192 0.366,-3.196 0.366,-5.465c0,-2.172 -0.134,-4.101 -0.338,-5.308Zm-8.895,1.425c2.208,0 4,1.793 4,4c0,2.208 -1.792,4 -4,4c-2.208,0 -4,-1.792 -4,-4c0,-2.207 1.792,-4 4,-4Zm0,1.587c1.332,0 2.413,1.082 2.413,2.413c0,1.332 -1.081,2.413 -2.413,2.413c-1.332,0 -2.413,-1.081 -2.413,-2.413c0,-1.331 1.081,-2.413 2.413,-2.413Z"/></svg>