<svg width="80" height="80" viewBox="0 0 80 80" fill="none" xmlns="http://www.w3.org/2000/svg">
<path fill-rule="evenodd" clip-rule="evenodd" d="M40 80C62.0914 80 80 62.0914 80 40C80 17.9086 62.0914 0 40 0C17.9086 0 0 17.9086 0 40C0 62.0914 17.9086 80 40 80Z" fill="#101828"/>
<path fill-rule="evenodd" clip-rule="evenodd" d="M24.9912 34.5H56.4912V41.5H24.9912V34.5ZM54.7412 39.75V36.25H26.7412V39.75H54.7412Z" fill="white"/>
<path fill-rule="evenodd" clip-rule="evenodd" d="M52.9851 24.0284C53.0884 24.0133 53.18 24 53.2717 24C54.1117 24 54.8467 24.5775 54.9867 25.4175L55.9492 30.5625L24.9917 36.355L24.0292 31.21C23.8542 30.265 24.4842 29.355 25.4292 29.18L52.9392 24.035C52.9548 24.0328 52.97 24.0306 52.9851 24.0284ZM53.9194 29.18L53.2719 25.75L25.7619 30.895L26.4094 34.325L53.9194 29.18Z" fill="white"/>
<path d="M26.6973 34.5273L30.89 28.4262L32.3324 29.4174L28.1396 35.5185L26.6973 34.5273Z" fill="white"/>
<path d="M33.585 33.25L37.7773 27.1278L39.2212 28.1165L35.0289 34.2388L33.585 33.25Z" fill="white"/>
<path d="M40.4561 31.9531L44.6587 25.8376L46.1011 26.8288L41.8984 32.9443L40.4561 31.9531Z" fill="white"/>
<path d="M47.3418 30.6758L51.5445 24.5602L52.9868 25.5514L48.7841 31.667L47.3418 30.6758Z" fill="white"/>
<path d="M28.2298 41.3109L26.9873 40.0684L32.2373 34.8359L33.4798 36.0784L28.2298 41.3109Z" fill="white"/>
<path d="M35.2298 41.3109L33.9873 40.0684L39.2373 34.8359L40.4798 36.0784L35.2298 41.3109Z" fill="white"/>
<path d="M42.2298 41.3109L40.9873 40.0684L46.2373 34.8359L47.4798 36.0784L42.2298 41.3109Z" fill="white"/>
<path d="M49.2298 41.3109L47.9873 40.0684L53.2373 34.8359L54.4798 36.0784L49.2298 41.3109Z" fill="white"/>
<path d="M41.5648 55.3973V53.8398C41.5648 53.8223 41.5823 53.7873 41.5823 53.7698H26.7423V36.3223H54.7423V41.5023H55.4773C55.5123 41.5023 55.5473 41.5198 55.5823 41.5198V41.5023H56.5098V34.5898H25.0098V53.7873C25.0098 54.7498 25.7973 55.5373 26.7598 55.5373H41.5998C41.5823 55.4848 41.5648 55.4498 41.5648 55.3973Z" fill="white"/>
<path d="M39.9548 55.3973V53.8398C39.9548 53.8223 39.9373 53.7873 39.9373 53.7698H54.7773V36.3223H26.7773V41.5023H26.0423C26.0073 41.5023 25.9723 41.5198 25.9373 41.5198V41.5023H25.0098V34.5898H56.5098V53.7873C56.5098 54.7498 55.7223 55.5373 54.7598 55.5373H39.9198C39.9373 55.4848 39.9548 55.4498 39.9548 55.3973Z" fill="white"/>
</svg>
