<svg width="80" height="80" viewBox="0 0 80 80" fill="none" xmlns="http://www.w3.org/2000/svg">
<path fill-rule="evenodd" clip-rule="evenodd" d="M26.667 36.668V9.04297C26.667 7.71797 28.267 6.66797 30.2479 6.66797H34.3241H49.7146C50.7051 6.66797 51.6194 6.94297 52.267 7.36797C52.9146 7.79297 53.3337 8.39297 53.3337 9.04297V34.168V64.293C53.3337 65.618 51.7337 66.668 49.7527 66.668H45.6765H30.286C29.7908 66.668 29.2956 66.593 28.8765 66.468C27.5813 66.118 26.667 65.268 26.667 64.293L26.667 36.668ZM50.0003 34.2437V10.0013H34.0403H30.0003L30.0003 36.668V63.3346H45.9603H50.0003V34.2437Z" fill="#101828"/>
<rect x="36.667" y="63.332" width="6.66667" height="10" rx="0.5" fill="#101828"/>
<path d="M33.333 26.668V23.3346H46.6663V26.668H33.333Z" fill="#101828"/>
<path d="M33.333 36.668V33.3346H46.6663V36.668H33.333Z" fill="#101828"/>
<path d="M33.333 46.668V43.3346H46.6663V46.668H33.333Z" fill="#101828"/>
<path d="M33.333 56.668V53.3346H46.6663V56.668H33.333Z" fill="#101828"/>
<path d="M40 15.5898C40.6136 15.5898 41.124 16.032 41.2299 16.6152L41.25 16.8398V68.6908C41.25 69.3812 40.6904 69.9408 40 69.9408C39.3864 69.9408 38.876 69.4986 38.7701 68.9155L38.75 68.6908V16.8398C38.75 16.1495 39.3096 15.5898 40 15.5898Z" fill="#101828"/>
</svg>
