<?xml version="1.0" encoding="UTF-8"?>
<svg width="42px" height="42px" viewBox="0 0 42 42" version="1.1" xmlns="http://www.w3.org/2000/svg" xmlns:xlink="http://www.w3.org/1999/xlink">
    <!-- Generator: Sketch 64 (93537) - https://sketch.com -->
    <title>273-G40px</title>
    <desc>Created with Sketch.</desc>
    <g id="NEW_icons" stroke="none" stroke-width="1" fill="none" fill-rule="evenodd">
        <g id="icons_UD_new-Copy" transform="translate(-1601.000000, -34668.000000)">
            <g id="273-G40px" transform="translate(1602.000000, 34669.000000)">
                <circle id="Oval-Copy-1518" stroke="#E3E8EC" cx="20" cy="20" r="20"></circle>
                <g id="273-B32px-Copy-6" transform="translate(4.000000, 4.000000)">
                    <g id="Group" transform="translate(11.000000, 24.000000)" fill="#101828" fill-rule="nonzero">
                        <rect id="Rectangle" x="0" y="0" width="1" height="3"></rect>
                        <rect id="Rectangle" x="3" y="0" width="1" height="3"></rect>
                        <rect id="Rectangle" x="6" y="0" width="1" height="3"></rect>
                        <rect id="Rectangle" x="9" y="0" width="1" height="3"></rect>
                    </g>
                    <g id="Group" transform="translate(11.000000, 5.000000)" fill="#101828" fill-rule="nonzero">
                        <rect id="Rectangle" x="0" y="0" width="1" height="3"></rect>
                        <rect id="Rectangle" x="3" y="0" width="1" height="3"></rect>
                        <rect id="Rectangle" x="6" y="0" width="1" height="3"></rect>
                        <rect id="Rectangle" x="9" y="0" width="1" height="3"></rect>
                    </g>
                    <g id="Group" transform="translate(24.000000, 11.000000)" fill="#101828" fill-rule="nonzero">
                        <rect id="Rectangle" x="0" y="0" width="3" height="1"></rect>
                        <rect id="Rectangle" x="0" y="3" width="3" height="1"></rect>
                        <rect id="Rectangle" x="0" y="6" width="3" height="1"></rect>
                        <rect id="Rectangle" x="0" y="9" width="3" height="1"></rect>
                    </g>
                    <g id="Group" transform="translate(5.000000, 11.000000)" fill="#101828" fill-rule="nonzero">
                        <rect id="Rectangle" x="0" y="0" width="3" height="1"></rect>
                        <rect id="Rectangle" x="0" y="3" width="3" height="1"></rect>
                        <rect id="Rectangle" x="0" y="6" width="3" height="1"></rect>
                        <rect id="Rectangle" x="0" y="9" width="3" height="1"></rect>
                    </g>
                    <path d="M23,8 L9,8 C8.45,8 8,8.45 8,9 L8,23 C8,23.55 8.45,24 9,24 L23,24 C23.55,24 24,23.55 24,23 L24,9 C24,8.45 23.55,8 23,8 Z M23,23 L9,23 L9,9 L23,9 L23,23 Z" id="Shape" fill="#101828" fill-rule="nonzero"></path>
                    <path d="M23,8 L9,8 C8.45,8 8,8.45 8,9 L8,23 C8,23.55 8.45,24 9,24 L23,24 C23.55,24 24,23.55 24,23 L24,9 C24,8.45 23.55,8 23,8 Z M23,23 L9,23 L9,9 L23,9 L23,23 Z" id="Shape" fill="#101828" fill-rule="nonzero"></path>
                    <path d="M20,11 L12,11 C11.45,11 11,11.45 11,12 L11,20 C11,20.55 11.45,21 12,21 L20,21 C20.55,21 21,20.55 21,20 L21,12 C21,11.45 20.55,11 20,11 Z M20,20 L12,20 L12,12 L20,12 L20,20 Z" id="Shape" fill="#101828" fill-rule="nonzero"></path>
                    <rect id="Rectangle" x="0" y="0" width="32" height="32"></rect>
                </g>
            </g>
        </g>
    </g>
</svg>