<?xml version="1.0" encoding="UTF-8"?>
<svg width="80px" height="80px" viewBox="0 0 80 80" version="1.1" xmlns="http://www.w3.org/2000/svg" xmlns:xlink="http://www.w3.org/1999/xlink">
    <!-- Generator: Sketch 64 (93537) - https://sketch.com -->
    <title>276-B80px</title>
    <desc>Created with Sketch.</desc>
    <g id="276-B80px" stroke="none" stroke-width="1" fill="none" fill-rule="evenodd">
        <g>
            <path d="M22.5,39.975 L22.5,54.975 L20,54.975 C18.65,54.975 17.5,54.075 17.5,53.025 L17.5,41.925 C17.5,40.875 18.65,39.975 20.025,39.975 L22.5,39.975 M25,37.475 L20.025,37.475 C17.25,37.475 15,39.475 15,41.925 L15,53.025 C15,55.475 17.225,57.475 20,57.475 L25,57.475 L25,37.475 L25,37.475 Z" id="Shape" fill="#101828" fill-rule="nonzero"></path>
            <path d="M60,38.725 L57.5,38.725 L57.5,37.475 C57.5,34.8 56.575,31.95 54.75,29.025 C51.225,23.3 45.825,20.025 40,20.025 C34.175,20.025 28.8,23.3 25.25,29 C23.425,31.95 22.5,34.8 22.5,37.45 L22.5,38.7 L20,38.7 L20,37.45 C20,34.3 21.05,31.025 23.125,27.675 C27.125,21.225 33.275,17.525 40,17.525 L40,17.525 C46.725,17.525 52.875,21.225 56.9,27.7 C58.975,31.05 60.025,34.325 60.025,37.475 L60.025,38.725 L60,38.725 Z" id="Path" fill="#101828" fill-rule="nonzero"></path>
            <path d="M60,39.975 C61.35,39.975 62.5,40.875 62.5,41.925 L62.5,53.025 C62.5,54.075 61.35,54.975 59.975,54.975 L57.5,54.975 L57.5,39.975 L60,39.975 M60,37.475 L55,37.475 L55,57.475 L59.975,57.475 C62.75,57.475 65,55.475 65,53.025 L65,41.925 C65,39.475 62.775,37.475 60,37.475 L60,37.475 Z" id="Shape" fill="#101828" fill-rule="nonzero"></path>
            <rect id="Rectangle" x="0" y="0" width="80" height="80"></rect>
        </g>
    </g>
</svg>