<svg width="32" height="32" viewBox="0 0 32 32" fill="none" xmlns="http://www.w3.org/2000/svg">
<path d="M16 5C18.1756 5 20.3023 5.64514 22.1113 6.85383C23.9202 8.06253 25.3301 9.78049 26.1627 11.7905C26.9952 13.8005 27.2131 16.0122 26.7886 18.146C26.3642 20.2798 25.3166 22.2398 23.7782 23.7782C22.2398 25.3165 20.2798 26.3642 18.146 26.7886C16.0122 27.2131 13.8005 26.9952 11.7905 26.1627C9.7805 25.3301 8.06253 23.9202 6.85384 22.1113C5.64514 20.3023 5.00001 18.1756 5.00001 16C5.00454 13.084 6.16492 10.2887 8.22684 8.22683C10.2888 6.16491 13.084 5.00453 16 5ZM16 4C13.6266 4 11.3066 4.70379 9.33316 6.02236C7.35977 7.34094 5.8217 9.21508 4.91345 11.4078C4.0052 13.6005 3.76756 16.0133 4.23058 18.3411C4.6936 20.6689 5.83649 22.807 7.51472 24.4853C9.19295 26.1635 11.3311 27.3064 13.6589 27.7694C15.9867 28.2324 18.3995 27.9948 20.5922 27.0865C22.7849 26.1783 24.6591 24.6402 25.9776 22.6668C27.2962 20.6934 28 18.3734 28 16C28 12.8174 26.7357 9.76515 24.4853 7.51472C22.2348 5.26428 19.1826 4 16 4Z" fill="black"/>
<path d="M15.9996 9.60156L17.978 13.5506L22.3996 14.1853L19.1996 17.2588L19.9564 21.6016L15.9996 19.5506L12.0428 21.6016L12.7996 17.2588L9.59961 14.1853L14.0212 13.5506L15.9996 9.60156Z" fill="black"/>
<path d="M23.8222 15.9992H24.8C24.8 13.6653 23.8729 11.427 22.2225 9.77668C20.5722 8.12636 18.3339 7.19922 16 7.19922V8.177C18.0746 8.177 20.0642 9.00112 21.5311 10.4681C22.9981 11.935 23.8222 13.9246 23.8222 15.9992Z" fill="black"/>
<path d="M16.0002 23.8222C13.9256 23.8222 11.936 22.9981 10.469 21.5311C9.0021 20.0642 8.17797 18.0746 8.17797 16H7.2002C7.2002 18.3339 8.12734 20.5722 9.77766 22.2225C11.428 23.8729 13.6663 24.8 16.0002 24.8V23.8222Z" fill="black"/>
</svg>
