<svg width="56" height="56" viewBox="0 0 56 56" fill="none" xmlns="http://www.w3.org/2000/svg">
<path d="M23.625 21C26.0412 21 28 19.0412 28 16.625C28 14.2088 26.0412 12.25 23.625 12.25C21.2088 12.25 19.25 14.2088 19.25 16.625C19.25 19.0412 21.2088 21 23.625 21ZM23.625 19.25C22.1752 19.25 21 18.0748 21 16.625C21 15.1752 22.1752 14 23.625 14C25.0748 14 26.25 15.1752 26.25 16.625C26.25 18.0748 25.0748 19.25 23.625 19.25Z" fill="#101828"/>
<path d="M33.25 21C35.183 21 36.75 19.433 36.75 17.5C36.75 15.567 35.183 14 33.25 14C31.317 14 29.75 15.567 29.75 17.5C29.75 19.433 31.317 21 33.25 21ZM33.25 19.25C32.2835 19.25 31.5 18.4665 31.5 17.5C31.5 16.5335 32.2835 15.75 33.25 15.75C34.2165 15.75 35 16.5335 35 17.5C35 18.4665 34.2165 19.25 33.25 19.25Z" fill="#101828"/>
<path d="M42 21C43.933 21 45.5 19.433 45.5 17.5C45.5 15.567 43.933 14 42 14C40.067 14 38.5 15.567 38.5 17.5C38.5 19.433 40.067 21 42 21ZM42 19.25C41.0335 19.25 40.25 18.4665 40.25 17.5C40.25 16.5335 41.0335 15.75 42 15.75C42.9665 15.75 43.75 16.5335 43.75 17.5C43.75 18.4665 42.9665 19.25 42 19.25Z" fill="#101828"/>
<path d="M14 21C15.933 21 17.5 19.433 17.5 17.5C17.5 15.567 15.933 14 14 14C12.067 14 10.5 15.567 10.5 17.5C10.5 19.433 12.067 21 14 21ZM14 19.25C13.0335 19.25 12.25 18.4665 12.25 17.5C12.25 16.5335 13.0335 15.75 14 15.75C14.9665 15.75 15.75 16.5335 15.75 17.5C15.75 18.4665 14.9665 19.25 14 19.25Z" fill="#101828"/>
<path d="M38.4999 28H36.7499V26.25C36.7499 25.2835 35.9664 24.5 34.9999 24.5H31.2012C30.9707 23.8479 30.615 23.255 30.1631 22.75H34.9999C36.9329 22.75 38.4999 24.317 38.4999 26.25V28Z" fill="#101828"/>
<path d="M38.9131 22.75H43.7499C45.6829 22.75 47.2499 24.317 47.2499 26.25V29.75H45.4999V26.25C45.4999 25.2835 44.7164 24.5 43.7499 24.5H39.9512C39.7207 23.8479 39.365 23.255 38.9131 22.75Z" fill="#101828"/>
<path d="M17.0868 22.75C16.6349 23.255 16.2792 23.8479 16.0487 24.5H12.25C11.2835 24.5 10.5 25.2835 10.5 26.25V29.75H8.75V26.25C8.75 24.317 10.317 22.75 12.25 22.75H17.0868Z" fill="#101828"/>
<path d="M17.5 28V26.25C17.5 24.317 19.067 22.75 21 22.75H26.25C28.183 22.75 29.75 24.317 29.75 26.25V28H28V26.25C28 25.2835 27.2165 24.5 26.25 24.5H21C20.0335 24.5 19.25 25.2835 19.25 26.25V28H17.5Z" fill="#101828"/>
<path d="M14 45.5V31.5H42V45.5H43.75V31.5C43.75 30.5335 42.9665 29.75 42 29.75H14C13.0335 29.75 12.25 30.5335 12.25 31.5V45.5H14Z" fill="#101828"/>
</svg>
