<svg width="56" height="56" viewBox="0 0 56 56" fill="none" xmlns="http://www.w3.org/2000/svg">
<path fill-rule="evenodd" clip-rule="evenodd" d="M28 56C43.464 56 56 43.464 56 28C56 12.536 43.464 0 28 0C12.536 0 0 12.536 0 28C0 43.464 12.536 56 28 56Z" fill="#E3E8EC"/>
<path d="M40.5 20.5C40.8315 20.5 41.1495 20.6317 41.3839 20.8661C41.6183 21.1005 41.75 21.4185 41.75 21.75V33C41.75 33.3315 41.6183 33.6495 41.3839 33.8839C41.1495 34.1183 40.8315 34.25 40.5 34.25H32.2625L31.5625 33.55C31.2112 33.1983 30.7346 33.0004 30.2375 33H25.7625C25.2654 33.0004 24.7888 33.1983 24.4375 33.55L23.7375 34.25H15.5C15.1685 34.25 14.8505 34.1183 14.6161 33.8839C14.3817 33.6495 14.25 33.3315 14.25 33V21.75C14.25 21.4185 14.3817 21.1005 14.6161 20.8661C14.8505 20.6317 15.1685 20.5 15.5 20.5H40.5ZM40.5 19.25H15.5C14.837 19.25 14.2011 19.5134 13.7322 19.9822C13.2634 20.4511 13 21.087 13 21.75V33C13 33.663 13.2634 34.2989 13.7322 34.7678C14.2011 35.2366 14.837 35.5 15.5 35.5H23.7375C24.0654 35.4986 24.3797 35.3684 24.6125 35.1375L25.3125 34.4375C25.3707 34.3771 25.4406 34.3293 25.518 34.2971C25.5954 34.2648 25.6787 34.2488 25.7625 34.25H30.2375C30.3213 34.2488 30.4046 34.2648 30.482 34.2971C30.5594 34.3293 30.6293 34.3771 30.6875 34.4375L31.3875 35.1375C31.6203 35.3684 31.9346 35.4986 32.2625 35.5H40.5C41.163 35.5 41.7989 35.2366 42.2678 34.7678C42.7366 34.2989 43 33.663 43 33V21.75C43 21.087 42.7366 20.4511 42.2678 19.9822C41.7989 19.5134 41.163 19.25 40.5 19.25Z" fill="#101828"/>
<path d="M13 23V31.75H11.75V23H13ZM14.25 21.75H11.75C11.4185 21.75 11.1005 21.8817 10.8661 22.1161C10.6317 22.3505 10.5 22.6685 10.5 23V31.75C10.5 32.0815 10.6317 32.3995 10.8661 32.6339C11.1005 32.8683 11.4185 33 11.75 33H14.25V21.75Z" fill="#101828"/>
<path d="M44.25 23V31.75H43V23H44.25ZM44.25 21.75H41.75V33H44.25C44.5815 33 44.8995 32.8683 45.1339 32.6339C45.3683 32.3995 45.5 32.0815 45.5 31.75V23C45.5 22.6685 45.3683 22.3505 45.1339 22.1161C44.8995 21.8817 44.5815 21.75 44.25 21.75Z" fill="#101828"/>
<path fill-rule="evenodd" clip-rule="evenodd" d="M30.1085 31.7461V28.7086H31.3723L33.1854 31.7461H34.875L32.9657 28.5836C34.0371 28.2086 34.7651 27.5336 34.7651 26.3711C34.7651 25.0711 33.7074 24.2461 31.9766 24.2461H28.625V31.7461H30.1085ZM33.295 26.4717C33.295 27.0717 32.8829 27.4592 31.9763 27.4592H30.1082V25.4842H31.9763C32.8966 25.4842 33.295 25.8717 33.295 26.4717Z" fill="#101828"/>
<path d="M15.1426 25.1445H16.4069V27.6445H15.1426V25.1445Z" fill="#101828"/>
<path d="M15.1426 24.0703V25.9365C15.1426 26.2865 15.4263 26.5703 15.7764 26.5703C16.1264 26.5703 16.4102 26.2865 16.4102 25.9365V23.7921C16.4102 23.253 16.8473 22.8159 17.3864 22.8159H19.5198C19.8637 22.8159 20.1426 22.5371 20.1426 22.1931C20.1426 21.8491 19.8637 21.5703 19.5198 21.5703H17.6812H17.6426C16.2619 21.5703 15.1426 22.6896 15.1426 24.0703Z" fill="#101828"/>
<path d="M19.4277 21.5703H24.4277V22.8132H19.4277V21.5703Z" fill="#101828"/>
<path d="M21.75 24.25L24.0938 31.75H25.6562L28 24.25H26.4375L24.875 29.485L23.3125 24.25H21.75Z" fill="#101828"/>
</svg>
