<svg width="40" height="40" viewBox="0 0 40 40" fill="none" xmlns="http://www.w3.org/2000/svg">
<path fill-rule="evenodd" clip-rule="evenodd" d="M6.0498 4.80078H33.5498C34.2373 4.80078 34.7998 5.36328 34.7998 6.05078V33.5508C34.7998 34.2383 34.2373 34.8008 33.5498 34.8008H6.0498C5.3623 34.8008 4.7998 34.2383 4.7998 33.5508V6.05078C4.7998 5.36328 5.3623 4.80078 6.0498 4.80078ZM33.5498 33.5508V6.05078H6.0498V33.5508H33.5498Z" fill="#101828"/>
<path fill-rule="evenodd" clip-rule="evenodd" d="M19.8244 11.2989C20.5744 12.0989 21.5869 12.5364 22.6619 12.5364C22.8119 12.5364 22.9619 12.5239 23.0994 12.5114C24.7744 12.3239 26.1494 11.0614 26.4619 9.42391C26.6994 8.14891 26.3119 6.84891 25.3994 5.93641C24.4869 5.02391 23.1869 4.62391 21.9119 4.87391C20.3869 5.17391 19.1619 6.39891 18.8744 7.92391C18.6494 9.16141 18.9994 10.3864 19.8244 11.2989ZM22.1494 6.11141C22.3244 6.07391 22.4994 6.06141 22.6744 6.06141C23.3619 6.06141 24.0244 6.32391 24.5119 6.83641C25.1369 7.44891 25.3869 8.31141 25.2244 9.19891C25.0244 10.2739 24.0744 11.1489 22.9619 11.2739C22.1244 11.3614 21.3244 11.0614 20.7494 10.4489C20.1869 9.83641 19.9494 8.99891 20.1119 8.16141C20.2994 7.14891 21.1369 6.29891 22.1494 6.11141Z" fill="#101828"/>
<path fill-rule="evenodd" clip-rule="evenodd" d="M22.6127 34.3266C23.0252 34.6266 23.5127 34.7891 24.0127 34.7891C24.1377 34.7891 24.2627 34.7766 24.3877 34.7641C25.0127 34.6641 25.5752 34.3141 25.9377 33.8016C26.3002 33.2891 26.4502 32.6516 26.3502 32.0266L25.2252 25.4141C25.1002 24.5266 24.6877 23.7016 24.0377 23.0891L20.8877 20.0891L22.1002 17.5641L22.4752 18.2016C23.0377 19.1766 24.0877 19.7891 25.2127 19.7891H29.8502C30.8252 19.7891 31.6377 18.9891 31.6502 18.0016C31.6502 17.5141 31.4627 17.0641 31.1252 16.7141C30.7877 16.3641 30.3377 16.1766 29.8502 16.1766H26.0502C25.7502 16.1766 25.4752 16.0016 25.3252 15.7266L23.8002 12.5641C23.4252 11.7891 22.6377 11.2891 21.7752 11.2891H14.3502C12.4252 11.2891 10.6502 12.2641 9.6377 13.9141L8.2627 16.1391C7.8752 16.7641 7.8502 17.5266 8.2127 18.1641C8.5752 18.8016 9.22519 19.1891 9.9627 19.1891C10.6252 19.1891 11.2377 18.8516 11.5877 18.3016L13.1377 15.8891C13.5127 15.3016 14.1502 14.9516 14.8377 14.9516H15.8877L12.8627 19.6516C11.6877 21.7141 11.7752 24.5266 11.8127 25.2016H7.1752C6.3502 25.2016 5.6002 25.6266 5.1502 26.3141C4.7252 26.9641 4.7002 27.7766 5.0752 28.4641C5.4502 29.1516 6.1377 29.5641 6.9252 29.5641H13.5752C14.6502 29.5641 15.5877 28.8391 15.8502 27.7891L17.0127 23.1266L20.6252 25.9641L21.6627 32.7516C21.7627 33.3891 22.1002 33.9516 22.6127 34.3266ZM22.9002 32.5766L21.8502 25.7016C21.8127 25.4391 21.6752 25.2141 21.4877 25.0516L17.8627 22.1891C17.6377 21.8641 17.2627 21.6766 16.8502 21.7141C16.3752 21.7641 16.0002 22.0766 15.8877 22.5391L14.6502 27.4891C14.5252 27.9766 14.0877 28.3141 13.5877 28.3141H6.9377C6.6127 28.3141 6.3252 28.1391 6.1752 27.8641C6.0127 27.5766 6.0252 27.2516 6.2002 26.9766C6.4127 26.6391 6.7752 26.4391 7.1752 26.4391H11.9752C12.5877 26.4391 13.0627 25.9766 13.0752 25.3016C13.0752 25.3 13.0747 25.293 13.074 25.281C13.0565 25.0098 12.8723 22.1565 13.9377 20.2891L17.5627 14.6641C17.6877 14.4766 17.7002 14.2266 17.5877 14.0266C17.4752 13.8266 17.2627 13.7016 17.0377 13.7016H14.8377C13.7252 13.7016 12.6877 14.2641 12.0877 15.2141L10.5377 17.6391C10.2627 18.0641 9.5627 18.0016 9.3127 17.5641C9.1752 17.3141 9.1877 17.0391 9.3377 16.8016L10.7127 14.5766C11.5002 13.3016 12.8627 12.5391 14.3627 12.5391H21.7877C22.1752 12.5391 22.5252 12.7641 22.6877 13.1016L24.2127 16.2766C24.5502 16.9766 25.2752 17.4266 26.0502 17.4266H29.8502C29.9877 17.4266 30.1377 17.4891 30.2377 17.5891C30.3502 17.7016 30.4002 17.8391 30.4002 17.9891C30.4002 18.2891 30.1502 18.5391 29.8502 18.5391H25.2127C24.5377 18.5391 23.9002 18.1641 23.5627 17.5641L22.5877 15.9266C22.4627 15.7266 22.2502 15.6016 22.0127 15.6141C21.7752 15.6266 21.5752 15.7516 21.4752 15.9641L19.5627 19.9516C19.4502 20.2016 19.5002 20.4891 19.7002 20.6766L23.1877 24.0016C23.6252 24.4266 23.9127 24.9891 24.0002 25.6141L25.1252 32.2391C25.1752 32.5391 25.1002 32.8266 24.9252 33.0766C24.7502 33.3141 24.4877 33.4766 24.1877 33.5266C23.8877 33.5766 23.5877 33.5016 23.3502 33.3266C23.1002 33.1391 22.9502 32.8766 22.9002 32.5766Z" fill="#101828"/>
</svg>
