<svg width="42" height="42" viewBox="0 0 42 42" fill="none" xmlns="http://www.w3.org/2000/svg">
<path fill-rule="evenodd" clip-rule="evenodd" d="M21 41C32.0457 41 41 32.0457 41 21C41 9.9543 32.0457 1 21 1C9.9543 1 1 9.9543 1 21C1 32.0457 9.9543 41 21 41Z" stroke="#E3E8EC"/>
<path d="M21 7.25C23.7195 7.25 26.3779 8.05642 28.6391 9.56729C30.9003 11.0782 32.6626 13.2256 33.7033 15.7381C34.744 18.2506 35.0163 21.0152 34.4858 23.6825C33.9553 26.3497 32.6457 28.7997 30.7227 30.7227C28.7997 32.6457 26.3497 33.9552 23.6825 34.4858C21.0153 35.0163 18.2506 34.744 15.7381 33.7033C13.2256 32.6626 11.0782 30.9003 9.5673 28.6391C8.05643 26.3779 7.25001 23.7195 7.25001 21C7.25567 17.355 8.70615 13.8609 11.2835 11.2835C13.8609 8.70614 17.355 7.25567 21 7.25ZM21 6C18.0333 6 15.1332 6.87973 12.6665 8.52795C10.1997 10.1762 8.27713 12.5189 7.14181 15.2597C6.0065 18.0006 5.70945 21.0166 6.28823 23.9263C6.86701 26.8361 8.29562 29.5088 10.3934 31.6066C12.4912 33.7044 15.1639 35.133 18.0737 35.7118C20.9834 36.2906 23.9994 35.9935 26.7403 34.8582C29.4811 33.7229 31.8238 31.8003 33.472 29.3335C35.1203 26.8668 36 23.9667 36 21C36 17.0217 34.4196 13.2064 31.6066 10.3934C28.7936 7.58035 24.9783 6 21 6Z" fill="black"/>
<path d="M21 13L23.473 17.9363L29 18.7297L25 22.5715L25.946 28L21 25.4363L16.054 28L17 22.5715L13 18.7297L18.527 17.9363L21 13Z" fill="black"/>
<path d="M30.7778 21H32C32 18.0826 30.8411 15.2847 28.7782 13.2218C26.7153 11.1589 23.9174 10 21 10V11.2222C23.5932 11.2222 26.0802 12.2524 27.9139 14.0861C29.7476 15.9198 30.7778 18.4068 30.7778 21Z" fill="black"/>
<path d="M21 30.7778C18.4068 30.7778 15.9198 29.7476 14.0861 27.9139C12.2524 26.0802 11.2222 23.5932 11.2222 21H10C10 23.9174 11.1589 26.7153 13.2218 28.7782C15.2847 30.8411 18.0826 32 21 32V30.7778Z" fill="black"/>
</svg>
