<?xml version="1.0" encoding="UTF-8"?>
<svg width="40px" height="40px" viewBox="0 0 40 40" version="1.1" xmlns="http://www.w3.org/2000/svg" xmlns:xlink="http://www.w3.org/1999/xlink">
    <!-- Generator: Sketch 64 (93537) - https://sketch.com -->
    <title>276-T40px</title>
    <desc>Created with Sketch.</desc>
    <g id="276-T40px" stroke="none" stroke-width="1" fill="none" fill-rule="evenodd">
        <g>
            <path d="M11.25,19.9875 L11.25,27.4875 L10,27.4875 C9.325,27.4875 8.75,27.0375 8.75,26.5125 L8.75,20.9625 C8.75,20.4375 9.325,19.9875 10.0125,19.9875 L11.25,19.9875 M12.5,18.7375 L10.0125,18.7375 C8.625,18.7375 7.5,19.7375 7.5,20.9625 L7.5,26.5125 C7.5,27.7375 8.6125,28.7375 10,28.7375 L12.5,28.7375 L12.5,18.7375 L12.5,18.7375 Z" id="Shape" fill="#FFFFFF" fill-rule="nonzero"></path>
            <path d="M30,19.3625 L28.75,19.3625 L28.75,18.7375 C28.75,17.4 28.2875,15.975 27.375,14.5125 C25.6125,11.65 22.9125,10.0125 20,10.0125 C17.0875,10.0125 14.4,11.65 12.625,14.5 C11.7125,15.975 11.25,17.4 11.25,18.725 L11.25,19.35 L10,19.35 L10,18.725 C10,17.15 10.525,15.5125 11.5625,13.8375 C13.5625,10.6125 16.6375,8.7625 20,8.7625 L20,8.7625 C23.3625,8.7625 26.4375,10.6125 28.45,13.85 C29.4875,15.525 30.0125,17.1625 30.0125,18.7375 L30.0125,19.3625 L30,19.3625 Z" id="Path" fill="#FFFFFF" fill-rule="nonzero"></path>
            <path d="M30,19.9875 C30.675,19.9875 31.25,20.4375 31.25,20.9625 L31.25,26.5125 C31.25,27.0375 30.675,27.4875 29.9875,27.4875 L28.75,27.4875 L28.75,19.9875 L30,19.9875 M30,18.7375 L27.5,18.7375 L27.5,28.7375 L29.9875,28.7375 C31.375,28.7375 32.5,27.7375 32.5,26.5125 L32.5,20.9625 C32.5,19.7375 31.3875,18.7375 30,18.7375 L30,18.7375 Z" id="Shape" fill="#FFFFFF" fill-rule="nonzero"></path>
            <rect id="Rectangle" x="0" y="0" width="40" height="40"></rect>
        </g>
    </g>
</svg>