<svg width="80" height="80" viewBox="0 0 80 80" fill="none" xmlns="http://www.w3.org/2000/svg">
<path d="M51.2748 32.5C50.2498 32.5 49.4248 33.35 49.4248 34.375C49.4248 35.4 50.2498 36.25 51.2748 36.25C52.2998 36.25 53.1248 35.4 53.1248 34.375C53.1248 33.35 52.2748 32.5 51.2748 32.5Z" fill="#101828"/>
<path d="M51.2748 26.25C50.2498 26.25 49.4248 27.1 49.4248 28.125C49.4248 29.15 50.2498 30 51.2748 30C52.2998 30 53.1248 29.15 53.1248 28.125C53.1248 27.1 52.2748 26.25 51.2748 26.25Z" fill="#101828"/>
<path d="M54.375 29.3516C53.35 29.3516 52.5 30.2016 52.5 31.2516C52.5 32.3016 53.35 33.1516 54.375 33.1516C55.4 33.1516 56.25 32.3016 56.25 31.2516C56.25 30.2016 55.4 29.3516 54.375 29.3516Z" fill="#101828"/>
<path d="M48.1498 29.375C47.1248 29.375 46.2998 30.225 46.2998 31.25C46.2998 32.3 47.1248 33.125 48.1498 33.125C49.1748 33.125 49.9998 32.3 49.9998 31.25C49.9998 30.2 49.1748 29.375 48.1498 29.375Z" fill="#101828"/>
<path d="M64.5245 37L60.7995 19.475C60.5495 18.325 59.5745 17.5 58.4245 17.5H42.0745H38.7495V10H36.2495V17.5H32.9245H16.5745C15.4245 17.5 14.4495 18.325 14.2245 19.475L10.4745 37C9.79952 40.375 9.67452 42.7 11.1245 45.925C12.8995 49.9 17.1995 52.5 21.4995 52.5C21.5745 52.5 21.6245 52.5 21.6995 52.5C27.9245 52.375 32.9495 47.2 32.9495 40.825H42.0745C42.0745 42.8 42.5995 44.625 43.4495 46.25C43.9995 45.55 44.5995 44.9 45.2495 44.3C44.8245 43.225 44.5745 42.05 44.5745 40.825V38.325H42.0745H32.9495H30.4495V40.825C30.4495 45.8 26.4995 49.9 21.6745 50H21.4995C18.0745 50 14.7495 47.9 13.4245 44.9C12.2745 42.3 12.3245 40.6 12.9495 37.525L16.5745 20H32.9245H42.0995H58.3495L62.0745 37.5C62.3745 39 62.5245 40.15 62.4995 41.25C63.3495 41.6 64.1495 42.025 64.8995 42.5C65.1245 40.775 64.9245 39.1 64.5245 37Z" fill="#101828"/>
<path d="M28.6998 29.9984H24.9998V26.1484H22.4998V29.9984H18.6748V32.4984H22.4998V36.1734H24.9998V32.4984H28.6998V29.9984Z" fill="#101828"/>
<path fill-rule="evenodd" clip-rule="evenodd" d="M54.8891 41.2633L55.415 41.25L55.9913 41.2662C60.0849 41.4963 63.6682 44.1404 65.2539 48.1246L65.3749 48.43L66.1695 48.3749L66.5115 48.3667C69.099 48.3667 71.5556 49.4365 73.3995 51.3545C75.2425 53.2893 76.2501 55.8489 76.2501 58.5877C76.2306 64.1878 71.8598 68.75 66.4401 68.75L45.0707 68.6999C40.1611 68.6416 36.2308 64.4527 36.2501 59.3616C36.2701 54.4506 39.957 50.3744 44.6795 50.1017L45.0074 50.0825L45.0785 49.7656C46.2072 44.9352 50.182 41.5024 54.8891 41.2633ZM55.4436 43.75L55.415 43.75C51.6646 43.75 48.424 46.4354 47.5163 50.3199L47.2435 51.5532C47.1222 52.102 46.6494 52.5024 46.0881 52.5316L44.8167 52.5979C41.4458 52.7926 38.7648 55.7567 38.7501 59.3714C38.7359 63.1154 41.591 66.1584 45.0855 66.2L46.7592 66.2L66.4433 66.25C70.4559 66.25 73.7353 62.827 73.7501 58.5833C73.7501 56.486 72.986 54.5451 71.5933 53.083C70.2197 51.6541 68.4114 50.8667 66.5115 50.8667C66.3537 50.8667 66.2254 50.8738 65.9256 50.8963L64.6488 50.9962C64.1013 51.039 63.59 50.7195 63.3885 50.2087L62.9297 49.0455C61.648 45.8252 58.723 43.7644 55.4436 43.75Z" fill="#101828"/>
</svg>
