<svg width="56" height="56" viewBox="0 0 56 56" fill="none" xmlns="http://www.w3.org/2000/svg">
<path d="M35.8927 22.75C35.1752 22.75 34.5977 23.345 34.5977 24.0625C34.5977 24.78 35.1752 25.375 35.8927 25.375C36.6102 25.375 37.1877 24.78 37.1877 24.0625C37.1877 23.345 36.5927 22.75 35.8927 22.75Z" fill="#101828"/>
<path d="M35.8927 18.375C35.1752 18.375 34.5977 18.97 34.5977 19.6875C34.5977 20.405 35.1752 21 35.8927 21C36.6102 21 37.1877 20.405 37.1877 19.6875C37.1877 18.97 36.5927 18.375 35.8927 18.375Z" fill="#101828"/>
<path d="M38.0625 20.5469C37.345 20.5469 36.75 21.1419 36.75 21.8769C36.75 22.6119 37.345 23.2069 38.0625 23.2069C38.78 23.2069 39.375 22.6119 39.375 21.8769C39.375 21.1419 38.78 20.5469 38.0625 20.5469Z" fill="#101828"/>
<path d="M33.7052 20.5625C32.9877 20.5625 32.4102 21.1575 32.4102 21.875C32.4102 22.61 32.9877 23.1875 33.7052 23.1875C34.4227 23.1875 35.0002 22.61 35.0002 21.875C35.0002 21.14 34.4227 20.5625 33.7052 20.5625Z" fill="#101828"/>
<path d="M45.1672 25.9L42.5597 13.6325C42.3847 12.8275 41.7022 12.25 40.8972 12.25H29.4522H27.1247V7H25.3747V12.25H23.0472H11.6022C10.7972 12.25 10.1147 12.8275 9.95717 13.6325L7.33217 25.9C6.85967 28.2625 6.77217 29.89 7.78717 32.1475C9.02967 34.93 12.0397 36.75 15.0497 36.75C15.1022 36.75 15.1372 36.75 15.1897 36.75C19.5472 36.6625 23.0647 33.04 23.0647 28.5775H29.4522C29.4522 29.96 29.8197 31.2375 30.4147 32.375C30.7997 31.885 31.2197 31.43 31.6747 31.01C31.3772 30.2575 31.2022 29.435 31.2022 28.5775V26.8275H29.4522H23.0647H21.3147V28.5775C21.3147 32.06 18.5497 34.93 15.1722 35H15.0497C12.6522 35 10.3247 33.53 9.39717 31.43C8.59217 29.61 8.62717 28.42 9.06467 26.2675L11.6022 14H23.0472H29.4697H40.8447L43.4522 26.25C43.6622 27.3 43.7672 28.105 43.7497 28.875C44.3447 29.12 44.9047 29.4175 45.4297 29.75C45.5872 28.5425 45.4472 27.37 45.1672 25.9Z" fill="#101828"/>
<path d="M20.0898 20.9997H17.4998V18.3047H15.7498V20.9997H13.0723V22.7497H15.7498V25.3222H17.4998V22.7497H20.0898V20.9997Z" fill="#101828"/>
<path fill-rule="evenodd" clip-rule="evenodd" d="M38.4225 28.8843L38.7906 28.875L39.194 28.8864C42.0596 29.0474 44.5679 30.8983 45.6778 33.6872L45.7625 33.901L46.3188 33.8624L46.5581 33.8567C48.3694 33.8567 50.089 34.6055 51.3798 35.9482C52.6698 37.3025 53.3751 39.0942 53.3751 41.0114C53.3615 44.9314 50.3019 48.125 46.5082 48.125L31.5496 48.0899C28.1128 48.0491 25.3616 45.1169 25.3751 41.5531C25.3891 38.1154 27.97 35.2621 31.2758 35.0712L31.5053 35.0578L31.5551 34.8359C32.3451 31.4547 35.1275 29.0517 38.4225 28.8843ZM38.8106 30.625L38.7906 30.625C36.1653 30.625 33.8969 32.5048 33.2615 35.2239L33.0706 36.0873C32.9856 36.4714 32.6547 36.7517 32.2618 36.7721L31.3718 36.8185C29.0122 36.9548 27.1354 39.0297 27.1251 41.56C27.1152 44.1808 29.1138 46.3109 31.56 46.34L32.7315 46.34L46.5104 46.375C49.3192 46.375 51.6148 43.9789 51.6251 41.0083C51.6251 39.5402 51.0903 38.1816 50.1154 37.1581C49.1539 36.1579 47.8881 35.6067 46.5581 35.6067C46.4477 35.6067 46.3579 35.6116 46.148 35.6274L45.2542 35.6973C44.871 35.7273 44.5131 35.5037 44.372 35.1461L44.0509 34.3319C43.1537 32.0777 41.1062 30.6351 38.8106 30.625Z" fill="#101828"/>
</svg>
