<?xml version="1.0" encoding="UTF-8"?>
<svg width="80px" height="80px" viewBox="0 0 80 80" version="1.1" xmlns="http://www.w3.org/2000/svg" xmlns:xlink="http://www.w3.org/1999/xlink">
    <!-- Generator: Sketch 61.1 (89650) - https://sketch.com -->
    <title>269-C80px</title>
    <desc>Created with Sketch.</desc>
    <g id="NEW_icons" stroke="none" stroke-width="1" fill="none" fill-rule="evenodd">
        <g id="icons_UD_new-Copy" transform="translate(-2284.000000, -34127.000000)">
            <g id="269-C80px" transform="translate(2284.000000, 34127.000000)">
                <circle id="Oval-Copy-1504" fill="#FF4F12" cx="40" cy="40" r="40"></circle>
                <g id="269-B32px-Copy-9" transform="translate(40.000000, 40.000000) rotate(-270.000000) translate(-40.000000, -40.000000) translate(12.000000, 12.000000)">
                    <rect id="Rectangle" x="0" y="0" width="56" height="56"></rect>
                    <path d="M30.45,7.875 C29.05,6.475 26.775,6.475 25.375,7.875 L16.45,16.8 L16.275,16.975 L16.275,16.975 L7.875,25.375 C7.175,26.075 6.825,26.95 6.825,28 C6.825,29.05 7.175,29.925 7.875,30.625 L16.8,39.55 L16.975,39.725 L16.975,39.725 L25.375,48.125 C26.075,48.825 26.95,49.175 28,49.175 C29.05,49.175 29.925,48.825 30.625,48.125 L39.55,39.2 L39.55,39.2 L39.55,39.2 L47.95,30.8 C48.65,30.1 49,29.225 49,28.175 C49,27.125 48.65,26.25 47.95,25.55 L30.45,7.875 Z M9.275,29.4 C8.925,29.05 8.75,28.525 8.75,28 C8.75,27.475 8.925,26.95 9.275,26.6 L15.575,20.3 L15.575,20.475 C15.575,21 15.925,21.525 16.45,22.05 L26.775,32.375 L20.825,38.325 C20.125,39.025 18.9,39.025 18.2,38.325 L9.275,29.4 Z M28,31.325 L24.675,28 L27.825,24.675 L31.15,28 L28,31.325 Z M46.725,26.775 C47.075,27.125 47.25,27.65 47.25,28.175 C47.25,28.7 47.075,29.225 46.725,29.575 L40.425,35.875 C40.425,35.175 40.075,34.65 39.55,34.125 L29.225,23.8 L35.175,17.85 C35.875,17.15 37.1,17.15 37.8,17.85 L46.725,26.775 Z" id="Shape" fill="#FFFFFF" fill-rule="nonzero"></path>
                </g>
            </g>
        </g>
    </g>
</svg>