<svg width="42" height="42" viewBox="0 0 42 42" fill="none" xmlns="http://www.w3.org/2000/svg">
<circle cx="21" cy="21" r="20" stroke="#E3E8EC" fill="transparent" />
<path fill-rule="evenodd" clip-rule="evenodd" d="M15.667 19.668L15.667 8.61797C15.667 8.08797 16.307 7.66797 17.0994 7.66797H18.7298H24.886C25.2822 7.66797 25.6479 7.77797 25.907 7.94797C26.166 8.11797 26.3337 8.35797 26.3337 8.61797V18.668V30.718C26.3337 31.248 25.6937 31.668 24.9013 31.668H23.2708H17.1146C16.9165 31.668 16.7184 31.638 16.5508 31.588C16.0327 31.448 15.667 31.108 15.667 30.718V19.668ZM25.0003 18.6983V9.0013H18.6163H17.0003V19.668V30.3346H23.3843H25.0003V18.6983Z" fill="#101828"/>
<rect x="19.667" y="30.332" width="2.66667" height="4" rx="0.5" fill="#101828"/>
<rect x="18.333" y="15.668" width="1.33333" height="5.33333" transform="rotate(-90 18.333 15.668)" fill="#101828"/>
<path d="M18.333 19.668V18.3346H23.6663V19.668H18.333Z" fill="#101828"/>
<rect x="18.333" y="23.668" width="1.33333" height="5.33333" transform="rotate(-90 18.333 23.668)" fill="#101828"/>
<path d="M18.333 27.668V26.3346H23.6663V27.668H18.333Z" fill="#101828"/>
<path d="M21 11.2344C21.2455 11.2344 21.4496 11.4113 21.4919 11.6445L21.5 11.7344V32.4748C21.5 32.7509 21.2761 32.9748 21 32.9748C20.7545 32.9748 20.5504 32.7979 20.5081 32.5646L20.5 32.4748V11.7344C20.5 11.4582 20.7239 11.2344 21 11.2344Z" fill="#101828"/>
</svg>
