<svg width="80" height="80" viewBox="0 0 80 80" fill="none" xmlns="http://www.w3.org/2000/svg">
<circle cx="40" cy="40" r="40" fill="#E3E8EC"/>
<path fill-rule="evenodd" clip-rule="evenodd" d="M20.4697 18.7188H58.9697C59.9322 18.7188 60.7197 19.5063 60.7197 20.4688V58.9688C60.7197 59.9313 59.9322 60.7188 58.9697 60.7188H20.4697C19.5072 60.7188 18.7197 59.9313 18.7197 58.9688V20.4688C18.7197 19.5063 19.5072 18.7188 20.4697 18.7188ZM58.9697 58.9688V20.4688H20.4697V58.9688H58.9697Z" fill="#101828"/>
<path fill-rule="evenodd" clip-rule="evenodd" d="M39.7546 27.82C40.8046 28.94 42.2221 29.5525 43.7271 29.5525C43.9371 29.5525 44.1471 29.535 44.3396 29.5175C46.6846 29.255 48.6096 27.4875 49.0471 25.195C49.3796 23.41 48.8371 21.59 47.5596 20.3125C46.2821 19.035 44.4621 18.475 42.6771 18.825C40.5421 19.245 38.8271 20.96 38.4246 23.095C38.1096 24.8275 38.5996 26.5425 39.7546 27.82ZM43.0096 20.5575C43.2546 20.505 43.4996 20.4875 43.7446 20.4875C44.7071 20.4875 45.6346 20.855 46.3171 21.5725C47.1921 22.43 47.5421 23.6375 47.3146 24.88C47.0346 26.385 45.7046 27.61 44.1471 27.785C42.9746 27.9075 41.8546 27.4875 41.0496 26.63C40.2621 25.7725 39.9296 24.6 40.1571 23.4275C40.4196 22.01 41.5921 20.82 43.0096 20.5575Z" fill="#101828"/>
<path fill-rule="evenodd" clip-rule="evenodd" d="M43.657 60.0533C44.2345 60.4733 44.917 60.7008 45.617 60.7008C45.792 60.7008 45.967 60.6833 46.142 60.6658C47.017 60.5258 47.8045 60.0358 48.312 59.3183C48.8195 58.6008 49.0295 57.7083 48.8895 56.8333L47.3145 47.5758C47.1395 46.3333 46.562 45.1783 45.652 44.3208L41.242 40.1208L42.9395 36.5858L43.4645 37.4783C44.252 38.8433 45.722 39.7008 47.297 39.7008H53.7895C55.1545 39.7008 56.292 38.5808 56.3095 37.1983C56.3095 36.5158 56.047 35.8858 55.5745 35.3958C55.102 34.9058 54.472 34.6433 53.7895 34.6433H48.4695C48.0495 34.6433 47.6645 34.3983 47.4545 34.0133L45.3195 29.5858C44.7945 28.5008 43.692 27.8008 42.4845 27.8008H32.0895C29.3945 27.8008 26.9095 29.1658 25.492 31.4758L23.567 34.5908C23.0245 35.4658 22.9895 36.5333 23.497 37.4258C24.0045 38.3183 24.9145 38.8608 25.947 38.8608C26.8745 38.8608 27.732 38.3883 28.222 37.6183L30.392 34.2408C30.917 33.4183 31.8095 32.9283 32.772 32.9283H34.242L30.007 39.5083C28.362 42.3958 28.4845 46.3333 28.537 47.2783H22.0445C20.8895 47.2783 19.8395 47.8733 19.2095 48.8358C18.6145 49.7458 18.5795 50.8833 19.1045 51.8458C19.6295 52.8083 20.592 53.3858 21.6945 53.3858H31.0045C32.5095 53.3858 33.822 52.3708 34.1895 50.9008L35.817 44.3733L40.8745 48.3458L42.327 57.8483C42.467 58.7408 42.9395 59.5283 43.657 60.0533ZM44.0595 57.6033L42.5895 47.9783C42.537 47.6108 42.3445 47.2958 42.082 47.0683L37.007 43.0608C36.692 42.6058 36.167 42.3433 35.5895 42.3958C34.9245 42.4658 34.3995 42.9033 34.242 43.5508L32.5095 50.4808C32.3345 51.1633 31.722 51.6358 31.022 51.6358H21.712C21.257 51.6358 20.8545 51.3908 20.6445 51.0058C20.417 50.6033 20.4345 50.1483 20.6795 49.7633C20.977 49.2908 21.4845 49.0108 22.0445 49.0108H28.7645C29.622 49.0108 30.287 48.3633 30.3045 47.4183C30.3045 47.4161 30.3039 47.4063 30.3028 47.3896C30.2783 47.0099 30.0204 43.0152 31.512 40.4008L36.587 32.5258C36.762 32.2633 36.7795 31.9133 36.622 31.6333C36.4645 31.3533 36.167 31.1783 35.852 31.1783H32.772C31.2145 31.1783 29.762 31.9658 28.922 33.2958L26.752 36.6908C26.367 37.2858 25.387 37.1983 25.037 36.5858C24.8445 36.2358 24.862 35.8508 25.072 35.5183L26.997 32.4033C28.0995 30.6183 30.007 29.5508 32.107 29.5508H42.502C43.0445 29.5508 43.5345 29.8658 43.762 30.3383L45.897 34.7833C46.3695 35.7633 47.3845 36.3933 48.4695 36.3933H53.7895C53.982 36.3933 54.192 36.4808 54.332 36.6208C54.4895 36.7783 54.5595 36.9708 54.5595 37.1808C54.5595 37.6008 54.2095 37.9508 53.7895 37.9508H47.297C46.352 37.9508 45.4595 37.4258 44.987 36.5858L43.622 34.2933C43.447 34.0133 43.1495 33.8383 42.817 33.8558C42.4845 33.8733 42.2045 34.0483 42.0645 34.3458L39.387 39.9283C39.2295 40.2783 39.2995 40.6808 39.5795 40.9433L44.462 45.5983C45.0745 46.1933 45.477 46.9808 45.5995 47.8558L47.1745 57.1308C47.2445 57.5508 47.1395 57.9533 46.8945 58.3033C46.6495 58.6358 46.282 58.8633 45.862 58.9333C45.442 59.0033 45.022 58.8983 44.6895 58.6533C44.3395 58.3908 44.1295 58.0233 44.0595 57.6033Z" fill="#101828"/>
</svg>
