<?xml version="1.0" encoding="UTF-8"?>
<svg width="42px" height="42px" viewBox="0 0 42 42" version="1.1" xmlns="http://www.w3.org/2000/svg" xmlns:xlink="http://www.w3.org/1999/xlink">
    <!-- Generator: Sketch 61.1 (89650) - https://sketch.com -->
    <title>269-G40px</title>
    <desc>Created with Sketch.</desc>
    <g id="NEW_icons" stroke="none" stroke-width="1" fill="none" fill-rule="evenodd">
        <g id="icons_UD_new-Copy" transform="translate(-1526.000000, -34166.000000)">
            <g id="269-G40px" transform="translate(1527.000000, 34167.000000)">
                <circle id="Oval-Copy-1506" stroke="#E3E8EC" cx="20" cy="20" r="20"></circle>
                <g id="269-B32px-Copy" transform="translate(4.000000, 4.000000)">
                    <rect id="Rectangle" x="0" y="0" width="32" height="32"></rect>
                    <path d="M17.4,4.5 C16.6,3.7 15.3,3.7 14.5,4.5 L9.4,9.6 L9.3,9.7 L9.3,9.7 L4.5,14.5 C4.1,14.9 3.9,15.4 3.9,16 C3.9,16.6 4.1,17.1 4.5,17.5 L9.6,22.6 L9.7,22.7 L9.7,22.7 L14.5,27.5 C14.9,27.9 15.4,28.1 16,28.1 C16.6,28.1 17.1,27.9 17.5,27.5 L22.6,22.4 L22.6,22.4 L22.6,22.4 L27.4,17.6 C27.8,17.2 28,16.7 28,16.1 C28,15.5 27.8,15 27.4,14.6 L17.4,4.5 Z M5.3,16.8 C5.1,16.6 5,16.3 5,16 C5,15.7 5.1,15.4 5.3,15.2 L8.9,11.6 L8.9,11.7 C8.9,12 9.1,12.3 9.4,12.6 L15.3,18.5 L11.9,21.9 C11.5,22.3 10.8,22.3 10.4,21.9 L5.3,16.8 Z M16,17.9 L14.1,16 L15.9,14.1 L17.8,16 L16,17.9 Z M26.7,15.3 C26.9,15.5 27,15.8 27,16.1 C27,16.4 26.9,16.7 26.7,16.9 L23.1,20.5 C23.1,20.1 22.9,19.8 22.6,19.5 L16.7,13.6 L20.1,10.2 C20.5,9.8 21.2,9.8 21.6,10.2 L26.7,15.3 Z" id="Shape" fill="#101828" fill-rule="nonzero"></path>
                </g>
            </g>
        </g>
    </g>
</svg>